<svg width="60" height="60" viewBox="0 0 60 60" fill="none" xmlns="http://www.w3.org/2000/svg">
<path d="M27.01 16.4926H16.5107V26.9918H27.01V16.4926Z" fill="#01426A"/>
<path d="M43.5044 32.9865H33.0051V43.4857H43.5044V32.9865Z" fill="#1F74B7"/>
<path d="M27.01 49.4973H16.5107V59.9966H27.01V49.4973Z" fill="#01426A"/>
<path d="M10.4992 32.9865H0V43.4857H10.4992V32.9865Z" fill="#1F74B7"/>
<path d="M0 56.9992C0 58.6587 1.33778 59.9965 2.99734 59.9965H10.4992V49.4973H0V56.9992Z" fill="#1F74B7"/>
<path d="M27.01 32.9865H16.5107V43.4857H27.01V32.9865Z" fill="#1F74B7"/>
<path d="M59.9982 16.4926H49.499V26.9918H59.9982V16.4926Z" fill="#1F74B7"/>
<path d="M43.5044 16.4926H33.0051V26.9918H43.5044V16.4926Z" fill="#1F74B7"/>
<path d="M57.0005 -0.00170898H2.99734C1.33778 -0.00170898 0 1.33607 0 2.99563V10.4975H59.9979V2.99563C59.9979 1.33607 58.6601 -0.00170898 57.0005 -0.00170898Z" fill="#72A6CF"/>
<path d="M59.9982 32.9865H49.499V43.4857H59.9982V32.9865Z" fill="#1F74B7"/>
</svg>
