<svg width="60" height="60" viewBox="0 0 60 60" fill="none" xmlns="http://www.w3.org/2000/svg">
<path d="M43.4855 -0.00170898H16.4923V59.9962H43.4855V-0.00170898Z" fill="#1F74B7"/>
<path d="M10.4974 33.0034H-0.00180054V43.5026H10.4974V33.0034Z" fill="#01426A"/>
<path d="M-0.00180054 56.9992C-0.00180054 58.6587 1.336 59.9965 2.99555 59.9965H10.4974V49.4973H-0.00180054V56.9992Z" fill="#72A6CF"/>
<path d="M10.4974 16.5091H-0.00180054V27.0084H10.4974V16.5091Z" fill="#72A6CF"/>
<path d="M-0.00180054 10.4975H10.4974V-0.00170898H4.79058C2.13191 -0.00170898 -0.00180054 2.14896 -0.00180054 4.7907V10.4975Z" fill="#72A6CF"/>
<path d="M59.9964 16.5091H49.4972V27.0084H59.9964V16.5091Z" fill="#72A6CF"/>
<path d="M49.4972 10.4975H59.9964V4.7907C59.9964 2.13203 57.8458 -0.00170898 55.204 -0.00170898H49.4972V10.4975Z" fill="#01426A"/>
<path d="M49.4972 59.9965H56.9991C58.6586 59.9965 59.9964 58.6587 59.9964 56.9992V49.4973H49.4972V59.9965Z" fill="#72A6CF"/>
<path d="M59.9964 33.0034H49.4972V43.5026H59.9964V33.0034Z" fill="#72A6CF"/>
</svg>
