<svg width="60" height="60" viewBox="0 0 60 60" fill="none" xmlns="http://www.w3.org/2000/svg">
<path d="M26.9997 49.4991H16.4972V59.9983H26.9997V49.4991Z" fill="#1F74B7"/>
<path d="M26.9997 33.0052H16.4972V43.5044H26.9997V33.0052Z" fill="#1F74B7"/>
<path d="M59.9982 16.4943H49.4958V26.9935H59.9982V16.4943Z" fill="#1F74B7"/>
<path d="M32.9967 59.8628H55.2044C57.8639 59.8628 59.9982 57.7122 59.9982 55.0704V33.0052H32.9967V59.8628Z" fill="#72A6CF"/>
<path d="M4.7921 59.9979H10.5007V0H4.7921C2.1326 0 -0.00177002 2.15064 -0.00177002 4.79238V55.1886C-0.00177002 57.8472 2.14954 59.9809 4.7921 59.9809V59.9979Z" fill="#01426A"/>
<path d="M43.4987 0H16.4972V26.9931H43.4987V0Z" fill="#72A6CF"/>
<path d="M49.4958 10.4992H59.9982V4.79238C59.9982 2.13371 57.8469 0 55.2043 0H49.4958V10.4992Z" fill="#72A6CF"/>
</svg>
