<svg width="60" height="60" viewBox="0 0 60 60" fill="none" xmlns="http://www.w3.org/2000/svg">
<path d="M59.9943 32.9882H16.5012V43.4874H59.9943V32.9882Z" fill="#1F74B7"/>
<path d="M16.5012 0V10.4992H59.9943V4.79238C59.9943 2.13371 57.8442 0 55.2031 0H16.5012Z" fill="#1F74B7"/>
<path d="M10.4912 0H4.78584C2.12784 0 -0.00534058 2.15065 -0.00534058 4.79238V10.4992H10.4912V0Z" fill="#01426A"/>
<path d="M10.4912 32.9882H-0.00534058V43.4874H10.4912V32.9882Z" fill="#01426A"/>
<path d="M43.4881 16.4943H32.9915V26.9935H43.4881V16.4943Z" fill="#72A6CF"/>
<path d="M59.9778 16.4943H49.4812V26.9935H59.9778V16.4943Z" fill="#72A6CF"/>
<path d="M26.9978 16.4943H16.5012V26.9935H26.9978V16.4943Z" fill="#72A6CF"/>
<path d="M43.4881 49.4991H32.9915V59.9983H43.4881V49.4991Z" fill="#72A6CF"/>
<path d="M59.9947 49.4991H49.4981V59.9983H55.2035C57.8615 59.9983 59.9947 57.8476 59.9947 55.2059V49.4991Z" fill="#72A6CF"/>
<path d="M26.9978 49.4991H16.5012V59.9983H26.9978V49.4991Z" fill="#72A6CF"/>
</svg>
