<svg width="60" height="60" viewBox="0 0 60 60" fill="none" xmlns="http://www.w3.org/2000/svg">
<path d="M27.0082 16.4943H16.509V26.9935H27.0082V16.4943Z" fill="#72A6CF"/>
<path d="M10.4975 16.4943H-0.00177002V26.9935H10.4975V16.4943Z" fill="#72A6CF"/>
<path d="M27.0082 49.4991H16.509V59.9983H27.0082V49.4991Z" fill="#72A6CF"/>
<path d="M-0.00177002 10.4992H43.5022V0H4.80754C2.14887 0 0.0151807 2.15064 0.0151807 4.79238V10.4992H-0.00177002Z" fill="#01426A"/>
<path d="M27.0082 33.0052H16.509V43.5044H27.0082V33.0052Z" fill="#72A6CF"/>
<path d="M59.9964 16.4943H49.4973V43.4874H59.9964V16.4943Z" fill="#1F74B7"/>
<path d="M4.80792 59.9983H10.5147V49.4991H0.015564V55.2059C0.015564 57.8645 2.16618 59.9983 4.80792 59.9983Z" fill="#72A6CF"/>
<path d="M10.4975 33.0052H-0.00177002V43.5044H10.4975V33.0052Z" fill="#72A6CF"/>
<path d="M43.5026 33.0052H33.0034V59.9983H43.5026V33.0052Z" fill="#72A6CF"/>
<path d="M43.5026 16.4943H33.0034V26.9935H43.5026V16.4943Z" fill="#72A6CF"/>
</svg>
