<svg width="60" height="60" viewBox="0 0 60 60" fill="none" xmlns="http://www.w3.org/2000/svg">
<path d="M43.5004 16.4943H-0.00357056V26.9935H43.5004V16.4943Z" fill="#72A6CF"/>
<path d="M4.78881 59.9983H43.4835V49.4991H-0.00357056V55.2059C-0.00357056 57.8645 2.14707 59.9983 4.78881 59.9983Z" fill="#72A6CF"/>
<path d="M43.5004 32.9882H-0.00357056V43.4874H43.5004V32.9882Z" fill="#72A6CF"/>
<path d="M49.4955 59.9983H55.2023C57.8609 59.9983 59.9947 57.8476 59.9947 55.2059V49.4991H49.4955V59.9983Z" fill="#01426A"/>
<path d="M59.9947 32.9882H49.4955V43.4874H59.9947V32.9882Z" fill="#01426A"/>
<path d="M59.9947 16.4943H49.4955V26.9935H59.9947V16.4943Z" fill="#1F74B7"/>
<path d="M-0.00357056 10.4992H43.5004V0H4.78881C2.13014 0 -0.00357056 2.15065 -0.00357056 4.79238V10.4992Z" fill="#72A6CF"/>
<path d="M49.4955 10.4992H59.9947V4.79238C59.9947 2.13371 57.844 0 55.2023 0H49.4955V10.4992Z" fill="#1F74B7"/>
</svg>
