<svg width="48" height="48" viewBox="0 0 48 48" fill="none" xmlns="http://www.w3.org/2000/svg">
<rect width="48" height="48" rx="4" fill="#1F74B7"/>
<path d="M31.933 28.2256C32.6119 27.3322 33.5589 26.8945 34.756 26.8945C35.7387 26.8945 36.498 27.1535 37.043 27.6628C37.5879 28.172 37.9453 29.0028 38.1061 30.1374H40C39.8481 28.6454 39.3211 27.4752 38.4009 26.6265C37.4897 25.7778 36.2747 25.3579 34.756 25.3579C33.6125 25.3579 32.6119 25.6259 31.7365 26.1619C30.8699 26.6979 30.1999 27.4752 29.7264 28.4757C29.2529 29.4852 29.0207 30.6466 29.0207 31.9687V33.3356C29.0207 35.3635 29.5299 36.9715 30.5394 38.1865C31.5578 39.3925 32.9068 40 34.5863 40C36.1407 40 37.3825 39.5891 38.3205 38.7672C39.2585 37.9453 39.8124 36.7839 39.9911 35.2741H38.0972C37.9185 36.4534 37.5433 37.2753 36.9894 37.7487C36.4266 38.2222 35.6315 38.4634 34.5863 38.4634C33.4249 38.4634 32.5226 38.0078 31.8705 37.0877C31.2272 36.1764 30.8967 34.9436 30.8967 33.3892V32.0045C30.8967 30.3607 31.2362 29.1011 31.9241 28.2077L31.933 28.2256Z" fill="white"/>
<path d="M39.3568 16.3529C38.928 15.7901 38.3473 15.4149 37.6058 15.2272C38.258 14.9771 38.7582 14.584 39.1245 14.0391C39.4908 13.5031 39.6695 12.8777 39.6695 12.163C39.6695 10.8677 39.2138 9.87605 38.3116 9.20603C37.4003 8.53601 36.0692 8.19654 34.3183 8.19654H29.2529V20.3462H22.8833L26.1709 16.88C27.0731 15.8883 27.7074 15.0307 28.0826 14.2892C28.4578 13.5477 28.6365 12.8152 28.6365 12.1005C28.6365 10.7962 28.2256 9.78671 27.4037 9.07203C26.5818 8.35734 25.4204 8 23.9285 8C22.9548 8 22.0793 8.20547 21.311 8.62535C20.5427 9.03629 19.9442 9.60804 19.5243 10.3406C19.1044 11.0731 18.89 11.8772 18.89 12.7527H21.7755C21.7755 12.0201 21.9631 11.4394 22.3384 10.9927C22.7136 10.5461 23.2228 10.3227 23.8749 10.3227C24.4735 10.3227 24.938 10.5103 25.2686 10.8766C25.5902 11.2429 25.751 11.7521 25.751 12.3953C25.751 12.8688 25.5991 13.3601 25.2864 13.8872C24.9827 14.4143 24.5003 15.0218 23.8571 15.7275L19.1759 20.7125V22.6778H34.8632C36.507 22.66 37.7755 22.3026 38.66 21.5879C39.5444 20.8733 39.9911 19.8191 39.9911 18.4255C39.9911 17.6125 39.7767 16.9246 39.3479 16.3618L39.3568 16.3529ZM32.2278 10.6175H34.3183C35.1401 10.6175 35.7387 10.7605 36.1228 11.0463C36.507 11.3322 36.6946 11.8057 36.6946 12.4578C36.6946 13.6281 35.9442 14.2267 34.4433 14.2535H32.2367V10.6086L32.2278 10.6175ZM36.4266 19.7744C36.0335 20.105 35.4796 20.2747 34.7828 20.2747H32.2278V16.3707H34.9615C36.3283 16.3886 37.0162 17.0586 37.0162 18.3897C37.0162 18.9793 36.8197 19.4439 36.4266 19.7744Z" fill="white"/>
<path d="M23.1781 25.5902L18.0145 39.1245L15.0039 33.684C15.8615 33.3534 16.5226 32.8621 17.005 32.201C17.4874 31.5399 17.7286 30.7716 17.7286 29.8783C17.7286 28.4846 17.2998 27.4126 16.4333 26.689C15.5667 25.9564 14.3339 25.5902 12.7259 25.5902H8.00893V39.8481H9.90285V34.0771H13.2529L16.3439 39.8481H19.6851L21.0251 36.1139H27.0017L28.3596 39.8481H30.2892L24.8308 25.5902H23.1781ZM12.7705 32.5494H9.88498V27.1357H12.7616C13.7532 27.1357 14.5126 27.3858 15.0396 27.8504C15.5667 28.3238 15.8258 29.0028 15.8258 29.8783C15.8258 30.6912 15.5489 31.3344 14.995 31.8169C14.4411 32.2993 13.6996 32.5405 12.7705 32.5405V32.5494ZM21.579 34.5863L24 27.9129L26.4299 34.5863H21.579Z" fill="white"/>
<path d="M18.1039 16.3529C17.675 15.7901 17.0944 15.4149 16.3529 15.2272C17.005 14.9771 17.5053 14.584 17.8716 14.0391C18.2379 13.5031 18.4165 12.8777 18.4165 12.163C18.4165 10.8677 17.9609 9.87605 17.0586 9.20603C16.1474 8.53601 14.8163 8.19654 13.0653 8.19654H8V22.66H13.6281C15.2719 22.6421 16.5405 22.2848 17.4249 21.5701C18.3093 20.8554 18.756 19.8012 18.756 18.4076C18.756 17.5946 18.5416 16.9068 18.1128 16.3439L18.1039 16.3529ZM10.9749 10.6175H13.0653C13.8872 10.6175 14.4858 10.7605 14.8699 11.0463C15.254 11.3322 15.4417 11.8057 15.4417 12.4578C15.4417 13.6281 14.6912 14.2267 13.1904 14.2535H10.9838V10.6086L10.9749 10.6175ZM15.1736 19.7744C14.7806 20.105 14.2267 20.2747 13.5299 20.2747H10.9749V16.3707H13.7085C15.0754 16.3886 15.7633 17.0586 15.7633 18.3897C15.7633 18.9793 15.5667 19.4439 15.1736 19.7744Z" fill="white"/>
</svg>
