<svg width="144" height="145" viewBox="0 0 144 145" fill="none" xmlns="http://www.w3.org/2000/svg">
<circle cx="2" cy="2.95508" r="2" fill="#0EC4CA"/>
<circle cx="22" cy="2.95508" r="2" fill="#0EC4CA"/>
<circle cx="42" cy="2.95508" r="2" fill="#0EC4CA"/>
<circle cx="62" cy="2.95508" r="2" fill="#0EC4CA"/>
<circle cx="82" cy="2.95508" r="2" fill="#0EC4CA"/>
<circle cx="102" cy="2.95508" r="2" fill="#0EC4CA"/>
<circle cx="122" cy="2.95508" r="2" fill="#0EC4CA"/>
<circle cx="142" cy="2.95508" r="2" fill="#0EC4CA"/>
<circle cx="2" cy="22.9551" r="2" fill="#0EC4CA"/>
<circle cx="22" cy="22.9551" r="2" fill="#0EC4CA"/>
<circle cx="42" cy="22.9551" r="2" fill="#0EC4CA"/>
<circle cx="62" cy="22.9551" r="2" fill="#0EC4CA"/>
<circle cx="82" cy="22.9551" r="2" fill="#0EC4CA"/>
<circle cx="102" cy="22.9551" r="2" fill="#0EC4CA"/>
<circle cx="122" cy="22.9551" r="2" fill="#0EC4CA"/>
<circle cx="142" cy="22.9551" r="2" fill="#0EC4CA"/>
<circle cx="2" cy="42.9551" r="2" fill="#0EC4CA"/>
<circle cx="22" cy="42.9551" r="2" fill="#0EC4CA"/>
<circle cx="42" cy="42.9551" r="2" fill="#0EC4CA"/>
<circle cx="62" cy="42.9551" r="2" fill="#0EC4CA"/>
<circle cx="82" cy="42.9551" r="2" fill="#0EC4CA"/>
<circle cx="102" cy="42.9551" r="2" fill="#0EC4CA"/>
<circle cx="122" cy="42.9551" r="2" fill="#0EC4CA"/>
<circle cx="142" cy="42.9551" r="2" fill="#0EC4CA"/>
<circle cx="2" cy="62.9551" r="2" fill="#0EC4CA"/>
<circle cx="22" cy="62.9551" r="2" fill="#0EC4CA"/>
<circle cx="42" cy="62.9551" r="2" fill="#0EC4CA"/>
<circle cx="62" cy="62.9551" r="2" fill="#0EC4CA"/>
<circle cx="82" cy="62.9551" r="2" fill="#0EC4CA"/>
<circle cx="102" cy="62.9551" r="2" fill="#0EC4CA"/>
<circle cx="122" cy="62.9551" r="2" fill="#0EC4CA"/>
<circle cx="142" cy="62.9551" r="2" fill="#0EC4CA"/>
<circle cx="2" cy="82.9551" r="2" fill="#0EC4CA"/>
<circle cx="22" cy="82.9551" r="2" fill="#0EC4CA"/>
<circle cx="42" cy="82.9551" r="2" fill="#0EC4CA"/>
<circle cx="62" cy="82.9551" r="2" fill="#0EC4CA"/>
<circle cx="82" cy="82.9551" r="2" fill="#0EC4CA"/>
<circle cx="102" cy="82.9551" r="2" fill="#0EC4CA"/>
<circle cx="122" cy="82.9551" r="2" fill="#0EC4CA"/>
<circle cx="142" cy="82.9551" r="2" fill="#0EC4CA"/>
<circle cx="2" cy="102.955" r="2" fill="#0EC4CA"/>
<circle cx="22" cy="102.955" r="2" fill="#0EC4CA"/>
<circle cx="42" cy="102.955" r="2" fill="#0EC4CA"/>
<circle cx="62" cy="102.955" r="2" fill="#0EC4CA"/>
<circle cx="82" cy="102.955" r="2" fill="#0EC4CA"/>
<circle cx="102" cy="102.955" r="2" fill="#0EC4CA"/>
<circle cx="122" cy="102.955" r="2" fill="#0EC4CA"/>
<circle cx="142" cy="102.955" r="2" fill="#0EC4CA"/>
<circle cx="2" cy="122.955" r="2" fill="#0EC4CA"/>
<circle cx="22" cy="122.955" r="2" fill="#0EC4CA"/>
<circle cx="42" cy="122.955" r="2" fill="#0EC4CA"/>
<circle cx="62" cy="122.955" r="2" fill="#0EC4CA"/>
<circle cx="82" cy="122.955" r="2" fill="#0EC4CA"/>
<circle cx="102" cy="122.955" r="2" fill="#0EC4CA"/>
<circle cx="122" cy="122.955" r="2" fill="#0EC4CA"/>
<circle cx="142" cy="122.955" r="2" fill="#0EC4CA"/>
<circle cx="2" cy="142.955" r="2" fill="#0EC4CA"/>
<circle cx="22" cy="142.955" r="2" fill="#0EC4CA"/>
<circle cx="42" cy="142.955" r="2" fill="#0EC4CA"/>
<circle cx="62" cy="142.955" r="2" fill="#0EC4CA"/>
<circle cx="82" cy="142.955" r="2" fill="#0EC4CA"/>
<circle cx="102" cy="142.955" r="2" fill="#0EC4CA"/>
<circle cx="122" cy="142.955" r="2" fill="#0EC4CA"/>
<circle cx="142" cy="142.955" r="2" fill="#0EC4CA"/>
</svg>
