<?xml version="1.0" encoding="UTF-8"?>
<svg id="Layer_1" xmlns="http://www.w3.org/2000/svg" version="1.1" xmlns:xlink="http://www.w3.org/1999/xlink" viewBox="0 0 512 512">
  <!-- Generator: Adobe Illustrator 29.0.1, SVG Export Plug-In . SVG Version: 2.1.0 Build 192)  -->
  <defs>
    <style>
      .st0 {
        fill: #fff;
      }

      .st1 {
        fill: url(#linear-gradient);
      }
    </style>
    <linearGradient id="linear-gradient" x1="256" y1="0" x2="256" y2="512" gradientUnits="userSpaceOnUse">
      <stop offset="0" stop-color="#1fa3b7"/>
      <stop offset="1" stop-color="#1f74b7"/>
    </linearGradient>
  </defs>
  <rect class="st1" width="512" height="512" rx="64" ry="64"/>
  <path class="st0" d="M120,432V80h126.1c45.2,0,79.5,8.3,103.1,24.9,23.5,16.6,35.3,40.7,35.3,72.3s-4.2,33.8-12.5,46.7c-8.4,12.9-20.7,22.4-36.9,28.5,18.3,4.8,32.4,13.9,42.2,27.1,9.8,13.2,14.7,29.3,14.7,48.4,0,34.5-10.9,60.4-32.7,77.7-21.8,17.3-54.1,26.1-96.8,26.5H120ZM204.6,226.7h44.1c18.5-.2,31.7-3.6,39.5-10.2,7.9-6.6,11.8-16.4,11.8-29.3s-4.3-25.6-12.8-32.1c-8.5-6.5-22.3-9.8-41.2-9.8h-41.5v81.5ZM204.6,282.4v84.4h55.5c15.3,0,27-3.5,35.2-10.5,8.2-7,12.3-16.9,12.3-29.6,0-29.3-14.5-44.1-43.6-44.2h-59.3Z"/>
</svg>