<svg width="154" height="115" viewBox="0 0 154 115" fill="none" xmlns="http://www.w3.org/2000/svg">
<path d="M149.768 66.5492C143.646 72.9624 139.965 74.7026 128.519 76.6259C124.058 77.375 119.456 77.9234 115.33 79.2304C87.4467 88.5911 97.2593 123.962 44.206 112.869C-0.816273 102.748 -14.6918 68.9372 19.8583 47.4438C26.5424 43.4849 34.5659 40.4601 40.7603 36.1961C44.8407 33.3878 49.166 30.2633 50.1555 26.502C51.5124 21.3436 51.18 14.0611 58.9811 12.1109C82.2244 6.3029 86.7021 24.7588 92.7641 33.0259C94.5082 35.2526 96.8045 37.5616 100.425 38.5573C111.477 41.5964 116.587 42.4923 128.519 43.5496C134.158 43.9921 140.02 44.4868 144.765 46.4639C154.655 50.5856 155.89 60.1375 149.768 66.5492Z" fill="#E9F1F8"/>
<path d="M104.363 47.6444V83.5444C104.363 85.7444 102.563 87.5444 100.363 87.5444H43.4634C41.2634 87.5444 39.4634 85.7444 39.4634 83.5444V47.6444C39.4634 45.4444 41.3634 43.6444 43.4634 43.6444H100.363C102.063 43.6444 103.463 44.6444 104.163 46.1444C104.263 46.5444 104.363 47.0444 104.363 47.6444Z" fill="#D2E3F1" stroke="#A5C7E2" stroke-miterlimit="10"/>
<path d="M124.963 24.6444L110.763 49.8444C110.263 50.6444 109.163 50.9444 108.363 50.4444L84.1633 36.3444C83.3633 35.8444 83.0633 34.7444 83.5633 33.9444L102.263 1.84444C102.763 1.04444 103.863 0.744444 104.663 1.24444L122.263 11.5444L124.963 24.6444Z" fill="white" stroke="#1F74B7" stroke-miterlimit="10"/>
<path d="M122.063 11.4445L118.063 18.2445C117.563 19.2445 117.863 20.4445 118.763 21.0445L124.863 24.5445" fill="#4C90C5"/>
<path d="M105.463 18.0445C105.863 17.9445 106.263 17.9445 106.563 17.9445C106.963 17.9445 107.363 17.9445 107.763 17.9445C108.163 18.0445 108.663 18.1445 109.063 18.2445C109.563 18.4445 109.963 18.6445 110.363 18.8445C110.963 19.1445 111.463 19.5445 111.963 20.0445C112.363 20.4445 112.663 20.9445 112.863 21.6445C113.063 22.1445 113.063 22.7445 113.063 23.3445C112.963 23.9445 112.763 24.5445 112.463 25.1445C112.163 25.6445 111.863 26.0445 111.463 26.4445C111.063 26.7445 110.763 26.9445 110.263 27.1445C109.863 27.3445 109.463 27.4445 109.063 27.4445L107.963 27.5445C107.663 27.5445 107.363 27.6445 106.963 27.7445C106.663 27.8445 106.463 27.9445 106.263 28.1445L105.163 29.6445L103.263 28.6445L104.063 26.7445C104.163 26.4445 104.463 26.1445 104.663 25.9445C104.963 25.7445 105.263 25.6445 105.563 25.5445C105.963 25.4445 106.263 25.4445 106.663 25.3445C107.063 25.3445 107.463 25.2445 107.863 25.1445C108.263 25.0445 108.563 24.9445 108.963 24.7445C109.363 24.5445 109.563 24.2445 109.763 23.8445C109.863 23.6445 109.963 23.3445 110.063 23.0445C110.063 22.7445 110.063 22.5445 109.963 22.3445C109.863 22.0445 109.763 21.8445 109.563 21.6445C109.363 21.4445 109.163 21.2445 108.863 21.0445C108.563 20.8445 108.163 20.6445 107.763 20.5445C107.463 20.4445 107.163 20.4445 106.863 20.4445C106.563 20.4445 106.363 20.4445 106.163 20.4445C106.063 20.4445 105.863 20.4445 105.763 20.3445C105.563 20.2445 105.363 19.9445 105.363 19.7445L105.463 18.0445ZM99.9635 32.1445C100.063 31.9445 100.263 31.7445 100.463 31.5445C100.663 31.4445 100.863 31.2445 101.063 31.2445C101.563 31.1445 102.063 31.1445 102.563 31.4445C102.763 31.5445 102.963 31.7445 103.163 31.9445C103.263 32.1445 103.363 32.3445 103.463 32.5445C103.763 33.5445 103.163 34.6445 102.163 34.9445C101.663 35.0445 101.163 34.9445 100.663 34.7445C100.463 34.6445 100.263 34.4445 100.063 34.2445C99.9635 34.0445 99.7635 33.8445 99.7635 33.6445C99.6635 33.4445 99.6635 33.1445 99.7635 32.9445C99.7635 32.5445 99.8635 32.3445 99.9635 32.1445Z" fill="#79ACD4"/>
<path d="M33.9634 13.7445L50.2634 30.6445C50.7634 31.2445 50.7634 32.1445 50.1634 32.7445L33.5634 48.3445C32.9634 48.8445 32.0634 48.8445 31.4634 48.2445L10.8634 26.3445C10.3634 25.7445 10.3634 24.8445 10.9634 24.2445L22.9634 12.9445L33.9634 13.7445Z" fill="white" stroke="#1F74B7" stroke-miterlimit="10"/>
<path d="M22.9634 12.8445L27.4634 17.5445C28.0634 18.1445 29.1634 18.1445 29.8634 17.5445L33.9634 13.6445" fill="#4C90C5"/>
<path d="M24.1633 27.3444C24.1633 27.0444 24.2633 26.7444 24.3633 26.4444C24.4633 26.1444 24.5633 25.8444 24.6633 25.5444C24.7633 25.2444 24.9633 24.9444 25.1633 24.6444C25.3633 24.3444 25.6633 24.0444 25.9633 23.7444C26.3633 23.3444 26.7633 23.0444 27.2633 22.8444C27.6633 22.6444 28.1633 22.5444 28.5633 22.5444C28.9633 22.5444 29.4633 22.6444 29.8633 22.7444C30.2633 22.9444 30.6633 23.2444 31.0633 23.5444C31.3633 23.8444 31.6633 24.2444 31.7633 24.6444C31.8633 24.9444 31.9633 25.3444 32.0633 25.7444C32.0633 26.0444 32.0633 26.4444 32.0633 26.7444C31.9633 27.0444 31.9633 27.3444 31.8633 27.6444C31.8633 27.9444 31.7633 28.1444 31.7633 28.4444C31.7633 28.6444 31.7633 28.8444 31.9633 29.0444L32.7633 30.2444L31.5633 31.3444L30.3633 30.2444C30.1633 30.0444 29.9633 29.8444 29.8633 29.5444C29.7633 29.2444 29.7633 29.0444 29.7633 28.7444C29.7633 28.4444 29.8633 28.1444 29.8633 27.8444C29.9633 27.5444 29.9633 27.2444 29.9633 26.9444C29.9633 26.6444 29.9633 26.3444 29.8633 26.0444C29.7633 25.7444 29.5633 25.4444 29.3633 25.1444C29.2633 24.9444 29.0633 24.8444 28.8633 24.7444C28.6633 24.6444 28.4633 24.6444 28.2633 24.6444C28.0633 24.6444 27.8633 24.7444 27.6633 24.8444C27.4633 24.9444 27.2633 25.0444 27.0633 25.2444C26.8633 25.4444 26.6633 25.7444 26.4633 25.9444C26.3633 26.1444 26.2633 26.3444 26.1633 26.6444C26.0633 26.8444 26.0633 27.0444 26.0633 27.1444C26.0633 27.2444 25.9633 27.3444 25.8633 27.4444C25.7633 27.6444 25.4633 27.6444 25.2633 27.5444L24.1633 27.3444ZM33.9633 34.8444C33.8633 34.7444 33.7633 34.5444 33.6633 34.3444C33.5633 34.1444 33.5633 33.9444 33.5633 33.7444C33.5633 33.3444 33.7633 32.9444 34.0633 32.6444C34.1633 32.5444 34.3633 32.4444 34.5633 32.3444C34.7633 32.2444 34.9633 32.2444 35.1633 32.2444C35.7633 32.2444 36.3633 32.6444 36.6633 33.2444C36.7633 33.4444 36.7633 33.6444 36.7633 33.8444C36.7633 34.0444 36.6633 34.2444 36.6633 34.4444C36.5633 34.6444 36.4633 34.7444 36.2633 34.9444C36.1633 35.0444 35.9633 35.2444 35.7633 35.2444C35.3633 35.3444 34.9633 35.3444 34.6633 35.2444C34.2633 35.1444 34.0633 35.0444 33.9633 34.8444Z" fill="#79ACD4"/>
<path d="M76.1634 40.3445L69.8634 62.8445C69.6634 63.5445 68.8634 64.0445 68.0634 63.7445L46.1634 57.3445C45.4634 57.1445 44.9634 56.3445 45.2634 55.5445L53.7634 26.6445C53.9634 25.9445 54.7634 25.4445 55.5634 25.7445L71.4634 30.3445L76.1634 40.3445Z" fill="white" stroke="#1F74B7" stroke-miterlimit="10"/>
<path opacity="0.1" d="M104.363 47.6444V83.5444C104.363 85.7444 102.563 87.5444 100.363 87.5444H43.4634C41.2634 87.5444 39.4634 85.7444 39.4634 83.5444V55.8444H62.7634C65.0634 55.8444 67.3634 55.0444 69.0634 53.5444L75.3634 48.3444C77.1634 46.9444 79.3634 46.0444 81.6634 46.0444H104.063C104.263 46.5444 104.363 47.0444 104.363 47.6444Z" fill="#4C90C5"/>
<path d="M71.4631 30.4445L69.5631 36.7445C69.3631 37.5445 69.8631 38.5445 70.6631 38.8445L76.1631 40.5445" fill="#4C90C5"/>
<path d="M59.5633 38.8445C59.8633 38.7445 60.1633 38.6445 60.4633 38.5445C60.7633 38.4445 61.0633 38.3445 61.4633 38.3445C61.8633 38.3445 62.1633 38.3445 62.5633 38.3445C62.9633 38.3445 63.3633 38.4445 63.7633 38.5445C64.2633 38.6445 64.7633 38.9445 65.2633 39.2445C65.6633 39.5445 65.9633 39.8445 66.2633 40.2445C66.4633 40.6445 66.6633 41.0445 66.7633 41.4445C66.8633 41.9445 66.7633 42.4445 66.6633 42.9445C66.5633 43.3445 66.3633 43.7445 66.0633 44.1445C65.8633 44.4445 65.5633 44.7445 65.2633 44.9445C64.9633 45.1445 64.6633 45.3445 64.3633 45.4445L63.4633 45.9445C63.2633 46.0445 62.9633 46.1445 62.7633 46.2445C62.5633 46.3445 62.3633 46.5445 62.3633 46.7445L61.7633 48.0445L60.0633 47.5445L60.3633 45.8445C60.3633 45.5445 60.5633 45.3445 60.7633 45.1445C60.9633 44.9445 61.1633 44.7445 61.4633 44.6445C61.7633 44.5445 62.0633 44.4445 62.2633 44.3445C62.5633 44.2445 62.8633 44.1445 63.1633 43.9445C63.4633 43.8445 63.6633 43.6445 63.9633 43.4445C64.1633 43.2445 64.3633 42.9445 64.4633 42.5445C64.5633 42.3445 64.5633 42.1445 64.5633 41.9445C64.5633 41.7445 64.4633 41.5445 64.3633 41.3445C64.2633 41.1445 64.0633 41.0445 63.8633 40.8445C63.6633 40.7445 63.4633 40.6445 63.1633 40.5445C62.8633 40.4445 62.5633 40.4445 62.1633 40.4445C61.9633 40.4445 61.6633 40.4445 61.4633 40.5445C61.2633 40.5445 61.0633 40.6445 60.9633 40.6445C60.8633 40.6445 60.7633 40.7445 60.5633 40.6445C60.3633 40.6445 60.1633 40.4445 60.1633 40.2445L59.5633 38.8445ZM57.9633 51.1445C58.0633 50.9445 58.0633 50.7445 58.2633 50.6445C58.3633 50.4445 58.5633 50.3445 58.6633 50.2445C59.0633 50.0445 59.4633 50.0445 59.7633 50.1445C59.9633 50.2445 60.1633 50.3445 60.2633 50.4445C60.3633 50.5445 60.5633 50.7445 60.6633 50.8445C61.0633 51.5445 60.7633 52.5445 60.0633 52.9445C59.6633 53.1445 59.2633 53.1445 58.9633 53.0445C58.7633 52.9445 58.5633 52.9445 58.4633 52.7445C58.2633 52.6445 58.1633 52.4445 58.0633 52.3445C57.9633 52.1445 57.9633 52.0445 57.8633 51.8445C57.8633 51.5445 57.8633 51.3445 57.9633 51.1445Z" fill="#79ACD4"/>
<path d="M127.463 78.7444L106.863 89.9444C106.163 90.3444 105.263 90.0444 104.963 89.3444L94.5632 69.2444C94.2632 68.5444 94.4632 67.6444 95.1632 67.3444L121.963 53.1444C122.663 52.7444 123.563 53.0444 123.863 53.7444L131.363 68.3444L127.463 78.7444Z" fill="white" stroke="#1F74B7" stroke-miterlimit="10"/>
<path d="M131.363 68.4445L125.563 71.4445C124.863 71.8445 124.463 72.9445 124.863 73.7445L127.463 78.8445" fill="#4C90C5"/>
<path d="M117.063 65.7444C117.363 65.8444 117.663 66.0444 117.963 66.1444C118.263 66.2444 118.563 66.4444 118.863 66.7444C119.163 67.0444 119.363 67.2444 119.663 67.5444C119.963 67.8444 120.163 68.2444 120.363 68.5444C120.663 68.9444 120.763 69.5444 120.863 70.0444C120.963 70.5444 120.863 71.0444 120.863 71.5444C120.663 71.9444 120.563 72.4444 120.363 72.7444C120.063 73.1444 119.563 73.4444 119.263 73.6444C118.863 73.8444 118.463 74.0444 117.963 74.0444C117.563 74.1444 117.163 74.1444 116.763 74.0444C116.363 73.9444 116.063 73.8444 115.763 73.7444L114.863 73.3444C114.663 73.2444 114.363 73.1444 114.163 73.0444C113.963 72.9444 113.663 72.9444 113.463 73.1444L112.063 73.6444L111.263 72.1444L112.663 71.2444C112.863 71.0444 113.163 71.0444 113.463 71.0444C113.763 71.0444 114.063 71.0444 114.363 71.2444C114.663 71.3444 114.963 71.5444 115.163 71.6444C115.463 71.7444 115.763 71.9444 116.063 72.0444C116.363 72.1444 116.663 72.2444 116.963 72.2444C117.263 72.2444 117.663 72.1444 117.963 71.9444C118.363 71.7444 118.663 71.3444 118.763 70.9444C118.863 70.7444 118.763 70.5444 118.763 70.2444C118.663 70.0444 118.663 69.8444 118.463 69.5444C118.363 69.2444 118.063 69.0444 117.863 68.6444C117.763 68.5444 117.463 68.2444 117.263 68.2444C117.163 68.1444 116.863 68.0444 116.863 67.9444C116.763 67.8444 116.663 67.8444 116.563 67.6444C116.463 67.5444 116.463 67.2444 116.563 67.0444L117.063 65.7444ZM107.163 73.1444C107.363 73.0444 107.563 72.9444 107.763 73.0444C107.963 72.9444 108.163 73.0444 108.363 73.0444C108.763 73.2444 109.063 73.4444 109.263 73.7444C109.363 73.9444 109.363 74.1444 109.363 74.3444C109.363 74.4444 109.363 74.7444 109.363 74.9444C109.263 75.3444 108.863 75.6444 108.563 75.8444C108.363 75.9444 108.163 75.9444 107.963 75.9444C107.863 75.9444 107.563 75.9444 107.363 75.9444C106.963 75.7444 106.663 75.5444 106.463 75.2444C106.463 74.9444 106.463 74.7444 106.463 74.5444C106.363 74.3444 106.463 74.1444 106.463 73.9444C106.563 73.7444 106.663 73.5444 106.663 73.4444C106.863 73.3444 107.063 73.2444 107.163 73.1444Z" fill="#79ACD4"/>
<path d="M105.463 66.6444V84.3444C105.463 86.6444 103.563 88.4444 101.363 88.4444H42.8634C40.5634 88.4444 38.7634 86.5444 38.7634 84.3444V65.2444" stroke="#1676EE" stroke-linecap="round" stroke-linejoin="round"/>
<path d="M103.163 55.3445H83.1634C81.2634 55.3445 79.3634 56.0445 77.8634 57.2445L72.5634 61.5445C71.0634 62.7445 69.1634 63.4445 67.2634 63.4445H44.4634C42.1634 63.4445 40.2634 65.2445 40.2634 67.5445C40.2634 67.7445 40.2634 67.9445 40.3634 68.1445L44.4634 90.0445C44.7634 92.1445 46.5634 93.6445 48.6634 93.6445H97.2634C99.3634 93.6445 101.063 92.1445 101.463 90.1445L107.263 60.1445C107.563 57.9445 106.163 55.7445 103.763 55.4445C103.563 55.3445 103.363 55.3445 103.163 55.3445Z" fill="white"/>
<path d="M108.763 51.3445H84.7635C82.4635 51.3445 80.1635 52.1445 78.4635 53.6445L72.1635 58.7445C70.3635 60.2445 68.1635 61.0445 65.8635 61.0445H38.5635C35.8635 61.0445 33.5635 63.2445 33.5635 66.0445C33.5635 66.2445 33.5635 66.5445 33.6635 66.7445L38.6635 93.2445C39.0635 95.7445 41.1635 97.6445 43.6635 97.6445H101.663C104.163 97.6445 106.263 95.8445 106.663 93.4445L113.563 57.1445C113.963 54.4445 112.263 51.8445 109.463 51.4445C109.263 51.3445 108.963 51.3445 108.763 51.3445Z" fill="white" stroke="#A5C7E2" stroke-miterlimit="10"/>
<path d="M83.6 79.1997C85 79.1997 86.2 77.9997 86.2 76.5997C86.2 75.1997 85 73.9997 83.6 73.9997C82.2 73.9997 81 75.1997 81 76.5997C81 78.0997 82.1 79.1997 83.6 79.1997Z" fill="#79ACD4"/>
<path d="M79 83.6005H77.7C76.6 81.2005 73.7 80.3005 71.4 81.5005C70.5 81.9005 69.7 82.7005 69.3 83.6005H68C69.1 80.5005 72.7 78.9005 75.7 80.1005C77.1 80.7005 78.4 81.9005 79 83.6005Z" fill="#79ACD4"/>
<path d="M63.6 79.1997C65 79.1997 66.2 77.9997 66.2 76.5997C66.2 75.1997 65 73.9997 63.6 73.9997C62.2 73.9997 61 75.1997 61 76.5997C61.1 78.0997 62.2 79.1997 63.6 79.1997Z" fill="#79ACD4"/>
<path d="M115.463 106.244C114.263 106.244 114.663 106.344 105.663 97.3445C96.8633 103.844 84.8633 97.5445 84.8633 86.9445C84.8633 79.7445 90.6633 73.9445 97.8633 73.9445C108.263 73.9445 114.563 85.5445 108.563 94.3445L116.963 102.744C118.163 104.044 117.263 106.244 115.463 106.244ZM97.8633 78.0445C92.9633 78.0445 88.9633 82.0445 88.9633 86.9445C88.9633 91.8445 92.9633 95.8445 97.8633 95.8445C98.3633 95.8445 98.9633 95.8445 99.4633 95.7445C99.9633 95.6445 100.463 95.5445 100.963 95.3445C101.463 95.1445 101.963 94.9445 102.363 94.6445C102.863 94.3445 103.363 93.9445 103.763 93.5445C104.163 93.2445 104.463 92.8445 104.763 92.4445C105.063 92.0445 105.363 91.5445 105.663 91.1445C105.863 90.6445 106.163 90.1445 106.263 89.6445C106.463 89.1445 106.563 88.6445 106.563 88.1445C106.663 87.7445 106.663 87.3445 106.663 86.9445C106.763 82.0445 102.763 78.0445 97.8633 78.0445Z" fill="#79ACD4" stroke="#1F74B7" stroke-miterlimit="10"/>
</svg>
