<svg width="180" height="114" viewBox="0 0 180 114" fill="none" xmlns="http://www.w3.org/2000/svg">
<g clip-path="url(#clip0_8988_14741)">
<path opacity="0.1" d="M64.5233 27.2531C64.5233 23.3136 67.7187 20.1191 71.6627 20.1191H101.654C99.3264 16.765 97.186 13.4137 96.9974 13.1476C95.7682 11.4174 94.0683 10.1243 92.1827 9.17792C87.9062 7.03341 82.7633 6.45378 78.0435 6.37179C72.8631 6.28118 67.5964 7.12115 62.9169 9.41812C58.8146 11.4317 55.2061 14.4781 52.9016 18.455C50.3165 22.9166 49.3924 28.1017 48.6237 33.1329C47.7601 38.7811 47.3686 44.3732 48.5518 50.0085C49.6169 55.08 51.5673 59.9673 54.1323 64.4635C56.6613 68.8963 59.8237 72.8819 63.4668 76.4517C63.8165 76.7941 64.1706 77.1335 64.5262 77.4715V27.2531H64.5233Z" fill="#1F74B7"/>
<path opacity="0.1" d="M77.1362 90.3086C79.4608 93.4268 81.3824 96.7896 83.0737 100.331C85.0486 104.462 94.727 104.197 95.1876 97.0053C95.2826 95.5282 95.513 93.0112 97.1006 90.31H77.1348L77.1362 90.3086Z" fill="#1F74B7"/>
<path opacity="0.1" d="M138.775 50.9751C136.106 47.0284 132.071 44.1115 128.123 41.5528C124.261 39.0487 120.217 36.8424 116.342 34.3584V79.8189C123.352 77.6485 130.795 75.5327 133.122 74.7589C135.412 73.9981 137.623 73.1265 139.096 71.1128C140.348 69.3998 140.98 67.3215 141.314 65.2489C142.097 60.3788 141.582 55.129 138.775 50.9766V50.9751Z" fill="#1F74B7"/>
<path d="M108.657 18.9683H72.0076C67.2374 18.9683 63.3712 22.8315 63.3712 27.5981V82.829C63.3712 87.5955 67.2374 91.4588 72.0076 91.4588H108.657C113.428 91.4588 117.294 87.5955 117.294 82.829V27.5981C117.294 22.8315 113.428 18.9683 108.657 18.9683ZM89.8561 81.5489H76.6136C75.026 81.5489 73.7349 80.2587 73.7349 78.6723V72.3437H89.8561V81.5489ZM89.8561 71.1931H73.7349V61.9879H89.8561V71.1931ZM107.129 78.6723C107.129 80.2587 105.838 81.5489 104.25 81.5489H91.0076V72.3437H107.129V78.6723ZM107.129 71.1931H91.0076V61.9879H107.129V71.1931Z" fill="white"/>
<path d="M122.292 114C125.683 114 128.441 111.243 128.441 107.855C128.441 104.468 125.682 101.711 122.292 101.711C121.074 101.711 119.896 102.069 118.884 102.745L118.491 103.008L98.1679 82.7009H104.251C106.473 82.7009 108.281 80.8944 108.281 78.6736V55.6608C108.281 53.44 106.473 51.6335 104.251 51.6335H85.497L122.908 14.2491L123.287 14.4591C124.63 15.2013 126.271 14.9582 127.373 13.8565C128.744 12.4872 128.744 10.3441 127.373 8.97485C126.049 7.65161 123.812 7.65161 122.488 8.97485C121.43 10.0334 121.188 11.7119 121.901 13.0582L122.099 13.4336L84.1555 51.3473C84.1382 51.3646 84.1223 51.3833 84.1022 51.4091L83.9295 51.6321H76.6145C74.392 51.6321 72.5842 53.4386 72.5842 55.6593V78.6722C72.5842 79.3784 72.7713 80.0746 73.1254 80.6858L73.6263 81.5488H44.5174L44.4152 81.1015C43.8582 78.655 41.7696 76.9462 39.3342 76.9462C36.477 76.9462 34.1523 79.2691 34.1523 82.1241C34.1523 84.9792 36.477 87.302 39.3342 87.302C41.7696 87.302 43.8582 85.5933 44.4152 83.1468L44.5174 82.6995H96.5443L96.7127 82.8678L117.654 103.794L117.357 104.192C116.562 105.259 116.142 106.525 116.142 107.854C116.142 111.243 118.901 113.998 122.291 113.998L122.292 114ZM123.303 9.78749C123.736 9.35456 124.316 9.123 124.955 9.12875C125.564 9.13594 126.148 9.37614 126.559 9.78749C127.013 10.242 127.26 10.8288 127.252 11.4387C127.245 12.0327 126.999 12.6023 126.559 13.0409C126.095 13.5041 125.512 13.7371 124.931 13.7371C124.349 13.7371 123.766 13.5055 123.303 13.0409C122.42 12.1593 122.42 10.6692 123.303 9.78606V9.78749ZM39.3342 86.1514C37.1117 86.1514 35.3039 84.3449 35.3039 82.1241C35.3039 79.9034 37.1117 78.0969 39.3342 78.0969C41.5566 78.0969 43.3645 79.9034 43.3645 82.1241C43.3645 84.3449 41.5566 86.1514 39.3342 86.1514ZM107.13 71.193H91.0084V61.9879H107.13V71.193ZM73.7357 55.6593C73.7357 54.0729 75.0268 52.7827 76.6145 52.7827H104.251C105.838 52.7827 107.13 54.0729 107.13 55.6593V60.8372H73.7357V55.6593ZM89.8569 81.5488H76.6145C75.0268 81.5488 73.7357 80.2587 73.7357 78.6722V72.3437H89.8569V81.5488ZM89.8569 71.193H73.7357V61.9879H89.8569V71.193ZM91.0084 81.5488V72.3437H107.13V78.6722C107.13 80.2587 105.838 81.5488 104.251 81.5488H91.0084ZM122.292 102.862C125.049 102.862 127.29 105.102 127.29 107.855C127.29 110.608 125.047 112.849 122.292 112.849C119.537 112.849 117.295 110.608 117.295 107.855C117.295 105.102 119.537 102.862 122.292 102.862Z" fill="#72A6CF"/>
<path d="M123.302 9.78775C123.736 9.35482 124.316 9.12326 124.955 9.12901C125.564 9.1362 126.148 9.3764 126.558 9.78775C127.013 10.2423 127.259 10.8291 127.252 11.4389C127.245 12.0329 126.999 12.6025 126.558 13.0412C126.095 13.5043 125.512 13.7373 124.93 13.7373C124.349 13.7373 123.766 13.5058 123.302 13.0412C122.42 12.1595 122.42 10.6694 123.302 9.78632V9.78775Z" fill="white"/>
<path d="M39.333 86.1517C41.5589 86.1517 43.3633 84.3486 43.3633 82.1244C43.3633 79.9002 41.5589 78.0972 39.333 78.0972C37.1072 78.0972 35.3027 79.9002 35.3027 82.1244C35.3027 84.3486 37.1072 86.1517 39.333 86.1517Z" fill="white"/>
<path opacity="0.1" d="M73.7344 55.6593C73.7344 54.0729 75.0255 52.7827 76.6132 52.7827H104.25C105.837 52.7827 107.128 54.0729 107.128 55.6593V60.8372H73.7344V55.6593Z" fill="#1F74B7"/>
<path d="M122.291 112.849C125.051 112.849 127.288 110.614 127.288 107.856C127.288 105.098 125.051 102.862 122.291 102.862C119.53 102.862 117.293 105.098 117.293 107.856C117.293 110.614 119.53 112.849 122.291 112.849Z" fill="white"/>
<path d="M134.67 5.93283L132.386 5.99324L132.207 5.76455C131.976 5.46969 131.721 5.18203 131.45 4.91163C131.226 4.68726 130.922 4.41542 130.676 4.21981L130.453 4.04146L130.509 1.77469C130.513 1.57045 130.41 1.38203 130.244 1.29574C128.769 0.524804 127.112 0.0774912 125.452 -0.000177189C125.264 -0.0116836 125.079 0.101942 124.984 0.28173L123.935 2.23495L123.643 2.27378C122.913 2.37159 122.181 2.56144 121.467 2.83904L121.2 2.94259L119.318 1.7862C119.133 1.67113 118.92 1.67257 118.804 1.73298C118.044 2.2407 117.415 2.74698 116.881 3.27916C116.266 3.89331 115.742 4.54055 115.279 5.2597C115.247 5.31004 115.155 5.45675 115.318 5.84078L116.453 7.68612L116.35 7.95221C116.073 8.66561 115.882 9.3977 115.782 10.1298L115.744 10.4203L113.79 11.4689C113.61 11.5638 113.501 11.7493 113.508 11.9435C113.576 13.3746 113.923 14.8115 114.52 16.1318L115.454 15.1984C115.165 14.4807 114.835 13.5486 114.733 12.6828L114.687 12.2944L116.804 11.1539L116.928 10.2463C117.048 9.64365 117.17 9.01943 117.42 8.38226L117.741 7.57969L116.478 5.53154L116.711 5.21799C116.989 4.84403 117.302 4.48589 117.697 4.0918C118.016 3.7725 118.375 3.46326 118.733 3.19717L119.047 2.96417L121.097 4.227L121.896 3.9077C122.519 3.66318 123.158 3.49634 123.797 3.41004L124.671 3.29354L125.818 1.17204L126.208 1.22094C127.169 1.34032 128.107 1.59346 128.992 1.97318L129.35 2.12707L129.287 4.57938L129.958 5.11587C130.027 5.17053 130.104 5.22518 130.188 5.28415C130.345 5.39346 130.522 5.51716 130.684 5.67969C130.866 5.86091 131.007 6.06228 131.132 6.23919C131.188 6.31973 131.244 6.39884 131.303 6.47507L131.84 7.15826L134.322 7.09498L134.476 7.45312C134.856 8.33767 135.109 9.27257 135.23 10.2348L135.279 10.626L133.068 11.8141L132.943 12.6698C132.858 13.261 132.7 13.8536 132.475 14.4318L132.157 15.2387L133.487 17.3947L133.249 17.7082C132.969 18.0793 132.661 18.436 132.357 18.7395C131.983 19.112 131.616 19.4342 131.234 19.7233L130.921 19.9606L128.761 18.6316L127.961 18.9452C127.408 19.1638 126.813 19.3234 126.195 19.4198L125.337 19.5435L124.15 21.7484L123.76 21.7024C122.942 21.6046 121.985 21.2191 121.169 20.8725L120.184 21.8563C121.54 22.4863 123.021 22.853 124.505 22.9235C124.694 22.9264 124.877 22.82 124.973 22.6416V22.6387L126.078 20.5949L126.365 20.5532C127.049 20.4539 127.727 20.2727 128.383 20.0153L128.651 19.9103L130.61 21.117C130.994 21.2781 131.136 21.1875 131.191 21.1515C131.896 20.7013 132.544 20.1778 133.172 19.5521C133.712 19.0128 134.233 18.367 134.721 17.6291C134.781 17.5155 134.784 17.3041 134.67 17.1228L133.438 15.125L133.545 14.8575C133.799 14.2117 133.982 13.5328 134.084 12.841L134.126 12.5562L136.167 11.4559C136.351 11.3567 136.461 11.1769 136.451 10.9885C136.373 9.32579 135.925 7.66886 135.157 6.20035C135.07 6.03495 134.88 5.93139 134.676 5.9357L134.67 5.93283Z" fill="#1F74B7"/>
<path d="M156.5 103.253C156.5 98.6993 152.94 94.9137 148.398 94.6361L148.143 94.6203L140.484 85.0598C139.494 83.8258 138.018 83.1167 136.435 83.1167H127.712V94.6231H114.981L116.132 95.7738H147.864C149.869 95.7738 151.747 96.5433 153.155 97.9399C154.57 99.3451 155.348 101.232 155.348 103.253V108.332C156.019 108.094 156.5 107.454 156.5 106.705V103.253ZM128.864 94.6231V84.2673H136.435C137.667 84.2673 138.814 84.8182 139.583 85.779L146.665 94.6231H128.864Z" fill="#1F74B7"/>
<path d="M84.2733 30.6385L72.7553 42.1478C72.643 42.2571 72.584 42.401 72.584 42.5534C72.584 42.7059 72.6444 42.8497 72.7524 42.9562L72.7596 42.9634C72.8661 43.0712 73.0086 43.1316 73.1626 43.1316C73.3166 43.1316 73.4591 43.0727 73.5657 42.9634L85.0837 31.454C85.196 31.3447 85.255 31.2009 85.255 31.0484C85.255 30.896 85.196 30.7521 85.0866 30.6457C84.9728 30.5307 84.8303 30.4717 84.6778 30.4717C84.5252 30.4717 84.3813 30.5321 84.2747 30.64L84.2733 30.6385Z" fill="#1F74B7"/>
<path d="M74.3117 33.2852C74.9476 33.2852 75.4632 32.77 75.4632 32.1345C75.4632 31.499 74.9476 30.9839 74.3117 30.9839C73.6757 30.9839 73.1602 31.499 73.1602 32.1345C73.1602 32.77 73.6757 33.2852 74.3117 33.2852Z" fill="#1F74B7"/>
<path d="M83.5246 40.189C82.8653 40.189 82.373 40.7959 82.373 41.3396C82.373 42.0329 82.8682 42.555 83.5246 42.555C84.1809 42.555 84.6761 42.0329 84.6761 41.3396C84.6761 40.7959 84.1838 40.189 83.5246 40.189Z" fill="#1F74B7"/>
<path d="M30.4091 60.4059V64.4331H27.5303C25.3079 64.4331 23.5 66.2397 23.5 68.4604V91.4733C23.5 93.694 25.3079 95.5005 27.5303 95.5005H50.5606C52.783 95.5005 54.5909 93.694 54.5909 91.4733V86.1515H53.4394V91.4733C53.4394 93.0597 52.1483 94.3499 50.5606 94.3499H27.5303C25.9427 94.3499 24.6515 93.0597 24.6515 91.4733V72.4876H53.4394V78.097H54.5909V68.4604C54.5909 66.2397 52.783 64.4331 50.5606 64.4331H47.6818V60.4059C47.6818 60.088 47.4242 59.8306 47.1061 59.8306C46.788 59.8306 46.5303 60.088 46.5303 60.4059V64.4331H31.5606V60.4059C31.5606 60.088 31.303 59.8306 30.9848 59.8306C30.6667 59.8306 30.4091 60.088 30.4091 60.4059ZM50.5606 65.5838C52.1483 65.5838 53.4394 66.8739 53.4394 68.4604V71.337H24.6515V68.4604C24.6515 66.8739 25.9427 65.5838 27.5303 65.5838H50.5606Z" fill="#1F74B7"/>
<path d="M145.745 101.711C142.354 101.711 139.596 104.468 139.596 107.855C139.596 111.243 142.355 114 145.745 114C149.135 114 151.894 111.243 151.894 107.855C151.894 104.468 149.135 101.711 145.745 101.711ZM145.745 112.851C142.988 112.851 140.747 110.61 140.747 107.857C140.747 105.104 142.99 102.863 145.745 102.863C148.5 102.863 150.742 105.104 150.742 107.857C150.742 110.61 148.5 112.851 145.745 112.851Z" fill="#1F74B7"/>
<path d="M131.877 107.28C131.888 107.476 131.896 107.667 131.896 107.856C131.896 108.044 131.89 108.235 131.877 108.431H136.159C136.148 108.235 136.14 108.044 136.14 107.856C136.14 107.667 136.146 107.476 136.159 107.28H131.877Z" fill="#1F74B7"/>
<path d="M72.008 91.4587H100.427L99.2758 90.3081H72.008C69.1536 90.3081 66.5613 88.6885 65.3018 86.1514H64.0352C65.3666 89.3559 68.4786 91.4587 72.008 91.4587Z" fill="#1F74B7"/>
<path d="M112.743 108.333V103.765L111.592 102.614V106.705C111.592 107.454 112.073 108.094 112.743 108.332V108.333Z" fill="#1F74B7"/>
<path d="M111.423 91.0676C115.013 89.9501 117.493 86.6089 117.493 82.829V27.5981C117.493 26.6906 117.353 25.8031 117.078 24.9517L116.143 25.8866C116.275 26.4489 116.341 27.0228 116.341 27.5981V82.829C116.341 86.3802 113.85 89.3848 110.484 90.1299L111.423 91.0676Z" fill="#1F74B7"/>
<path d="M72.0069 20.1189H108.855C109.365 20.1189 109.873 20.1707 110.371 20.2743L111.318 19.3279C110.521 19.0905 109.696 18.9697 108.854 18.9697H72.0055C67.244 18.9697 63.3691 22.8416 63.3691 27.5996V78.0984H64.5207V27.5981C64.5207 23.4745 67.8788 20.1189 72.0055 20.1189H72.0069Z" fill="#1F74B7"/>
<path d="M26.751 38.9999C26.751 40.7713 25.2948 42.2084 23.4999 42.2084C25.2948 42.2084 26.751 43.6456 26.751 45.417C26.751 43.6456 28.2071 42.2084 30.002 42.2084C28.2071 42.2084 26.751 40.7713 26.751 38.9999Z" fill="#CED4DA"/>
<path d="M39 21C39 23.2083 36.9844 25 34.5 25C36.9844 25 39 26.7917 39 29C39 26.7917 41.0156 25 43.5 25C41.0156 25 39 23.2083 39 21Z" fill="#CED4DA"/>
<path d="M151.751 41.9999C151.751 43.7713 150.295 45.2084 148.5 45.2084C150.295 45.2084 151.751 46.6456 151.751 48.417C151.751 46.6456 153.207 45.2084 155.002 45.2084C153.207 45.2084 151.751 43.7713 151.751 41.9999Z" fill="#CED4DA"/>
<path d="M156 57C156 59.4844 153.984 61.5 151.5 61.5C153.984 61.5 156 63.5156 156 66C156 63.5156 158.016 61.5 160.5 61.5C158.016 61.5 156 59.4844 156 57Z" fill="#CED4DA"/>
</g>
<defs>
<clipPath id="clip0_8988_14741">
<rect width="179" height="114" fill="white" transform="translate(0.5)"/>
</clipPath>
</defs>
</svg>
