<svg width="164" height="116" viewBox="0 0 164 116" fill="none" xmlns="http://www.w3.org/2000/svg">
<path d="M159.999 67.0833C153.437 73.5582 149.492 75.3151 137.222 77.2569C132.442 78.0132 127.508 78.5669 123.086 79.8864C93.1978 89.3371 103.716 125.048 46.8483 113.849C-1.41091 103.63 -16.284 69.4943 20.7501 47.7943C27.9148 43.7973 36.5151 40.7433 43.1548 36.4384C47.5286 33.603 52.1649 30.4486 53.2255 26.651C54.6799 21.443 54.3237 14.0905 62.6856 12.1216C87.6 6.25775 92.3996 24.8911 98.8974 33.2377C100.767 35.4858 103.228 37.817 107.109 38.8222C118.956 41.8906 124.433 42.7951 137.222 43.8626C143.268 44.3094 149.551 44.8088 154.637 46.8049C165.238 50.9662 166.562 60.61 159.999 67.0833Z" fill="#E9F1F8"/>
<path d="M76.0329 108.596L24.8037 106.616C24.0613 106.621 23.5502 105.991 23.5455 105.248L26.5042 28.8979C26.4994 28.1556 27.1299 27.6445 27.8723 27.6397L79.1015 29.6191C79.8438 29.6144 80.3549 30.2448 80.3597 30.9872L77.401 107.338C77.3242 108.071 76.7753 108.591 76.0329 108.596Z" fill="white" stroke="#1F74B7" stroke-miterlimit="10"/>
<path d="M45.936 50.5157L70.5383 51.4707" stroke="#72A6CF" stroke-miterlimit="10" stroke-linecap="round" stroke-linejoin="round"/>
<path d="M46.1238 46.0313L70.6565 46.979" stroke="#72A6CF" stroke-miterlimit="10" stroke-linecap="round" stroke-linejoin="round"/>
<path d="M45.7483 55.0001L70.3506 55.955" stroke="#72A6CF" stroke-miterlimit="10" stroke-linecap="round" stroke-linejoin="round"/>
<path d="M34.0712 58.9868L70.1705 60.3703" stroke="#72A6CF" stroke-miterlimit="10" stroke-linecap="round" stroke-linejoin="round"/>
<path d="M33.9782 63.3881L70.0775 64.7717" stroke="#72A6CF" stroke-miterlimit="10" stroke-linecap="round" stroke-linejoin="round"/>
<path d="M33.4936 68.3645L69.5929 69.748" stroke="#72A6CF" stroke-miterlimit="10" stroke-linecap="round" stroke-linejoin="round"/>
<path d="M33.009 73.341L69.1083 74.7245" stroke="#72A6CF" stroke-miterlimit="10" stroke-linecap="round" stroke-linejoin="round"/>
<path d="M32.5224 78.3371L53.1642 79.0892" stroke="#72A6CF" stroke-miterlimit="10" stroke-linecap="round" stroke-linejoin="round"/>
<path d="M32.3708 98.4648L37.4891 98.6483" stroke="#72A6CF" stroke-miterlimit="10" stroke-linecap="round" stroke-linejoin="round"/>
<path d="M32.5263 94.9625L41.5721 95.2754" stroke="#72A6CF" stroke-miterlimit="10" stroke-linecap="round" stroke-linejoin="round"/>
<path d="M59.6563 95.9705L68.6253 96.3457" stroke="#72A6CF" stroke-miterlimit="10" stroke-linecap="round" stroke-linejoin="round"/>
<path d="M41.9644 55.5884C41.8947 55.5811 41.8251 55.5737 41.8323 55.5042L40.9072 52.875L36.4885 52.6892L35.3783 55.2438C35.3711 55.3134 35.2942 55.3756 35.2246 55.3682L34.3115 55.342C34.2418 55.3347 34.1721 55.3273 34.1793 55.2577C34.1169 55.1808 34.1169 55.1808 34.1938 55.1186L38.2475 45.914C38.2547 45.8444 38.3316 45.7823 38.4013 45.7896L39.6627 45.8526C39.7324 45.86 39.8021 45.8674 39.7949 45.9369L43.1778 55.4354C43.1706 55.505 43.1634 55.5745 43.1634 55.5745C43.1562 55.6441 43.0865 55.6367 43.0168 55.6294L41.9644 55.5884ZM36.8898 51.5363L40.4651 51.7033L38.8434 46.9614L36.8898 51.5363Z" fill="#72A6CF"/>
<path d="M130.347 80.1884L83.5358 87.1742C82.8595 87.2909 82.2543 86.8347 82.1377 86.1585L71.7172 16.2804C71.6006 15.6042 72.0567 14.999 72.733 14.8824L119.544 7.89649C120.22 7.77986 120.825 8.23599 120.942 8.91224L131.362 78.7903C131.479 79.4666 131.023 80.0717 130.347 80.1884Z" fill="white" stroke="#1F74B7" stroke-miterlimit="10"/>
<path d="M79.5004 33.7127L84.6685 68.2708L122.549 62.6058L117.381 28.0477L79.5004 33.7127Z" stroke="#72A6CF" stroke-miterlimit="10" stroke-linecap="round" stroke-linejoin="round"/>
<path d="M86.2791 78.7168L91.6089 77.9471" stroke="#72A6CF" stroke-miterlimit="10" stroke-linecap="round" stroke-linejoin="round"/>
<path d="M85.6775 75.0349L95.1368 73.6111" stroke="#72A6CF" stroke-miterlimit="10" stroke-linecap="round" stroke-linejoin="round"/>
<path d="M114.764 72.949L124.224 71.5252" stroke="#72A6CF" stroke-miterlimit="10" stroke-linecap="round" stroke-linejoin="round"/>
<path d="M88.7149 32.6701L93.9046 66.9479" stroke="#72A6CF" stroke-miterlimit="10" stroke-linecap="round" stroke-linejoin="round"/>
<path d="M98.9101 31.1514L103.649 65.4434" stroke="#72A6CF" stroke-miterlimit="10" stroke-linecap="round" stroke-linejoin="round"/>
<path d="M108.11 29.536L113.342 64.0291" stroke="#72A6CF" stroke-miterlimit="10" stroke-linecap="round" stroke-linejoin="round"/>
<path d="M82.1216 50.9995L119.959 45.3044" stroke="#72A6CF" stroke-miterlimit="10" stroke-linecap="round" stroke-linejoin="round"/>
<path d="M80.5212 39.4253L117.724 33.989" stroke="#72A6CF" stroke-miterlimit="10" stroke-linecap="round" stroke-linejoin="round"/>
<path d="M82.9441 56.7773L120.802 51.1534" stroke="#72A6CF" stroke-miterlimit="10" stroke-linecap="round" stroke-linejoin="round"/>
<path d="M81.3435 45.2031L118.683 39.6085" stroke="#72A6CF" stroke-miterlimit="10" stroke-linecap="round" stroke-linejoin="round"/>
<path d="M83.8577 62.6052L121.695 56.9101" stroke="#72A6CF" stroke-miterlimit="10" stroke-linecap="round" stroke-linejoin="round"/>
<path d="M12.251 25.9999C12.251 27.7713 10.7948 29.2084 8.99995 29.2084C10.7948 29.2084 12.251 30.6456 12.251 32.417C12.251 30.6456 13.7071 29.2084 15.502 29.2084C13.7071 29.2084 12.251 27.7713 12.251 25.9999Z" fill="#CED4DA"/>
<path d="M30.5 10C30.5 12.2083 28.4844 14 26 14C28.4844 14 30.5 15.7917 30.5 18C30.5 15.7917 32.5156 14 35 14C32.5156 14 30.5 12.2083 30.5 10Z" fill="#CED4DA"/>
<path d="M134.751 13.9999C134.751 15.7713 133.295 17.2084 131.5 17.2084C133.295 17.2084 134.751 18.6456 134.751 20.417C134.751 18.6456 136.207 17.2084 138.002 17.2084C136.207 17.2084 134.751 15.7713 134.751 13.9999Z" fill="#CED4DA"/>
<path d="M144 28C144 30.4844 141.984 32.5 139.5 32.5C141.984 32.5 144 34.5156 144 37C144 34.5156 146.016 32.5 148.5 32.5C146.016 32.5 144 30.4844 144 28Z" fill="#CED4DA"/>
</svg>
