<svg width="1912" height="106" viewBox="0 0 1912 106" fill="none" xmlns="http://www.w3.org/2000/svg">
<mask id="path-1-inside-1_9007_17516" fill="white">
<path d="M0 58H1912V106H0V58Z"/>
</mask>
<path d="M0 58H1912V106H0V58Z" fill="#D2E3F1"/>
<path d="M0 59H1912V57H0V59Z" fill="#79ACD4" mask="url(#path-1-inside-1_9007_17516)"/>
<g opacity="0.33">
<mask id="path-3-inside-2_9007_17516" fill="white">
<path fill-rule="evenodd" clip-rule="evenodd" d="M1377.77 30.2743C1376.59 31.9781 1375.9 34.0462 1375.9 36.2758C1375.9 41.7661 1380.09 46.277 1385.45 46.7808V57.9999H1386.45V46.8276H1386.45C1392.28 46.8276 1397 42.1034 1397 36.2758C1397 34.0462 1396.31 31.9781 1395.13 30.2743C1394.91 25.668 1391.11 22 1386.45 22C1381.79 22 1377.99 25.668 1377.77 30.2743ZM1063.93 46.7706C1059.6 46.2746 1056.24 42.5988 1056.24 38.1379C1056.24 33.3387 1060.13 29.4482 1064.93 29.4482C1069.73 29.4482 1073.62 33.3387 1073.62 38.1379C1073.62 42.9371 1069.73 46.8276 1064.93 46.8276L1064.93 57.9999H1063.93V46.7706ZM585.758 50.5516L585.758 57.9999H584.758V50.5075C579.057 50.0017 574.586 45.2125 574.586 39.3792C574.586 36.6449 575.568 34.1399 577.199 32.1981C577.114 31.7082 577.069 31.2041 577.069 30.6897C577.069 25.8905 580.959 22 585.758 22C590.558 22 594.448 25.8905 594.448 30.6897C594.448 31.2041 594.403 31.7082 594.318 32.1981C595.949 34.1399 596.931 36.6449 596.931 39.3792C596.931 45.5496 591.929 50.5516 585.758 50.5516Z"/>
</mask>
<path fill-rule="evenodd" clip-rule="evenodd" d="M1377.77 30.2743C1376.59 31.9781 1375.9 34.0462 1375.9 36.2758C1375.9 41.7661 1380.09 46.277 1385.45 46.7808V57.9999H1386.45V46.8276H1386.45C1392.28 46.8276 1397 42.1034 1397 36.2758C1397 34.0462 1396.31 31.9781 1395.13 30.2743C1394.91 25.668 1391.11 22 1386.45 22C1381.79 22 1377.99 25.668 1377.77 30.2743ZM1063.93 46.7706C1059.6 46.2746 1056.24 42.5988 1056.24 38.1379C1056.24 33.3387 1060.13 29.4482 1064.93 29.4482C1069.73 29.4482 1073.62 33.3387 1073.62 38.1379C1073.62 42.9371 1069.73 46.8276 1064.93 46.8276L1064.93 57.9999H1063.93V46.7706ZM585.758 50.5516L585.758 57.9999H584.758V50.5075C579.057 50.0017 574.586 45.2125 574.586 39.3792C574.586 36.6449 575.568 34.1399 577.199 32.1981C577.114 31.7082 577.069 31.2041 577.069 30.6897C577.069 25.8905 580.959 22 585.758 22C590.558 22 594.448 25.8905 594.448 30.6897C594.448 31.2041 594.403 31.7082 594.318 32.1981C595.949 34.1399 596.931 36.6449 596.931 39.3792C596.931 45.5496 591.929 50.5516 585.758 50.5516Z" fill="white"/>
<path d="M1377.77 30.2743L1378.77 30.3213L1378.75 30.6079L1378.59 30.8438L1377.77 30.2743ZM1385.45 46.7808L1385.54 45.7852L1386.45 45.8704V46.7808H1385.45ZM1385.45 57.9999V58.9999H1384.45V57.9999H1385.45ZM1386.45 57.9999H1387.45V58.9999H1386.45V57.9999ZM1386.45 46.8276H1385.45V45.8276H1386.45V46.8276ZM1395.13 30.2743L1394.31 30.8438L1394.14 30.6079L1394.13 30.3213L1395.13 30.2743ZM1063.93 46.7706L1064.04 45.7771L1064.93 45.8787V46.7706H1063.93ZM1064.93 46.8276L1063.93 46.8275V45.8276H1064.93V46.8276ZM1064.93 57.9999L1065.93 57.9999V58.9999H1064.93V57.9999ZM1063.93 57.9999V58.9999H1062.93V57.9999H1063.93ZM585.758 57.9999L586.758 57.9999V58.9999H585.758V57.9999ZM585.758 50.5516L584.758 50.5516V49.5516H585.758V50.5516ZM584.758 57.9999V58.9999H583.758V57.9999H584.758ZM584.758 50.5075L584.847 49.5114L585.758 49.5922V50.5075H584.758ZM577.199 32.1981L578.184 32.0258L578.265 32.4845L577.965 32.8412L577.199 32.1981ZM594.318 32.1981L593.552 32.8412L593.252 32.4845L593.333 32.0257L594.318 32.1981ZM1374.9 36.2758C1374.9 33.8363 1375.65 31.5706 1376.95 29.7049L1378.59 30.8438C1377.52 32.3857 1376.9 34.2562 1376.9 36.2758H1374.9ZM1385.35 47.7764C1379.49 47.2248 1374.9 42.287 1374.9 36.2758H1376.9C1376.9 41.2452 1380.69 45.3292 1385.54 45.7852L1385.35 47.7764ZM1384.45 57.9999V46.7808H1386.45V57.9999H1384.45ZM1386.45 58.9999H1385.45V56.9999H1386.45V58.9999ZM1387.45 46.8276V57.9999H1385.45V46.8276H1387.45ZM1386.45 47.8276H1386.45V45.8276H1386.45V47.8276ZM1398 36.2758C1398 42.6557 1392.83 47.8276 1386.45 47.8276V45.8276C1391.72 45.8276 1396 41.5511 1396 36.2758H1398ZM1395.95 29.7049C1397.24 31.5706 1398 33.8363 1398 36.2758H1396C1396 34.2562 1395.37 32.3857 1394.31 30.8438L1395.95 29.7049ZM1386.45 21C1391.64 21 1395.89 25.0901 1396.13 30.2273L1394.13 30.3213C1393.94 26.2459 1390.57 23 1386.45 23V21ZM1376.77 30.2273C1377.01 25.0901 1381.25 21 1386.45 21V23C1382.32 23 1378.96 26.2459 1378.77 30.3213L1376.77 30.2273ZM1063.82 47.7641C1058.99 47.2109 1055.24 43.1129 1055.24 38.1379H1057.24C1057.24 42.0848 1060.22 45.3383 1064.04 45.7771L1063.82 47.7641ZM1055.24 38.1379C1055.24 32.7865 1059.58 28.4482 1064.93 28.4482V30.4482C1060.68 30.4482 1057.24 33.891 1057.24 38.1379H1055.24ZM1064.93 28.4482C1070.28 28.4482 1074.62 32.7864 1074.62 38.1379H1072.62C1072.62 33.891 1069.18 30.4482 1064.93 30.4482V28.4482ZM1074.62 38.1379C1074.62 43.4893 1070.28 47.8276 1064.93 47.8276V45.8276C1069.18 45.8276 1072.62 42.3848 1072.62 38.1379H1074.62ZM1065.93 46.8276L1065.93 57.9999L1063.93 57.9999L1063.93 46.8275L1065.93 46.8276ZM1064.93 58.9999H1063.93V56.9999H1064.93V58.9999ZM1062.93 57.9999V46.7706H1064.93V57.9999H1062.93ZM584.758 57.9999L584.758 50.5516L586.758 50.5516L586.758 57.9999L584.758 57.9999ZM584.758 56.9999H585.758V58.9999H584.758V56.9999ZM585.758 50.5075V57.9999H583.758V50.5075H585.758ZM575.586 39.3792C575.586 44.6899 579.656 49.051 584.847 49.5114L584.67 51.5036C578.457 50.9525 573.586 45.7352 573.586 39.3792H575.586ZM577.965 32.8412C576.48 34.6097 575.586 36.8888 575.586 39.3792H573.586C573.586 36.4009 574.657 33.6702 576.433 31.5549L577.965 32.8412ZM578.069 30.6897C578.069 31.146 578.108 31.5924 578.184 32.0258L576.214 32.3704C576.119 31.8239 576.069 31.2622 576.069 30.6897H578.069ZM585.758 23C581.512 23 578.069 26.4428 578.069 30.6897H576.069C576.069 25.3382 580.407 21 585.758 21V23ZM593.448 30.6897C593.448 26.4428 590.005 23 585.758 23V21C591.11 21 595.448 25.3382 595.448 30.6897H593.448ZM593.333 32.0257C593.408 31.5924 593.448 31.146 593.448 30.6897H595.448C595.448 31.2622 595.398 31.8239 595.303 32.3705L593.333 32.0257ZM595.931 39.3792C595.931 36.8888 595.037 34.6097 593.552 32.8412L595.083 31.5549C596.86 33.6702 597.931 36.401 597.931 39.3792H595.931ZM585.758 49.5516C591.376 49.5516 595.931 44.9973 595.931 39.3792H597.931C597.931 46.1018 592.481 51.5516 585.758 51.5516V49.5516Z" fill="#79ACD4" mask="url(#path-3-inside-2_9007_17516)"/>
</g>
<g opacity="0.33">
<mask id="path-5-inside-3_9007_17516" fill="white">
<path fill-rule="evenodd" clip-rule="evenodd" d="M514.232 30.2743C515.412 31.9781 516.103 34.0462 516.103 36.2758C516.103 41.7661 511.91 46.277 506.552 46.7808V57.9999H505.552V46.8276H505.552C499.724 46.8276 495 42.1034 495 36.2758C495 34.0462 495.692 31.9781 496.872 30.2743C497.089 25.668 500.892 22 505.552 22C510.212 22 514.015 25.668 514.232 30.2743ZM828.069 46.7706C832.397 46.2746 835.759 42.5988 835.759 38.1379C835.759 33.3387 831.868 29.4482 827.069 29.4482C822.27 29.4482 818.38 33.3387 818.38 38.1379C818.38 42.9371 822.27 46.8276 827.069 46.8276L827.069 57.9999H828.069V46.7706ZM1306.24 50.5516L1306.24 57.9999H1307.24V50.5075C1312.94 50.0017 1317.41 45.2125 1317.41 39.3792C1317.41 36.6449 1316.43 34.1399 1314.8 32.1981C1314.89 31.7082 1314.93 31.2041 1314.93 30.6897C1314.93 25.8905 1311.04 22 1306.24 22C1301.44 22 1297.55 25.8905 1297.55 30.6897C1297.55 31.2041 1297.6 31.7082 1297.68 32.1981C1296.05 34.1399 1295.07 36.6449 1295.07 39.3792C1295.07 45.5496 1300.07 50.5516 1306.24 50.5516Z"/>
</mask>
<path fill-rule="evenodd" clip-rule="evenodd" d="M514.232 30.2743C515.412 31.9781 516.103 34.0462 516.103 36.2758C516.103 41.7661 511.91 46.277 506.552 46.7808V57.9999H505.552V46.8276H505.552C499.724 46.8276 495 42.1034 495 36.2758C495 34.0462 495.692 31.9781 496.872 30.2743C497.089 25.668 500.892 22 505.552 22C510.212 22 514.015 25.668 514.232 30.2743ZM828.069 46.7706C832.397 46.2746 835.759 42.5988 835.759 38.1379C835.759 33.3387 831.868 29.4482 827.069 29.4482C822.27 29.4482 818.38 33.3387 818.38 38.1379C818.38 42.9371 822.27 46.8276 827.069 46.8276L827.069 57.9999H828.069V46.7706ZM1306.24 50.5516L1306.24 57.9999H1307.24V50.5075C1312.94 50.0017 1317.41 45.2125 1317.41 39.3792C1317.41 36.6449 1316.43 34.1399 1314.8 32.1981C1314.89 31.7082 1314.93 31.2041 1314.93 30.6897C1314.93 25.8905 1311.04 22 1306.24 22C1301.44 22 1297.55 25.8905 1297.55 30.6897C1297.55 31.2041 1297.6 31.7082 1297.68 32.1981C1296.05 34.1399 1295.07 36.6449 1295.07 39.3792C1295.07 45.5496 1300.07 50.5516 1306.24 50.5516Z" fill="white"/>
<path d="M514.232 30.2743L513.233 30.3213L513.246 30.6079L513.41 30.8438L514.232 30.2743ZM506.552 46.7808L506.458 45.7852L505.552 45.8704V46.7808H506.552ZM506.552 57.9999V58.9999H507.552V57.9999H506.552ZM505.552 57.9999H504.552V58.9999H505.552V57.9999ZM505.552 46.8276H506.552V45.8276H505.552V46.8276ZM496.872 30.2743L497.694 30.8438L497.857 30.6079L497.871 30.3213L496.872 30.2743ZM828.069 46.7706L827.955 45.7771L827.069 45.8787V46.7706H828.069ZM827.069 46.8276L828.069 46.8275V45.8276H827.069V46.8276ZM827.069 57.9999L826.069 57.9999V58.9999H827.069V57.9999ZM828.069 57.9999V58.9999H829.069V57.9999H828.069ZM1306.24 57.9999L1305.24 57.9999V58.9999H1306.24V57.9999ZM1306.24 50.5516L1307.24 50.5516V49.5516H1306.24V50.5516ZM1307.24 57.9999V58.9999H1308.24V57.9999H1307.24ZM1307.24 50.5075L1307.15 49.5114L1306.24 49.5922V50.5075H1307.24ZM1314.8 32.1981L1313.82 32.0258L1313.74 32.4845L1314.04 32.8412L1314.8 32.1981ZM1297.68 32.1981L1298.45 32.8412L1298.75 32.4845L1298.67 32.0257L1297.68 32.1981ZM517.103 36.2758C517.103 33.8363 516.346 31.5706 515.054 29.7049L513.41 30.8438C514.478 32.3857 515.103 34.2562 515.103 36.2758H517.103ZM506.645 47.7764C512.513 47.2248 517.103 42.287 517.103 36.2758H515.103C515.103 41.2452 511.308 45.3292 506.458 45.7852L506.645 47.7764ZM507.552 57.9999V46.7808H505.552V57.9999H507.552ZM505.552 58.9999H506.552V56.9999H505.552V58.9999ZM504.552 46.8276V57.9999H506.552V46.8276H504.552ZM505.552 47.8276H505.552V45.8276H505.552V47.8276ZM494 36.2758C494 42.6557 499.172 47.8276 505.552 47.8276V45.8276C500.276 45.8276 496 41.5511 496 36.2758H494ZM496.05 29.7049C494.757 31.5706 494 33.8363 494 36.2758H496C496 34.2562 496.626 32.3857 497.694 30.8438L496.05 29.7049ZM505.552 21C500.355 21 496.115 25.0901 495.873 30.2273L497.871 30.3213C498.062 26.2459 501.428 23 505.552 23V21ZM515.231 30.2273C514.989 25.0901 510.748 21 505.552 21V23C509.675 23 513.041 26.2459 513.233 30.3213L515.231 30.2273ZM828.183 47.7641C833.01 47.2109 836.759 43.1129 836.759 38.1379H834.759C834.759 42.0848 831.784 45.3383 827.955 45.7771L828.183 47.7641ZM836.759 38.1379C836.759 32.7865 832.421 28.4482 827.069 28.4482V30.4482C831.316 30.4482 834.759 33.891 834.759 38.1379H836.759ZM827.069 28.4482C821.718 28.4482 817.38 32.7864 817.38 38.1379H819.38C819.38 33.891 822.822 30.4482 827.069 30.4482V28.4482ZM817.38 38.1379C817.38 43.4893 821.718 47.8276 827.069 47.8276V45.8276C822.822 45.8276 819.38 42.3848 819.38 38.1379H817.38ZM826.069 46.8276L826.069 57.9999L828.069 57.9999L828.069 46.8275L826.069 46.8276ZM827.069 58.9999H828.069V56.9999H827.069V58.9999ZM829.069 57.9999V46.7706H827.069V57.9999H829.069ZM1307.24 57.9999L1307.24 50.5516L1305.24 50.5516L1305.24 57.9999L1307.24 57.9999ZM1307.24 56.9999H1306.24V58.9999H1307.24V56.9999ZM1306.24 50.5075V57.9999H1308.24V50.5075H1306.24ZM1316.41 39.3792C1316.41 44.6899 1312.34 49.051 1307.15 49.5114L1307.33 51.5036C1313.54 50.9525 1318.41 45.7352 1318.41 39.3792H1316.41ZM1314.04 32.8412C1315.52 34.6097 1316.41 36.8888 1316.41 39.3792H1318.41C1318.41 36.4009 1317.34 33.6702 1315.57 31.5549L1314.04 32.8412ZM1313.93 30.6897C1313.93 31.146 1313.89 31.5924 1313.82 32.0258L1315.79 32.3704C1315.88 31.8239 1315.93 31.2622 1315.93 30.6897H1313.93ZM1306.24 23C1310.49 23 1313.93 26.4428 1313.93 30.6897H1315.93C1315.93 25.3382 1311.59 21 1306.24 21V23ZM1298.55 30.6897C1298.55 26.4428 1301.99 23 1306.24 23V21C1300.89 21 1296.55 25.3382 1296.55 30.6897H1298.55ZM1298.67 32.0257C1298.59 31.5924 1298.55 31.146 1298.55 30.6897H1296.55C1296.55 31.2622 1296.6 31.8239 1296.7 32.3705L1298.67 32.0257ZM1296.07 39.3792C1296.07 36.8888 1296.96 34.6097 1298.45 32.8412L1296.92 31.5549C1295.14 33.6702 1294.07 36.401 1294.07 39.3792H1296.07ZM1306.24 49.5516C1300.62 49.5516 1296.07 44.9973 1296.07 39.3792H1294.07C1294.07 46.1018 1299.52 51.5516 1306.24 51.5516V49.5516Z" fill="#79ACD4" mask="url(#path-5-inside-3_9007_17516)"/>
</g>
<path d="M872.428 88V79.4688H875.621C876.586 79.4688 877.344 79.6523 877.895 80.0195C878.445 80.3828 878.721 80.9512 878.721 81.7246C878.721 82.1934 878.609 82.5781 878.387 82.8789C878.168 83.1797 877.895 83.3867 877.566 83.5V83.5234C877.969 83.6406 878.299 83.8691 878.557 84.209C878.818 84.5449 878.949 84.9883 878.949 85.5391C878.949 86.3203 878.66 86.9258 878.082 87.3555C877.504 87.7852 876.742 88 875.797 88H872.428ZM874.156 86.7695H875.768C876.268 86.7695 876.633 86.6523 876.863 86.418C877.098 86.1797 877.215 85.8594 877.215 85.457C877.215 85.0586 877.098 84.7422 876.863 84.5078C876.633 84.2734 876.268 84.1562 875.768 84.1562H874.156V86.7695ZM874.156 82.9844H875.598C876.09 82.9844 876.445 82.8828 876.664 82.6797C876.883 82.4766 876.992 82.1953 876.992 81.8359C876.992 81.4727 876.883 81.1934 876.664 80.998C876.445 80.8027 876.09 80.7051 875.598 80.7051H874.156V82.9844ZM879.91 88V86.9219L882.969 83.6289C883.312 83.2617 883.576 82.9297 883.76 82.6328C883.943 82.3359 884.035 82.0254 884.035 81.7012C884.035 81.3848 883.938 81.125 883.742 80.9219C883.551 80.7148 883.271 80.6113 882.904 80.6113C882.533 80.6113 882.234 80.7344 882.008 80.9805C881.781 81.2227 881.664 81.582 881.656 82.0586V82.1934H879.881V82.041C879.881 81.2246 880.158 80.5625 880.713 80.0547C881.271 79.5469 882.002 79.293 882.904 79.293C883.846 79.293 884.566 79.5156 885.066 79.9609C885.566 80.4062 885.818 80.9648 885.822 81.6367C885.822 82.1953 885.674 82.6914 885.377 83.125C885.084 83.5586 884.717 84.0098 884.275 84.4785L882.201 86.6406H886.01V88H879.91ZM887.275 88V79.4688H890.469C891.434 79.4688 892.191 79.6523 892.742 80.0195C893.293 80.3828 893.568 80.9512 893.568 81.7246C893.568 82.1934 893.457 82.5781 893.234 82.8789C893.016 83.1797 892.742 83.3867 892.414 83.5V83.5234C892.816 83.6406 893.146 83.8691 893.404 84.209C893.666 84.5449 893.797 84.9883 893.797 85.5391C893.797 86.3203 893.508 86.9258 892.93 87.3555C892.352 87.7852 891.59 88 890.645 88H887.275ZM889.004 86.7695H890.615C891.115 86.7695 891.48 86.6523 891.711 86.418C891.945 86.1797 892.062 85.8594 892.062 85.457C892.062 85.0586 891.945 84.7422 891.711 84.5078C891.48 84.2734 891.115 84.1562 890.615 84.1562H889.004V86.7695ZM889.004 82.9844H890.445C890.938 82.9844 891.293 82.8828 891.512 82.6797C891.73 82.4766 891.84 82.1953 891.84 81.8359C891.84 81.4727 891.73 81.1934 891.512 80.998C891.293 80.8027 890.938 80.7051 890.445 80.7051H889.004V82.9844ZM895.338 88V79.4688H898.18C899.113 79.4688 899.832 79.6992 900.336 80.1602C900.844 80.6172 901.098 81.2266 901.098 81.9883C901.098 82.75 900.844 83.3672 900.336 83.8398C899.832 84.3086 899.113 84.543 898.18 84.543H896.486V88H895.338ZM896.486 83.6055H898.18C898.84 83.6055 899.299 83.4492 899.557 83.1367C899.818 82.8203 899.949 82.4375 899.949 81.9883C899.949 81.5391 899.818 81.1641 899.557 80.8633C899.299 80.5625 898.84 80.4121 898.18 80.4121H896.486V83.6055ZM900.26 88L898.145 84.0625L899.293 83.8867L901.555 88H900.26ZM901.795 88L905.082 79.4102H906.137L909.43 88H908.223L905.855 81.584C905.805 81.4512 905.76 81.3223 905.721 81.1973C905.686 81.0723 905.654 80.9434 905.627 80.8105H905.562C905.535 80.9434 905.502 81.0723 905.463 81.1973C905.428 81.3223 905.385 81.4512 905.334 81.584L902.943 88H901.795ZM903.207 85.791L903.564 84.8359L907.643 84.8418L907.994 85.7969L903.207 85.791ZM910.062 83.9922V83.4766C910.062 82.1602 910.406 81.1348 911.094 80.4004C911.781 79.6621 912.643 79.293 913.678 79.293C914.717 79.293 915.523 79.5723 916.098 80.1309C916.672 80.6895 916.973 81.3633 917 82.1523V82.2109H915.852V82.1523C915.836 81.6367 915.65 81.1973 915.295 80.834C914.943 80.4668 914.404 80.2832 913.678 80.2832C912.967 80.2832 912.379 80.5527 911.914 81.0918C911.453 81.627 911.223 82.4219 911.223 83.4766V83.9922C911.223 84.9883 911.453 85.7695 911.914 86.3359C912.375 86.9023 912.963 87.1855 913.678 87.1855C914.377 87.1855 914.9 87.002 915.248 86.6348C915.596 86.2637 915.795 85.8242 915.846 85.3164L915.852 85.2578H917L916.994 85.3164C916.916 86.1016 916.604 86.7754 916.057 87.3379C915.51 87.8965 914.717 88.1758 913.678 88.1758C912.643 88.1758 911.781 87.8086 911.094 87.0742C910.406 86.3359 910.062 85.3086 910.062 83.9922Z" fill="#1F74B7"/>
<path d="M929.507 84.2754H930.527C930.527 84.8353 930.339 85.2731 929.961 85.5889C929.583 85.9014 929.067 86.0576 928.413 86.0576C927.762 86.0576 927.236 85.8688 926.836 85.4912C926.436 85.1104 926.235 84.5342 926.235 83.7627V83.5674C926.235 82.7959 926.442 82.2148 926.855 81.8242C927.269 81.4336 927.824 81.2383 928.521 81.2383C929.198 81.2383 929.702 81.3945 930.034 81.707C930.366 82.0163 930.532 82.4248 930.532 82.9326H929.507C929.507 82.6657 929.425 82.4574 929.263 82.3076C929.103 82.1546 928.84 82.0781 928.472 82.0781C928.071 82.0781 927.783 82.1872 927.607 82.4053C927.432 82.6201 927.344 82.9391 927.344 83.3623V83.9629C927.344 84.3926 927.438 84.7132 927.627 84.9248C927.819 85.1364 928.115 85.2422 928.516 85.2422C928.883 85.2422 929.141 85.1543 929.287 84.9785C929.434 84.7995 929.507 84.5651 929.507 84.2754ZM925.166 83.6504C925.166 84.5944 925.483 85.3887 926.118 86.0332C926.756 86.6777 927.537 87 928.462 87C929.383 87 930.161 86.6777 930.796 86.0332C931.431 85.3887 931.748 84.5944 931.748 83.6504C931.748 82.7031 931.431 81.9105 930.796 81.2725C930.161 80.6344 929.383 80.3154 928.462 80.3154C927.537 80.3154 926.756 80.6344 926.118 81.2725C925.483 81.9105 925.166 82.7031 925.166 83.6504ZM924.307 83.6504C924.307 82.4753 924.71 81.4889 925.518 80.6914C926.325 79.8939 927.305 79.4951 928.457 79.4951C929.606 79.4951 930.584 79.8939 931.392 80.6914C932.202 81.4889 932.607 82.4753 932.607 83.6504C932.607 84.819 932.202 85.8053 931.392 86.6094C930.584 87.4134 929.606 87.8154 928.457 87.8154C927.305 87.8154 926.325 87.4134 925.518 86.6094C924.71 85.8053 924.307 84.819 924.307 83.6504ZM933.311 87V86.1113L935.889 83.5234C936.211 83.1979 936.471 82.8968 936.67 82.6201C936.872 82.3402 936.973 82.0488 936.973 81.7461C936.973 81.4434 936.868 81.1943 936.66 80.999C936.452 80.8005 936.139 80.7012 935.723 80.7012C935.299 80.7012 934.971 80.8216 934.736 81.0625C934.505 81.3034 934.39 81.6322 934.39 82.0488V82.0977H933.306V82.0488C933.306 81.3815 933.529 80.8314 933.975 80.3984C934.421 79.9622 935.002 79.7441 935.718 79.7441C936.453 79.7441 937.031 79.9346 937.451 80.3154C937.871 80.693 938.081 81.1536 938.081 81.6973C938.081 82.2116 937.938 82.6543 937.651 83.0254C937.368 83.3965 937.035 83.7708 936.65 84.1484L934.741 86.0234H938.252V87H933.311ZM939.038 84.417V82.4688C939.038 81.6419 939.253 80.9811 939.683 80.4863C940.116 79.9915 940.718 79.7441 941.489 79.7441C942.261 79.7441 942.863 79.9915 943.296 80.4863C943.729 80.9811 943.945 81.6419 943.945 82.4688V84.417C943.945 85.2471 943.729 85.9095 943.296 86.4043C942.863 86.8991 942.261 87.1465 941.489 87.1465C940.718 87.1465 940.116 86.8991 939.683 86.4043C939.253 85.9095 939.038 85.2471 939.038 84.417ZM940.156 84.4561C940.156 84.9769 940.265 85.3968 940.483 85.7158C940.701 86.0316 941.038 86.1895 941.494 86.1895C941.95 86.1895 942.287 86.0316 942.505 85.7158C942.723 85.3968 942.832 84.9769 942.832 84.4561V82.4297C942.832 81.9219 942.723 81.5068 942.505 81.1846C942.287 80.8623 941.95 80.7012 941.494 80.7012C941.038 80.7012 940.701 80.8623 940.483 81.1846C940.265 81.5068 940.156 81.9219 940.156 82.4297V84.4561ZM944.854 87V86.1113L947.432 83.5234C947.754 83.1979 948.014 82.8968 948.213 82.6201C948.415 82.3402 948.516 82.0488 948.516 81.7461C948.516 81.4434 948.411 81.1943 948.203 80.999C947.995 80.8005 947.682 80.7012 947.266 80.7012C946.842 80.7012 946.514 80.8216 946.279 81.0625C946.048 81.3034 945.933 81.6322 945.933 82.0488V82.0977H944.849V82.0488C944.849 81.3815 945.072 80.8314 945.518 80.3984C945.964 79.9622 946.545 79.7441 947.261 79.7441C947.996 79.7441 948.574 79.9346 948.994 80.3154C949.414 80.693 949.624 81.1536 949.624 81.6973C949.624 82.2116 949.481 82.6543 949.194 83.0254C948.911 83.3965 948.577 83.7708 948.193 84.1484L946.284 86.0234H949.795V87H944.854ZM950.391 85.0615V85.0127H951.46V85.0615C951.46 85.4261 951.593 85.7093 951.86 85.9111C952.131 86.113 952.5 86.2139 952.969 86.2139C953.444 86.2139 953.8 86.113 954.038 85.9111C954.279 85.7061 954.399 85.3952 954.399 84.9785C954.399 84.5749 954.259 84.2721 953.979 84.0703C953.7 83.8685 953.299 83.7676 952.778 83.7676H952.104V82.8398H952.725C953.213 82.8398 953.571 82.7422 953.799 82.5469C954.03 82.3516 954.146 82.0798 954.146 81.7314C954.146 81.3831 954.048 81.1211 953.853 80.9453C953.66 80.7663 953.366 80.6768 952.969 80.6768C952.585 80.6768 952.271 80.7679 952.026 80.9502C951.785 81.1292 951.665 81.3831 951.665 81.7119V81.7607H950.596V81.7119C950.596 81.165 950.817 80.7012 951.26 80.3203C951.706 79.9362 952.275 79.7441 952.969 79.7441C953.675 79.7441 954.232 79.9232 954.639 80.2812C955.046 80.6393 955.249 81.1016 955.249 81.668C955.249 81.9902 955.151 82.2946 954.956 82.5811C954.761 82.8643 954.458 83.0905 954.048 83.2598V83.2793C954.487 83.3835 954.84 83.5869 955.107 83.8896C955.378 84.1891 955.513 84.5667 955.513 85.0225C955.513 85.6768 955.282 86.1943 954.819 86.5752C954.357 86.9561 953.74 87.1465 952.969 87.1465C952.214 87.1465 951.595 86.9528 951.113 86.5654C950.632 86.1748 950.391 85.6735 950.391 85.0615Z" fill="#79ACD4"/>
<path d="M962.235 80.8232V79.8906H967.948V80.8232H965.629V87H964.555V80.8232H962.235ZM967.875 84.4463V84.29C967.875 83.499 968.114 82.8529 968.593 82.3516C969.075 81.847 969.698 81.5947 970.463 81.5947C971.228 81.5947 971.85 81.847 972.328 82.3516C972.81 82.8529 973.051 83.499 973.051 84.29V84.4463C973.051 85.2406 972.81 85.89 972.328 86.3945C971.85 86.8958 971.228 87.1465 970.463 87.1465C969.698 87.1465 969.075 86.8958 968.593 86.3945C968.114 85.89 967.875 85.2406 967.875 84.4463ZM968.944 84.29V84.4463C968.944 84.9639 969.076 85.3903 969.34 85.7256C969.607 86.0576 969.981 86.2236 970.463 86.2236C970.945 86.2236 971.317 86.0576 971.581 85.7256C971.848 85.3903 971.981 84.9639 971.981 84.4463V84.29C971.981 83.7757 971.848 83.3525 971.581 83.0205C971.317 82.6852 970.945 82.5176 970.463 82.5176C969.981 82.5176 969.607 82.6852 969.34 83.0205C969.076 83.3525 968.944 83.7757 968.944 84.29ZM973.812 84.4463V84.29C973.812 83.5251 974.024 82.8936 974.447 82.3955C974.87 81.8942 975.424 81.6436 976.107 81.6436C976.472 81.6436 976.786 81.7087 977.05 81.8389C977.313 81.9658 977.522 82.1286 977.675 82.3271V79.5H978.72V87H977.748L977.714 86.3506H977.694C977.564 86.5622 977.359 86.7396 977.079 86.8828C976.799 87.026 976.477 87.0977 976.112 87.0977C975.39 87.0977 974.825 86.8486 974.418 86.3506C974.014 85.8493 973.812 85.2145 973.812 84.4463ZM974.882 84.4463C974.882 84.9541 975.007 85.3691 975.258 85.6914C975.508 86.0137 975.871 86.1748 976.347 86.1748C976.659 86.1748 976.933 86.0902 977.167 85.9209C977.401 85.7484 977.571 85.5514 977.675 85.3301V83.4111C977.571 83.1572 977.406 82.9538 977.182 82.8008C976.957 82.6445 976.679 82.5664 976.347 82.5664C975.871 82.5664 975.508 82.7259 975.258 83.0449C975.007 83.3639 974.882 83.779 974.882 84.29V84.4463ZM979.77 84.4463V84.29C979.77 83.499 980.009 82.8529 980.487 82.3516C980.969 81.847 981.592 81.5947 982.357 81.5947C983.122 81.5947 983.744 81.847 984.223 82.3516C984.704 82.8529 984.945 83.499 984.945 84.29V84.4463C984.945 85.2406 984.704 85.89 984.223 86.3945C983.744 86.8958 983.122 87.1465 982.357 87.1465C981.592 87.1465 980.969 86.8958 980.487 86.3945C980.009 85.89 979.77 85.2406 979.77 84.4463ZM980.839 84.29V84.4463C980.839 84.9639 980.971 85.3903 981.234 85.7256C981.501 86.0576 981.876 86.2236 982.357 86.2236C982.839 86.2236 983.212 86.0576 983.476 85.7256C983.743 85.3903 983.876 84.9639 983.876 84.4463V84.29C983.876 83.7757 983.743 83.3525 983.476 83.0205C983.212 82.6852 982.839 82.5176 982.357 82.5176C981.876 82.5176 981.501 82.6852 981.234 83.0205C980.971 83.3525 980.839 83.7757 980.839 84.29ZM985.668 85.374H986.708V85.4619C986.708 85.7451 986.815 85.9551 987.03 86.0918C987.245 86.2285 987.538 86.2969 987.909 86.2969C988.28 86.2969 988.563 86.2301 988.759 86.0967C988.957 85.96 989.057 85.7809 989.057 85.5596C989.057 85.335 988.967 85.1689 988.788 85.0615C988.609 84.9541 988.225 84.8451 987.636 84.7344C987.047 84.6204 986.602 84.4349 986.303 84.1777C986.007 83.9173 985.858 83.5771 985.858 83.1572C985.858 82.708 986.044 82.3353 986.415 82.0391C986.789 81.7428 987.296 81.5947 987.934 81.5947C988.575 81.5947 989.083 81.751 989.457 82.0635C989.835 82.376 990.023 82.7731 990.023 83.2549V83.3428H988.983V83.2646C988.983 83.0075 988.894 82.8073 988.715 82.6641C988.539 82.5208 988.275 82.4492 987.924 82.4492C987.572 82.4492 987.313 82.5094 987.147 82.6299C986.981 82.7471 986.898 82.9001 986.898 83.0889C986.898 83.2809 986.985 83.4323 987.157 83.543C987.333 83.6536 987.717 83.7643 988.31 83.875C988.899 83.9857 989.345 84.1712 989.647 84.4316C989.953 84.6888 990.106 85.042 990.106 85.4912C990.106 85.973 989.918 86.3701 989.54 86.6826C989.166 86.9919 988.622 87.1465 987.909 87.1465C987.196 87.1465 986.645 86.9902 986.254 86.6777C985.863 86.362 985.668 85.9453 985.668 85.4277V85.374ZM993.603 87V79.5H994.643V87H993.603ZM995.707 84.4463V84.29C995.707 83.499 995.946 82.8529 996.425 82.3516C996.907 81.847 997.53 81.5947 998.295 81.5947C999.06 81.5947 999.682 81.847 1000.16 82.3516C1000.64 82.8529 1000.88 83.499 1000.88 84.29V84.4463C1000.88 85.2406 1000.64 85.89 1000.16 86.3945C999.682 86.8958 999.06 87.1465 998.295 87.1465C997.53 87.1465 996.907 86.8958 996.425 86.3945C995.946 85.89 995.707 85.2406 995.707 84.4463ZM996.776 84.29V84.4463C996.776 84.9639 996.908 85.3903 997.172 85.7256C997.439 86.0576 997.813 86.2236 998.295 86.2236C998.777 86.2236 999.149 86.0576 999.413 85.7256C999.68 85.3903 999.813 84.9639 999.813 84.4463V84.29C999.813 83.7757 999.68 83.3525 999.413 83.0205C999.149 82.6852 998.777 82.5176 998.295 82.5176C997.813 82.5176 997.439 82.6852 997.172 83.0205C996.908 83.3525 996.776 83.7757 996.776 84.29ZM1001.61 85.374H1002.65V85.4619C1002.65 85.7451 1002.75 85.9551 1002.97 86.0918C1003.18 86.2285 1003.48 86.2969 1003.85 86.2969C1004.22 86.2969 1004.5 86.2301 1004.7 86.0967C1004.89 85.96 1004.99 85.7809 1004.99 85.5596C1004.99 85.335 1004.9 85.1689 1004.73 85.0615C1004.55 84.9541 1004.16 84.8451 1003.57 84.7344C1002.98 84.6204 1002.54 84.4349 1002.24 84.1777C1001.94 83.9173 1001.8 83.5771 1001.8 83.1572C1001.8 82.708 1001.98 82.3353 1002.35 82.0391C1002.73 81.7428 1003.23 81.5947 1003.87 81.5947C1004.51 81.5947 1005.02 81.751 1005.39 82.0635C1005.77 82.376 1005.96 82.7731 1005.96 83.2549V83.3428H1004.92V83.2646C1004.92 83.0075 1004.83 82.8073 1004.65 82.6641C1004.48 82.5208 1004.21 82.4492 1003.86 82.4492C1003.51 82.4492 1003.25 82.5094 1003.08 82.6299C1002.92 82.7471 1002.84 82.9001 1002.84 83.0889C1002.84 83.2809 1002.92 83.4323 1003.09 83.543C1003.27 83.6536 1003.65 83.7643 1004.25 83.875C1004.84 83.9857 1005.28 84.1712 1005.58 84.4316C1005.89 84.6888 1006.04 85.042 1006.04 85.4912C1006.04 85.973 1005.86 86.3701 1005.48 86.6826C1005.1 86.9919 1004.56 87.1465 1003.85 87.1465C1003.13 87.1465 1002.58 86.9902 1002.19 86.6777C1001.8 86.362 1001.61 85.9453 1001.61 85.4277V85.374ZM1009.24 84.4463V84.29C1009.24 83.5251 1009.45 82.8936 1009.88 82.3955C1010.3 81.8942 1010.85 81.6436 1011.54 81.6436C1011.9 81.6436 1012.22 81.7087 1012.48 81.8389C1012.74 81.9658 1012.95 82.1286 1013.1 82.3271V79.5H1014.15V87H1013.18L1013.14 86.3506H1013.12C1012.99 86.5622 1012.79 86.7396 1012.51 86.8828C1012.23 87.026 1011.91 87.0977 1011.54 87.0977C1010.82 87.0977 1010.25 86.8486 1009.85 86.3506C1009.44 85.8493 1009.24 85.2145 1009.24 84.4463ZM1010.31 84.4463C1010.31 84.9541 1010.44 85.3691 1010.69 85.6914C1010.94 86.0137 1011.3 86.1748 1011.78 86.1748C1012.09 86.1748 1012.36 86.0902 1012.6 85.9209C1012.83 85.7484 1013 85.5514 1013.1 85.3301V83.4111C1013 83.1572 1012.84 82.9538 1012.61 82.8008C1012.39 82.6445 1012.11 82.5664 1011.78 82.5664C1011.3 82.5664 1010.94 82.7259 1010.69 83.0449C1010.44 83.3639 1010.31 83.779 1010.31 84.29V84.4463ZM1015.21 84.4463V84.29C1015.21 83.499 1015.44 82.8529 1015.91 82.3516C1016.37 81.847 1016.97 81.5947 1017.69 81.5947C1018.42 81.5947 1018.99 81.8291 1019.41 82.2979C1019.83 82.7666 1020.04 83.4014 1020.03 84.2021V84.6611H1015.86V83.8408H1018.99V83.8457C1018.99 83.4355 1018.89 83.1035 1018.69 82.8496C1018.49 82.5924 1018.15 82.4639 1017.67 82.4639C1017.22 82.4639 1016.87 82.6413 1016.61 82.9961C1016.35 83.3477 1016.22 83.779 1016.22 84.29V84.4463C1016.22 84.9574 1016.37 85.3887 1016.65 85.7402C1016.94 86.0918 1017.34 86.2676 1017.84 86.2676C1018.16 86.2676 1018.44 86.196 1018.68 86.0527C1018.92 85.9095 1019.12 85.7435 1019.27 85.5547L1019.96 86.1309C1019.8 86.4173 1019.52 86.6598 1019.14 86.8584C1018.77 87.0537 1018.33 87.1514 1017.83 87.1514C1017.01 87.1514 1016.37 86.8991 1015.91 86.3945C1015.44 85.89 1015.21 85.2406 1015.21 84.4463ZM1021 87V81.7412H1021.98L1022.01 82.3809H1022.03C1022.16 82.1725 1022.33 81.9902 1022.56 81.834C1022.79 81.6745 1023.04 81.5947 1023.33 81.5947C1023.42 81.5947 1023.5 81.6012 1023.58 81.6143C1023.66 81.6273 1023.72 81.6419 1023.77 81.6582V82.7324C1023.67 82.7129 1023.59 82.6999 1023.51 82.6934C1023.44 82.6836 1023.36 82.6787 1023.28 82.6787C1023 82.6787 1022.75 82.7552 1022.53 82.9082C1022.31 83.0579 1022.15 83.2467 1022.05 83.4746V87H1021ZM1024.2 84.4463V84.29C1024.2 83.499 1024.43 82.8529 1024.89 82.3516C1025.36 81.847 1025.95 81.5947 1026.67 81.5947C1027.4 81.5947 1027.97 81.8291 1028.39 82.2979C1028.81 82.7666 1029.02 83.4014 1029.02 84.2021V84.6611H1024.85V83.8408H1027.98V83.8457C1027.98 83.4355 1027.88 83.1035 1027.67 82.8496C1027.47 82.5924 1027.13 82.4639 1026.65 82.4639C1026.21 82.4639 1025.85 82.6413 1025.59 82.9961C1025.34 83.3477 1025.21 83.779 1025.21 84.29V84.4463C1025.21 84.9574 1025.35 85.3887 1025.64 85.7402C1025.93 86.0918 1026.32 86.2676 1026.83 86.2676C1027.14 86.2676 1027.42 86.196 1027.67 86.0527C1027.91 85.9095 1028.1 85.7435 1028.26 85.5547L1028.95 86.1309C1028.78 86.4173 1028.51 86.6598 1028.13 86.8584C1027.75 87.0537 1027.31 87.1514 1026.81 87.1514C1026 87.1514 1025.36 86.8991 1024.89 86.3945C1024.43 85.89 1024.2 85.2406 1024.2 84.4463ZM1029.7 84.4463V84.29C1029.7 83.4795 1029.94 82.8285 1030.4 82.3369C1030.87 81.8421 1031.49 81.5947 1032.25 81.5947C1032.97 81.5947 1033.52 81.7835 1033.91 82.1611C1034.29 82.5387 1034.49 82.9701 1034.51 83.4551L1034.52 83.543H1033.49L1033.49 83.4746C1033.48 83.2109 1033.37 82.9831 1033.17 82.791C1032.97 82.5957 1032.66 82.498 1032.25 82.498C1031.78 82.498 1031.41 82.6673 1031.15 83.0059C1030.9 83.3411 1030.77 83.7692 1030.77 84.29V84.4463C1030.77 84.9704 1030.9 85.4017 1031.15 85.7402C1031.41 86.0755 1031.78 86.2432 1032.25 86.2432C1032.66 86.2432 1032.97 86.1439 1033.17 85.9453C1033.38 85.7467 1033.49 85.5173 1033.49 85.2568V85.1982H1034.51V85.2568C1034.51 85.7386 1034.31 86.1748 1033.92 86.5654C1033.53 86.9528 1032.97 87.1465 1032.25 87.1465C1031.49 87.1465 1030.87 86.9007 1030.4 86.4092C1029.94 85.9144 1029.7 85.2601 1029.7 84.4463ZM1035.46 87V79.5H1036.5V82.4053C1036.69 82.1644 1036.91 81.9772 1037.19 81.8438C1037.46 81.7103 1037.77 81.6452 1038.11 81.6484C1038.71 81.6452 1039.17 81.7982 1039.48 82.1074C1039.8 82.4134 1039.95 82.9521 1039.94 83.7236V87H1038.9V83.7139C1038.9 83.2874 1038.81 82.9912 1038.63 82.8252C1038.46 82.6592 1038.21 82.5762 1037.87 82.5762C1037.56 82.5762 1037.29 82.6608 1037.05 82.8301C1036.82 82.9993 1036.63 83.1979 1036.5 83.4258V87H1035.46ZM1040.95 84.4463V84.29C1040.95 83.499 1041.19 82.8529 1041.67 82.3516C1042.15 81.847 1042.77 81.5947 1043.54 81.5947C1044.3 81.5947 1044.93 81.847 1045.4 82.3516C1045.89 82.8529 1046.13 83.499 1046.13 84.29V84.4463C1046.13 85.2406 1045.89 85.89 1045.4 86.3945C1044.93 86.8958 1044.3 87.1465 1043.54 87.1465C1042.77 87.1465 1042.15 86.8958 1041.67 86.3945C1041.19 85.89 1040.95 85.2406 1040.95 84.4463ZM1042.02 84.29V84.4463C1042.02 84.9639 1042.15 85.3903 1042.42 85.7256C1042.68 86.0576 1043.06 86.2236 1043.54 86.2236C1044.02 86.2236 1044.39 86.0576 1044.66 85.7256C1044.92 85.3903 1045.06 84.9639 1045.06 84.4463V84.29C1045.06 83.7757 1044.92 83.3525 1044.66 83.0205C1044.39 82.6852 1044.02 82.5176 1043.54 82.5176C1043.06 82.5176 1042.68 82.6852 1042.42 83.0205C1042.15 83.3525 1042.02 83.7757 1042.02 84.29ZM1046.85 85.374H1047.89V85.4619C1047.89 85.7451 1048 85.9551 1048.21 86.0918C1048.43 86.2285 1048.72 86.2969 1049.09 86.2969C1049.46 86.2969 1049.75 86.2301 1049.94 86.0967C1050.14 85.96 1050.24 85.7809 1050.24 85.5596C1050.24 85.335 1050.15 85.1689 1049.97 85.0615C1049.79 84.9541 1049.41 84.8451 1048.82 84.7344C1048.23 84.6204 1047.78 84.4349 1047.48 84.1777C1047.19 83.9173 1047.04 83.5771 1047.04 83.1572C1047.04 82.708 1047.23 82.3353 1047.6 82.0391C1047.97 81.7428 1048.48 81.5947 1049.12 81.5947C1049.76 81.5947 1050.26 81.751 1050.64 82.0635C1051.02 82.376 1051.21 82.7731 1051.21 83.2549V83.3428H1050.17V83.2646C1050.17 83.0075 1050.08 82.8073 1049.9 82.6641C1049.72 82.5208 1049.46 82.4492 1049.11 82.4492C1048.75 82.4492 1048.5 82.5094 1048.33 82.6299C1048.16 82.7471 1048.08 82.9001 1048.08 83.0889C1048.08 83.2809 1048.17 83.4323 1048.34 83.543C1048.51 83.6536 1048.9 83.7643 1049.49 83.875C1050.08 83.9857 1050.53 84.1712 1050.83 84.4316C1051.14 84.6888 1051.29 85.042 1051.29 85.4912C1051.29 85.973 1051.1 86.3701 1050.72 86.6826C1050.35 86.9919 1049.8 87.1465 1049.09 87.1465C1048.38 87.1465 1047.83 86.9902 1047.44 86.6777C1047.04 86.362 1046.85 85.9453 1046.85 85.4277V85.374ZM1054.77 87V81.7412H1055.75L1055.78 82.3809H1055.8C1055.93 82.1725 1056.1 81.9902 1056.33 81.834C1056.56 81.6745 1056.81 81.5947 1057.1 81.5947C1057.19 81.5947 1057.27 81.6012 1057.35 81.6143C1057.43 81.6273 1057.49 81.6419 1057.54 81.6582V82.7324C1057.44 82.7129 1057.36 82.6999 1057.28 82.6934C1057.21 82.6836 1057.13 82.6787 1057.05 82.6787C1056.77 82.6787 1056.52 82.7552 1056.3 82.9082C1056.08 83.0579 1055.92 83.2467 1055.82 83.4746V87H1054.77ZM1057.97 84.4463V84.29C1057.97 83.499 1058.2 82.8529 1058.66 82.3516C1059.13 81.847 1059.72 81.5947 1060.44 81.5947C1061.17 81.5947 1061.74 81.8291 1062.16 82.2979C1062.58 82.7666 1062.79 83.4014 1062.79 84.2021V84.6611H1058.62V83.8408H1061.75V83.8457C1061.75 83.4355 1061.65 83.1035 1061.44 82.8496C1061.24 82.5924 1060.9 82.4639 1060.42 82.4639C1059.97 82.4639 1059.62 82.6413 1059.36 82.9961C1059.11 83.3477 1058.98 83.779 1058.98 84.29V84.4463C1058.98 84.9574 1059.12 85.3887 1059.41 85.7402C1059.69 86.0918 1060.09 86.2676 1060.59 86.2676C1060.91 86.2676 1061.19 86.196 1061.43 86.0527C1061.68 85.9095 1061.87 85.7435 1062.03 85.5547L1062.72 86.1309C1062.55 86.4173 1062.28 86.6598 1061.9 86.8584C1061.52 87.0537 1061.08 87.1514 1060.58 87.1514C1059.77 87.1514 1059.13 86.8991 1058.66 86.3945C1058.2 85.89 1057.97 85.2406 1057.97 84.4463ZM1063.43 85.374H1064.47V85.4619C1064.47 85.7451 1064.58 85.9551 1064.79 86.0918C1065.01 86.2285 1065.3 86.2969 1065.67 86.2969C1066.04 86.2969 1066.33 86.2301 1066.52 86.0967C1066.72 85.96 1066.82 85.7809 1066.82 85.5596C1066.82 85.335 1066.73 85.1689 1066.55 85.0615C1066.37 84.9541 1065.99 84.8451 1065.4 84.7344C1064.81 84.6204 1064.37 84.4349 1064.07 84.1777C1063.77 83.9173 1063.62 83.5771 1063.62 83.1572C1063.62 82.708 1063.81 82.3353 1064.18 82.0391C1064.55 81.7428 1065.06 81.5947 1065.7 81.5947C1066.34 81.5947 1066.85 81.751 1067.22 82.0635C1067.6 82.376 1067.79 82.7731 1067.79 83.2549V83.3428H1066.75V83.2646C1066.75 83.0075 1066.66 82.8073 1066.48 82.6641C1066.3 82.5208 1066.04 82.4492 1065.69 82.4492C1065.34 82.4492 1065.08 82.5094 1064.91 82.6299C1064.75 82.7471 1064.66 82.9001 1064.66 83.0889C1064.66 83.2809 1064.75 83.4323 1064.92 83.543C1065.1 83.6536 1065.48 83.7643 1066.07 83.875C1066.66 83.9857 1067.11 84.1712 1067.41 84.4316C1067.72 84.6888 1067.87 85.042 1067.87 85.4912C1067.87 85.973 1067.68 86.3701 1067.3 86.6826C1066.93 86.9919 1066.39 87.1465 1065.67 87.1465C1064.96 87.1465 1064.41 86.9902 1064.02 86.6777C1063.63 86.362 1063.43 85.9453 1063.43 85.4277V85.374ZM1068.64 84.4463V84.29C1068.64 83.499 1068.87 82.8529 1069.33 82.3516C1069.8 81.847 1070.39 81.5947 1071.12 81.5947C1071.84 81.5947 1072.42 81.8291 1072.84 82.2979C1073.26 82.7666 1073.46 83.4014 1073.46 84.2021V84.6611H1069.29V83.8408H1072.42V83.8457C1072.42 83.4355 1072.32 83.1035 1072.12 82.8496C1071.92 82.5924 1071.58 82.4639 1071.1 82.4639C1070.65 82.4639 1070.3 82.6413 1070.04 82.9961C1069.78 83.3477 1069.65 83.779 1069.65 84.29V84.4463C1069.65 84.9574 1069.8 85.3887 1070.08 85.7402C1070.37 86.0918 1070.76 86.2676 1071.27 86.2676C1071.59 86.2676 1071.87 86.196 1072.11 86.0527C1072.35 85.9095 1072.55 85.7435 1072.7 85.5547L1073.39 86.1309C1073.22 86.4173 1072.95 86.6598 1072.57 86.8584C1072.19 87.0537 1071.76 87.1514 1071.25 87.1514C1070.44 87.1514 1069.8 86.8991 1069.33 86.3945C1068.87 85.89 1068.64 85.2406 1068.64 84.4463ZM1074.43 87V81.7412H1075.4L1075.44 82.3809H1075.46C1075.58 82.1725 1075.76 81.9902 1075.99 81.834C1076.21 81.6745 1076.47 81.5947 1076.76 81.5947C1076.85 81.5947 1076.93 81.6012 1077.01 81.6143C1077.09 81.6273 1077.15 81.6419 1077.2 81.6582V82.7324C1077.1 82.7129 1077.01 82.6999 1076.94 82.6934C1076.87 82.6836 1076.79 82.6787 1076.71 82.6787C1076.42 82.6787 1076.17 82.7552 1075.96 82.9082C1075.74 83.0579 1075.58 83.2467 1075.48 83.4746V87H1074.43ZM1077.32 81.7412H1078.38L1079.64 85.1299C1079.69 85.2633 1079.73 85.3903 1079.76 85.5107C1079.79 85.6312 1079.82 85.7614 1079.84 85.9014H1079.87C1079.89 85.7614 1079.92 85.6312 1079.95 85.5107C1079.98 85.3903 1080.02 85.2633 1080.07 85.1299L1081.32 81.7412H1082.35L1080.3 87H1079.34L1077.32 81.7412ZM1082.58 85.4717C1082.58 84.9248 1082.81 84.5 1083.26 84.1973C1083.72 83.8913 1084.28 83.7383 1084.94 83.7383H1086.12V83.3623C1086.12 83.0921 1086.03 82.8724 1085.86 82.7031C1085.69 82.5339 1085.41 82.4492 1085.02 82.4492C1084.65 82.4492 1084.37 82.5225 1084.19 82.6689C1084.01 82.8154 1083.92 82.9928 1083.92 83.2012V83.2793H1082.87V83.2012C1082.87 82.752 1083.08 82.3727 1083.49 82.0635C1083.9 81.751 1084.43 81.5947 1085.08 81.5947C1085.72 81.5947 1086.23 81.7428 1086.6 82.0391C1086.97 82.3353 1087.16 82.7764 1087.16 83.3623V85.8281C1087.16 86.0397 1087.18 86.2415 1087.23 86.4336C1087.27 86.6257 1087.32 86.7884 1087.4 86.9219V87H1086.38C1086.34 86.9219 1086.3 86.8145 1086.26 86.6777C1086.23 86.5378 1086.21 86.4059 1086.2 86.2822C1086.08 86.4873 1085.86 86.6745 1085.55 86.8438C1085.23 87.013 1084.86 87.0977 1084.44 87.0977C1083.95 87.0977 1083.51 86.9593 1083.14 86.6826C1082.76 86.4027 1082.58 85.999 1082.58 85.4717ZM1083.63 85.4326C1083.63 85.6898 1083.71 85.89 1083.89 86.0332C1084.06 86.1764 1084.32 86.248 1084.67 86.248C1085.02 86.248 1085.35 86.1406 1085.66 85.9258C1085.96 85.7077 1086.12 85.4619 1086.12 85.1885V84.5195H1085.03C1084.6 84.5195 1084.25 84.6025 1084 84.7686C1083.75 84.9313 1083.63 85.1527 1083.63 85.4326ZM1088.21 84.4463V84.29C1088.21 83.5251 1088.42 82.8936 1088.84 82.3955C1089.26 81.8942 1089.82 81.6436 1090.5 81.6436C1090.87 81.6436 1091.18 81.7087 1091.44 81.8389C1091.71 81.9658 1091.92 82.1286 1092.07 82.3271V79.5H1093.11V87H1092.14L1092.11 86.3506H1092.09C1091.96 86.5622 1091.75 86.7396 1091.47 86.8828C1091.19 87.026 1090.87 87.0977 1090.51 87.0977C1089.78 87.0977 1089.22 86.8486 1088.81 86.3506C1088.41 85.8493 1088.21 85.2145 1088.21 84.4463ZM1089.28 84.4463C1089.28 84.9541 1089.4 85.3691 1089.65 85.6914C1089.9 86.0137 1090.27 86.1748 1090.74 86.1748C1091.05 86.1748 1091.33 86.0902 1091.56 85.9209C1091.8 85.7484 1091.97 85.5514 1092.07 85.3301V83.4111C1091.97 83.1572 1091.8 82.9538 1091.58 82.8008C1091.35 82.6445 1091.07 82.5664 1090.74 82.5664C1090.27 82.5664 1089.9 82.7259 1089.65 83.0449C1089.4 83.3639 1089.28 83.779 1089.28 84.29V84.4463ZM1094.16 84.4463V84.29C1094.16 83.499 1094.4 82.8529 1094.88 82.3516C1095.36 81.847 1095.99 81.5947 1096.75 81.5947C1097.52 81.5947 1098.14 81.847 1098.62 82.3516C1099.1 82.8529 1099.34 83.499 1099.34 84.29V84.4463C1099.34 85.2406 1099.1 85.89 1098.62 86.3945C1098.14 86.8958 1097.52 87.1465 1096.75 87.1465C1095.99 87.1465 1095.36 86.8958 1094.88 86.3945C1094.4 85.89 1094.16 85.2406 1094.16 84.4463ZM1095.23 84.29V84.4463C1095.23 84.9639 1095.37 85.3903 1095.63 85.7256C1095.9 86.0576 1096.27 86.2236 1096.75 86.2236C1097.23 86.2236 1097.61 86.0576 1097.87 85.7256C1098.14 85.3903 1098.27 84.9639 1098.27 84.4463V84.29C1098.27 83.7757 1098.14 83.3525 1097.87 83.0205C1097.61 82.6852 1097.23 82.5176 1096.75 82.5176C1096.27 82.5176 1095.9 82.6852 1095.63 83.0205C1095.37 83.3525 1095.23 83.7757 1095.23 84.29ZM1100.06 85.374H1101.1V85.4619C1101.1 85.7451 1101.21 85.9551 1101.42 86.0918C1101.64 86.2285 1101.93 86.2969 1102.3 86.2969C1102.67 86.2969 1102.96 86.2301 1103.15 86.0967C1103.35 85.96 1103.45 85.7809 1103.45 85.5596C1103.45 85.335 1103.36 85.1689 1103.18 85.0615C1103 84.9541 1102.62 84.8451 1102.03 84.7344C1101.44 84.6204 1101 84.4349 1100.7 84.1777C1100.4 83.9173 1100.25 83.5771 1100.25 83.1572C1100.25 82.708 1100.44 82.3353 1100.81 82.0391C1101.18 81.7428 1101.69 81.5947 1102.33 81.5947C1102.97 81.5947 1103.48 81.751 1103.85 82.0635C1104.23 82.376 1104.42 82.7731 1104.42 83.2549V83.3428H1103.38V83.2646C1103.38 83.0075 1103.29 82.8073 1103.11 82.6641C1102.93 82.5208 1102.67 82.4492 1102.32 82.4492C1101.97 82.4492 1101.71 82.5094 1101.54 82.6299C1101.38 82.7471 1101.29 82.9001 1101.29 83.0889C1101.29 83.2809 1101.38 83.4323 1101.55 83.543C1101.73 83.6536 1102.11 83.7643 1102.7 83.875C1103.29 83.9857 1103.74 84.1712 1104.04 84.4316C1104.35 84.6888 1104.5 85.042 1104.5 85.4912C1104.5 85.973 1104.31 86.3701 1103.93 86.6826C1103.56 86.9919 1103.02 87.1465 1102.3 87.1465C1101.59 87.1465 1101.04 86.9902 1100.65 86.6777C1100.26 86.362 1100.06 85.9453 1100.06 85.4277V85.374Z" fill="#79ACD4"/>
<mask id="path-10-inside-4_9007_17516" fill="white">
<path fill-rule="evenodd" clip-rule="evenodd" d="M1679.79 16.4304C1679.93 15.641 1680 14.8289 1680 14C1680 6.26801 1673.73 0 1666 0C1658.27 0 1652 6.26801 1652 14C1652 14.8289 1652.07 15.641 1652.21 16.4304C1649.58 19.559 1648 23.5947 1648 28C1648 37.9411 1656.06 46 1666 46V58H1667V45.9727C1676.48 45.4538 1684 37.6056 1684 28C1684 23.5947 1682.42 19.559 1679.79 16.4304ZM763 50C755.268 50 749 43.732 749 36C749 28.268 755.268 22 763 22C770.732 22 777 28.268 777 36C777 43.3958 771.265 49.4521 764 49.9648V58H763V50ZM231.016 21.3309C231.365 13.9096 237.492 8 245 8C252.508 8 258.635 13.9096 258.984 21.3309C260.886 24.0759 262 27.4078 262 31C262 40.0531 254.923 47.4535 246 47.9711V58H245V48C235.611 48 228 40.3888 228 31C228 27.4078 229.114 24.0759 231.016 21.3309Z"/>
</mask>
<path fill-rule="evenodd" clip-rule="evenodd" d="M1679.79 16.4304C1679.93 15.641 1680 14.8289 1680 14C1680 6.26801 1673.73 0 1666 0C1658.27 0 1652 6.26801 1652 14C1652 14.8289 1652.07 15.641 1652.21 16.4304C1649.58 19.559 1648 23.5947 1648 28C1648 37.9411 1656.06 46 1666 46V58H1667V45.9727C1676.48 45.4538 1684 37.6056 1684 28C1684 23.5947 1682.42 19.559 1679.79 16.4304ZM763 50C755.268 50 749 43.732 749 36C749 28.268 755.268 22 763 22C770.732 22 777 28.268 777 36C777 43.3958 771.265 49.4521 764 49.9648V58H763V50ZM231.016 21.3309C231.365 13.9096 237.492 8 245 8C252.508 8 258.635 13.9096 258.984 21.3309C260.886 24.0759 262 27.4078 262 31C262 40.0531 254.923 47.4535 246 47.9711V58H245V48C235.611 48 228 40.3888 228 31C228 27.4078 229.114 24.0759 231.016 21.3309Z" fill="white"/>
<path d="M1679.79 16.4304L1678.8 16.2579L1678.72 16.7168L1679.02 17.0735L1679.79 16.4304ZM1652.21 16.4304L1652.98 17.0735L1653.28 16.7168L1653.2 16.2579L1652.21 16.4304ZM1666 46H1667V45H1666V46ZM1666 58H1665V59H1666V58ZM1667 58V59H1668V58H1667ZM1667 45.9727L1666.95 44.9742L1666 45.0259V45.9727H1667ZM763 50H764V49H763V50ZM764 49.9648L763.93 48.9673L763 49.0329V49.9648H764ZM764 58V59H765V58H764ZM763 58H762V59H763V58ZM231.016 21.3309L231.838 21.9003L232.001 21.6645L232.015 21.3779L231.016 21.3309ZM258.984 21.3309L257.985 21.3779L257.999 21.6645L258.162 21.9003L258.984 21.3309ZM246 47.9711L245.942 46.9728L245 47.0274V47.9711H246ZM246 58V59H247V58H246ZM245 58H244V59H245V58ZM245 48H246V47H245V48ZM1679 14C1679 14.7709 1678.93 15.5253 1678.8 16.2579L1680.77 16.6028C1680.92 15.7567 1681 14.887 1681 14H1679ZM1666 1C1673.18 1 1679 6.8203 1679 14H1681C1681 5.71573 1674.28 -1 1666 -1V1ZM1653 14C1653 6.8203 1658.82 1 1666 1V-1C1657.72 -1 1651 5.71573 1651 14H1653ZM1653.2 16.2579C1653.07 15.5253 1653 14.7709 1653 14H1651C1651 14.887 1651.08 15.7567 1651.23 16.6028L1653.2 16.2579ZM1649 28C1649 23.8386 1650.49 20.0287 1652.98 17.0735L1651.44 15.7872C1648.67 19.0892 1647 23.3508 1647 28H1649ZM1666 45C1656.61 45 1649 37.3888 1649 28H1647C1647 38.4934 1655.51 47 1666 47V45ZM1667 58V46H1665V58H1667ZM1667 57H1666V59H1667V57ZM1666 45.9727V58H1668V45.9727H1666ZM1683 28C1683 37.0716 1675.89 44.4842 1666.95 44.9742L1667.05 46.9712C1677.06 46.4234 1685 38.1395 1685 28H1683ZM1679.02 17.0735C1681.51 20.0287 1683 23.8386 1683 28H1685C1685 23.3508 1683.33 19.0892 1680.56 15.7872L1679.02 17.0735ZM748 36C748 44.2843 754.716 51 763 51V49C755.82 49 750 43.1797 750 36H748ZM763 21C754.716 21 748 27.7157 748 36H750C750 28.8203 755.82 23 763 23V21ZM778 36C778 27.7157 771.284 21 763 21V23C770.18 23 776 28.8203 776 36H778ZM764.07 50.9624C771.856 50.4129 778 43.9244 778 36H776C776 42.8671 770.675 48.4913 763.93 48.9673L764.07 50.9624ZM765 58V49.9648H763V58H765ZM763 59H764V57H763V59ZM762 50V58H764V50H762ZM245 7C236.956 7 230.391 13.3317 230.017 21.2839L232.015 21.3779C232.339 14.4875 238.029 9 245 9V7ZM259.983 21.2839C259.609 13.3317 253.044 7 245 7V9C251.971 9 257.661 14.4875 257.985 21.3779L259.983 21.2839ZM263 31C263 27.1979 261.82 23.6683 259.806 20.7614L258.162 21.9003C259.952 24.4834 261 27.6178 261 31H263ZM246.058 48.9694C255.507 48.4213 263 40.586 263 31H261C261 39.5203 254.34 46.4856 245.942 46.9728L246.058 48.9694ZM247 58V47.9711H245V58H247ZM245 59H246V57H245V59ZM244 48V58H246V48H244ZM227 31C227 40.9411 235.059 49 245 49V47C236.163 47 229 39.8366 229 31H227ZM230.194 20.7614C228.18 23.6683 227 27.1979 227 31H229C229 27.6178 230.048 24.4834 231.838 21.9003L230.194 20.7614Z" fill="#79ACD4" mask="url(#path-10-inside-4_9007_17516)"/>
</svg>
