<?xml version="1.0" standalone="no"?>
<!DOCTYPE svg PUBLIC "-//W3C//DTD SVG 1.1//EN" "http://www.w3.org/Graphics/SVG/1.1/DTD/svg11.dtd" >
<svg xmlns="http://www.w3.org/2000/svg">
<defs>
<font id="b2bicons" horiz-adv-x="1024">
<font-face units-per-em="1024" ascent="960" descent="-64" />
<missing-glyph horiz-adv-x="1024" />
<glyph unicode="&#x20;" horiz-adv-x="512" d="" />
<glyph unicode="&#xe900;" glyph-name="Add" d="M299.020 447.999c-0.141 17.678 14.284 32.103 31.962 31.962h149.058v149.058c-0.141 17.678 14.284 32.102 31.962 31.962 17.677 0.141 32.102-14.284 31.961-31.962v-149.058h149.056c17.677 0.141 32.102-14.284 31.962-31.962 0.141-17.677-14.285-32.102-31.962-31.961h-149.056v-149.056c0.141-17.677-14.284-32.102-31.961-31.962-17.678-0.141-32.103 14.285-31.962 31.962v149.056h-149.058c-17.677-0.141-32.103 14.284-31.962 31.961zM874.042 810.038c199.968-199.97 199.968-524.106 0-724.080-199.974-199.968-524.11-199.968-724.080 0-199.97 199.974-199.97 524.11 0 724.080s524.106 199.97 724.080 0zM195.217 764.783c-174.938-174.938-174.938-458.627 0-633.571 174.938-174.938 458.627-174.938 633.571 0 174.938 174.944 174.938 458.632 0 633.571-174.944 174.938-458.632 174.938-633.571 0z" />
<glyph unicode="&#xe901;" glyph-name="Align-center" d="M736 864c17.6 0 32-14.32 32-32s-14.4-32-32-32h-448c-17.6 0-32 14.32-32 32s14.4 32 32 32h448zM928 608c17.6 0 32-14.4 32-32s-14.4-32-32-32h-832c-17.672 0-32 14.4-32 32s14.328 32 32 32h832zM256 320c0 17.6 14.4 32 32 32h448c17.6 0 32-14.4 32-32s-14.4-32-32-32h-448c-17.6 0-32 14.4-32 32zM928 96c17.6 0 32-14.4 32-32s-14.4-32-32-32h-832c-17.672 0-32 14.4-32 32s14.328 32 32 32h832z" />
<glyph unicode="&#xe902;" glyph-name="Align-left" d="M608 864c17.6 0 32-14.32 32-32s-14.4-32-32-32h-512c-17.672 0-32 14.32-32 32s14.328 32 32 32h512zM928 608c17.6 0 32-14.4 32-32s-14.4-32-32-32h-832c-17.672 0-32 14.4-32 32s14.328 32 32 32h832zM64 320c0 17.6 14.328 32 32 32h512c17.6 0 32-14.4 32-32s-14.4-32-32-32h-512c-17.672 0-32 14.4-32 32zM928 96c17.6 0 32-14.4 32-32s-14.4-32-32-32h-832c-17.672 0-32 14.4-32 32s14.328 32 32 32h832z" />
<glyph unicode="&#xe903;" glyph-name="Align-right" d="M928 864c17.6 0 32-14.32 32-32s-14.4-32-32-32h-512c-17.6 0-32 14.32-32 32s14.4 32 32 32h512zM928 608c17.6 0 32-14.4 32-32s-14.4-32-32-32h-832c-17.672 0-32 14.4-32 32s14.328 32 32 32h832zM928 288h-512c-17.6 0-32 14.4-32 32s14.4 32 32 32h512c17.6 0 32-14.4 32-32s-14.4-32-32-32zM928 96c17.6 0 32-14.4 32-32s-14.4-32-32-32h-832c-17.672 0-32 14.4-32 32s14.328 32 32 32h832z" />
<glyph unicode="&#xe904;" glyph-name="App-store" d="M495.8 734.2l18.2 31.4c11.2 19.6 36.2 26.2 55.8 15s26.2-36.2 15-55.8l-175-303h126.6c41 0 64-48.2 46.2-81.599h-371c-22.6 0-40.8 18.2-40.8 40.799s18.2 40.8 40.8 40.8h104l133.2 230.801-41.6 72.2c-11.2 19.6-4.6 44.4 15 55.8 19.6 11.2 44.4 4.6 55.8-15l17.8-31.4zM338.4 298.202l-39.2-68c-11.2-19.603-36.2-26.202-55.8-15.002s-26.2 36.198-15 55.802l29.2 50.399c32.8 10.2 59.6 2.399 80.8-23.199zM676.198 421.6h106.202c22.598 0 40.8-18.2 40.8-40.8s-18.202-40.8-40.8-40.8h-59.002l39.802-68.998c11.2-19.603 4.602-44.403-15.002-55.802-19.597-11.2-44.397-4.602-55.795 15.002-67.003 116.198-117.403 203.199-150.803 261.198-34.2 59-9.8 118.2 14.4 138.2 26.8-46 66.8-115.4 120.198-208zM496 960c-274 0-496-222-496-496 0-273.997 222-496 496-496 273.997 0 496 222.003 496 496 0 274-222.003 496-496 496zM928 464c0-237.402-192.198-432-432-432-237.4 0-432 192.198-432 432 0 237.4 192.2 432 432 432 237.402 0 432-192.2 432-432z" />
<glyph unicode="&#xe905;" glyph-name="Apply-column" d="M896 960h-768c-70.4 0-128-57.6-128-128v-128c0-70.4 57.6-128 128-128h352v-210.56l-73.6 73.6c-12.16 12.8-32.64 12.8-45.44 0-12.8-12.16-12.8-32.64 0-45.44l128-128c12.16-12.8 32.64-12.8 45.44 0l128 128c12.8 12.16 12.8 32.64 0 45.44-12.16 12.8-32.64 12.8-45.44 0l-73.6-73.6v210.56h352c70.4 0 128 57.6 128 128v128c0 70.4-57.6 128-128 128h0.64zM960 704c0-35.2-28.8-64-64-64h-768c-35.2 0-64 28.8-64 64v128c0 35.2 28.8 64 64 64h768c35.2 0 64-28.8 64-64v-128zM896 448h-96c-17.92 0-32-14.080-32-32s14.080-32 32-32h96c35.2 0 64-28.8 64-64v-128c0-35.2-28.8-64-64-64h-768c-35.2 0-64 28.8-64 64v128c0 35.2 28.8 64 64 64h96c17.92 0 32 14.72 32 32s-14.080 32-32 32h-96c-70.4 0-128-57.6-128-128v-128c0-70.4 57.6-128 128-128h768c70.4 0 128 57.6 128 128v128c0 70.4-57.6 128-128 128zM96 0c-32 0-32-64 0-64s800 0 832 0c32 0 32.64 64 0 64s-800 0-832 0z" />
<glyph unicode="&#xe906;" glyph-name="Archive" d="M928 896h-832c-53.020 0-96-42.98-96-96v-128c0-17.6 14.5-32 32-32h32v-512c0-70.701 57.3-128 128-128h640c70.701 0 128 57.299 128 128v512h32c17.6 0 32 14.4 32 32v128c0 53.020-43.002 96-96 96zM896 128c0-35.2-28.8-64-64-64h-640c-35.2 0-64 28.8-64 64v512h768v-512zM960 704h-896v96c0 17.5 14.5 32 32 32h832c17.6 0 32-14.5 32-32v-96zM352 448h320c17.6 0 32 14.4 32 32s-14.4 32-32 32h-320c-17.6 0-32-14.4-32-32s14.4-32 32-32z" />
<glyph unicode="&#xe907;" glyph-name="Arrow-down-sm" d="M758.502 201.402c12.397 12.397 12.397 32.8 0 45.197-12.403 12.403-32.8 12.403-45.203 0l-137.399-137.395v754.797c0 17.6-14.4 32-32 32s-32-14.4-32-32v-754.797l-137.4 137.395c-12.4 12.403-32.8 12.403-45.2 0-12.4-12.397-12.4-32.8 0-45.197l192-192c12.4-12.403 32.8-12.403 45.2 0l192.003 192z" />
<glyph unicode="&#xe908;" glyph-name="Arrow-down" d="M511.98 896c17.6 0 32-14.8 32-33.201v-754.588l298.599 281.402c13.062 12.314 33.318 11.31 45.184-2.236 5.414-6.384 8.218-14.384 8.218-22.385 0-9.010-3.501-18.018-10.502-24.56l-351.998-331.805c-12.188-11.501-30.82-11.501-43 0l-352 331.805c-13.124 12.38-14 33.38-2.188 46.9 11.876 13.546 32.12 14.55 45.18 2.236l298.508-281.358v754.609c0 18.38 14.4 33.18 32 33.18z" />
<glyph unicode="&#xe909;" glyph-name="Arrow-left" d="M960 448.020c0-17.6-14.803-32-33.203-32h-754.588l281.404-298.599c12.314-13.062 11.31-33.318-2.236-45.184-6.384-5.414-14.384-8.218-22.385-8.218-9.010 0-18.018 3.501-24.56 10.502l-331.805 351.998c-11.504 12.188-11.504 30.82 0 43l331.805 352c12.38 13.124 33.38 14 46.9 2.188 13.546-11.876 14.55-32.12 2.236-45.18l-281.36-298.508h754.613c18.374 0 33.178-14.4 33.178-32z" />
<glyph unicode="&#xe90a;" glyph-name="Arrow-right" d="M64 448c0 17.6 14.8 32 33.201 32h754.588l-281.402 298.6c-12.314 13.062-11.31 33.32 2.236 45.18 6.384 5.42 14.384 8.22 22.385 8.22 9.010 0 18.018-3.5 24.56-10.5l331.805-352c11.501-12.188 11.501-30.82 0-43l-331.805-351.997c-12.38-13.126-33.38-14.003-46.9-2.189-13.546 11.872-14.55 32.115-2.236 45.178l281.358 298.509h-754.609c-18.38 0-33.18 14.4-33.18 32z" />
<glyph unicode="&#xe90b;" glyph-name="Arrow-up-sm" d="M566.5 886.6c-12.4 12.4-32.8 12.4-45.2 0l-192-192c-12.4-12.4-12.4-32.8 0-45.2s32.8-12.4 45.2 0l137.4 137.4v-754.801c0-17.6 14.4-32 32-32s32 14.4 32 32v754.801l137.399-137.4c12.403-12.4 32.8-12.4 45.203 0 12.397 12.4 12.397 32.8 0 45.2l-192.003 192z" />
<glyph unicode="&#xe90c;" glyph-name="Arrow-up" d="M512 0c-17.6 0-32 14.803-32 33.203v754.588l-298.6-281.404c-13.062-12.314-33.32-11.31-45.18 2.236-5.42 6.384-8.22 14.384-8.22 22.385 0 9.010 3.5 18.018 10.5 24.56l352 331.805c12.188 11.504 30.82 11.504 43 0l351.997-331.805c13.126-12.38 14.003-33.38 2.189-46.9-11.872-13.546-32.115-14.55-45.178-2.236l-298.509 281.36v-754.613c0-18.374-14.4-33.178-32-33.178z" />
<glyph unicode="&#xe90d;" glyph-name="Arrows-up-down" d="M246.6 886.6c-12.4 12.4-32.8 12.4-45.2 0l-192-191.999c-12.4-12.4-12.4-32.801 0-45.201s32.8-12.4 45.2 0l137.4 137.4v-754.8c0-17.6 14.4-32 32-32s32 14.4 32 32v754.8l137.4-137.4c12.4-12.4 32.8-12.4 45.2 0s12.4 32.801 0 45.201l-192 191.999zM950.598 201.402c12.403 12.397 12.403 32.8 0 45.197-12.397 12.403-32.8 12.403-45.197 0l-137.402-137.395v754.797c0 17.6-14.4 32-32 32s-32-14.4-32-32v-754.797l-137.4 137.395c-12.4 12.403-32.8 12.403-45.2 0-12.4-12.397-12.4-32.8 0-45.197l192.001-192c12.397-12.403 32.8-12.403 45.197 0l192 192z" />
<glyph unicode="&#xe90e;" glyph-name="Bell" d="M478.2 928c0 17.672 16.2 32 32 32 19.4 0 33.8-14.328 33.8-32v-33.58c161.798-16.060 288-152.42 288-318.42v-58.2c0-87.4 34.797-171.2 96.602-233.198l5.402-5.402c16.595-16.602 25.997-37.402 25.997-62.598 0-49.005-39.597-88.602-88.602-88.602h-718.838c-48.9 0-88.56 39.597-88.56 88.602 0 25.197 9.332 45.997 25.94 62.598l5.5 5.402c61.82 61.998 96.56 145.798 96.56 233.198v58.2c0 166 126.2 302.36 288 318.42l-1.8 33.58zM510.2 832c-139.6 0-256.001-114.6-256.001-256v-58.2c0-104.4-39.68-204.596-113.5-278.401l-5.5-5.402c-4.62-4.595-9-10.995-9-17.395 0-13.6 12.8-24.602 26.36-24.602h718.838c13.6 0 24.602 11.002 24.602 24.602 0 6.4-2.598 12.8-7.2 17.395l-5.402 5.402c-73.997 73.805-115.398 174.001-115.398 278.401v58.2c0 141.4-114.598 256-257.8 256zM510.2 0c29.6 0 53.4 17.798 62.2 42.598 5.8 16.8 24.2 27.2 40.8 19.603 16.6-6.003 25.4-24.198 19.6-40.8-17.6-49.798-65-85.402-122.6-85.402-54 0-101.4 35.603-119 85.402-5.8 16.602 3 34.797 19.6 40.8 16.6 7.597 35-2.803 40.8-19.603 8.8-24.8 32.6-42.598 58.6-42.598z" />
<glyph unicode="&#xe90f;" glyph-name="Branch" d="M384 800c0-77.4-55-140.2-128-156.8v-230.4c40.6 41.4 97.4 67.2 160 67.2h192c88.403 0 160 71.6 160 160v3.2c-72.998 16.6-128 79.4-128 156.8 0 88.36 71.597 160 160 160s160-71.64 160-160c0-77.4-55.002-140.2-128-156.8v-3.2c0-123.8-100.198-224-224-224h-192c-88.4 0-160-71.6-160-160v-3.2c73-14.797 128-79.398 128-156.8 0-88.403-71.6-160-160-160-88.36 0-160 71.597-160 160 0 77.402 54.96 142.003 128 156.8v390.4c-73.040 16.6-128 79.4-128 156.8 0 88.36 71.64 160 160 160 88.4 0 160-71.64 160-160zM224 704c53 0 96 43 96 96 0 53.020-43 96-96 96-53.020 0-96-42.98-96-96 0-53 42.98-96 96-96zM800 704c52.998 0 96 43 96 96 0 53.020-43.002 96-96 96s-96-42.98-96-96c0-53 43.002-96 96-96zM224 0c53 0 96 43.002 96 96s-43 96-96 96c-53.020 0-96-43.002-96-96s42.98-96 96-96z" />
<glyph unicode="&#xe910;" glyph-name="Bright" d="M512 736c-17.6 0-32 14.4-32 32v160c0 17.688 14.4 32 32 32s32-14.312 32-32v-160c0-17.6-14.4-32-32-32zM544-32v160c0 17.69-14.312 32-32 32s-32-14.4-32-32v-160c0-17.69 14.312-32 32-32s32 14.4 32 32zM1024 448c0 17.688-14.31 32-32 32h-160c-17.69 0-32-14.312-32-32s14.31-32 32-32h160c17.6 0 32 14.4 32 32zM224 448c0 17.688-14.312 32-32 32h-160c-17.688 0-32-14.4-32-32s14.312-32 32-32h160c17.6 0 32 14.4 32 32zM760.998 651.6l113.12 113.18c12.499 12.5 12.499 32.76 0 45.24s-32.762 12.5-45.235 0l-113.12-113.18c-12.506-12.5-12.506-32.74 0-45.24 6.246-6.25 14.432-9.382 22.618-9.382 8.179 0 16.218 3.181 22.618 9.382zM195.22 86.003l113.12 113.178c12.5 12.499 12.5 32.736 0 45.242-12.5 12.499-32.76 12.506-45.24 0.006l-113.12-113.184c-12.5-12.499-12.5-32.762 0-45.242 6.25-6.246 14.438-9.376 22.62-9.376s16.36 2.97 22.62 9.376zM873.997 86.003c12.506 12.499 12.506 32.755 0 45.235l-113.114 113.184c-12.506 12.499-32.762 12.493-45.242-0.006s-12.499-32.742 0-45.242l113.12-113.178c6.246-6.253 14.438-9.376 22.618-9.376 8.186 0 16.422 2.976 22.618 9.382zM308.4 651.6c12.5 12.5 12.5 32.74 0 45.24l-113.18 113.22c-12.5 12.5-32.76 12.5-45.24 0s-12.5-32.76 0-45.24l113.12-113.18c6.25-6.25 14.438-9.376 22.62-9.376s16.28 3.135 22.68 9.336zM736 448c0 123.5-100.5 224-224 224s-224-100.6-224-224c0-123.4 100.5-224 224-224s224 100.4 224 224zM672 448c0-88.26-71.78-160-160-160s-160 71.8-160 160c0 88.2 71.8 160 160 160s160-71.8 160-160z" />
<glyph unicode="&#xe911;" glyph-name="Business-user" horiz-adv-x="1280" d="M832 416c0-88.32 71.68-160 160-160s160 71.68 160 160c0 88.32-71.68 160-160 160s-160-71.68-160-160zM1088 416c0-53.12-42.88-96-96-96s-96 42.88-96 96c0 53.12 42.88 96 96 96s96-42.88 96-96zM1093.76 192h-203.52c-103.040 0-186.24-83.2-186.24-186.24 0-38.4 31.36-69.76 69.76-69.76h436.48c38.4 0 69.76 31.36 69.76 69.76 0 103.040-83.2 186.24-186.24 186.24zM1210.24 0h-436.48c0 0-5.76 2.56-5.76 5.76 0 67.2 55.040 122.24 122.24 122.24h203.52c67.2 0 122.24-55.040 122.24-122.24 0-3.2-2.56-5.76-5.76-5.76zM768 416c0 10.88 1.92 21.76 3.2 32h-707.2v192c0 35.2 28.8 64 64 64h768c35.2 0 64-28.8 64-64v-3.2c10.24 1.28 21.12 3.2 32 3.2s21.76-1.92 32-3.2v3.2c0 70.4-57.6 128-128 128h-128v96c0 53.12-42.88 96-96 96h-320c-53.12 0-96-42.88-96-96v-96h-128c-70.4 0-128-57.6-128-128v-512c0-70.4 57.6-128 128-128h512.64c0 0 0 3.84 0 5.76 0 19.84 3.2 39.68 7.68 58.24h-520.32c-35.2 0-64 28.8-64 64v256h288v-128c0-17.92 14.080-32 32-32h256c17.92 0 32 14.080 32 32v128h99.2c-1.28 10.24-3.2 21.12-3.2 32zM320 864c0 17.92 14.080 32 32 32h320c17.92 0 32-14.080 32-32v-96h-384v96zM608 288h-192v96h192v-96z" />
<glyph unicode="&#xe912;" glyph-name="Business" d="M896 768h-128v96c0 53.12-42.88 96-96 96h-320c-53.12 0-96-42.88-96-96v-96h-128c-70.4 0-128-57.6-128-128v-512c0-70.4 57.6-128 128-128h768c70.4 0 128 57.6 128 128v512c0 70.4-57.6 128-128 128zM320 864c0 17.92 14.080 32 32 32h320c17.28 0 32-14.080 32-32v-96h-384v96zM960 128c0-35.2-28.8-64-64-64h-768c-35.2 0-64 28.8-64 64v256h288v-128c0-17.92 14.080-32 32-32h256c17.92 0 32 14.080 32 32v128h288v-256zM416 288v96h192v-96h-192zM960 448h-896v192c0 35.2 28.8 64 64 64h768c35.2 0 64-28.8 64-64v-192z" />
<glyph unicode="&#xe913;" glyph-name="Calendar-check" d="M502.6 169.402c-12.4-12.602-32.801-12.602-45.201 0l-128 128c-12.6 12.397-12.6 32.798 0 45.198 12.4 12.6 32.801 12.6 45.201 0l105.4-105.396 201.402 201.396c12.397 12.6 32.8 12.6 45.197 0 12.602-12.4 12.602-32.799 0-45.199l-223.998-223.999zM320 832h384v96c0 17.672 14.4 32 32 32s32-14.328 32-32v-96h64c70.598 0 128-57.3 128-128v-640c0-70.598-57.402-128-128-128h-640c-70.7 0-128 57.402-128 128v640c0 70.7 57.3 128 128 128h64v96c0 17.672 14.4 32 32 32s32-14.328 32-32v-96zM128 64c0-35.398 28.66-64 64-64h640c35.398 0 64 28.602 64 64v512h-768v-512zM128 704v-64h768v64c0 35.4-28.602 64-64 64h-640c-35.34 0-64-28.6-64-64z" />
<glyph unicode="&#xe914;" glyph-name="Calendar-clock" horiz-adv-x="1152" d="M224 960c17.6 0 32-14.328 32-32v-96h384v96c0 17.672 14.4 32 32 32s32-14.328 32-32v-96h64c70.598 0 128-57.3 128-128v-129.4c-10.598 1-21.203 1.4-32 1.4s-21.402-0.4-32-1.4v1.4h-768v-512c0-35.398 28.66-64 64-64h464.4c20.2-24.198 43.4-45.798 69.2-64h-533.6c-70.7 0-128 57.402-128 128v640c0 70.7 57.3 128 128 128h64v96c0 17.672 14.4 32 32 32zM768 768h-640c-35.34 0-64-28.6-64-64v-64h768v64c0 35.4-28.602 64-64 64zM862.202 384c19.398 0 32-14.4 32-32v-96h65.798c17.6 0 32-14.4 32-32s-14.4-32-32-32h-97.798c-15.802 0-32 14.4-32 32v128c0 17.6 16.198 32 32 32zM576 224c0 159 128.998 288 288 288s288-129 288-288c0-159.002-128.998-288-288-288s-288 128.998-288 288zM864 0c123.802 0 224 100.198 224 224 0 123.8-100.198 224-224 224s-224-100.2-224-224c0-123.802 100.198-224 224-224z" />
<glyph unicode="&#xe915;" glyph-name="Calendar-day" d="M192 432c0 44.2 35.82 80 80 80h160c44.2 0 80-35.8 80-80v-160c0-44.198-35.8-80-80-80h-160c-44.18 0-80 35.802-80 80v160zM256 432v-160c0-8.8 7.16-16 16-16h160c8.8 0 16 7.2 16 16v160c0 8.8-7.2 16-16 16h-160c-8.84 0-16-7.2-16-16zM320 832h384v96c0 17.672 14.4 32 32 32s32-14.328 32-32v-96h64c70.598 0 128-57.3 128-128v-640c0-70.598-57.402-128-128-128h-640c-70.7 0-128 57.402-128 128v640c0 70.7 57.3 128 128 128h64v96c0 17.672 14.4 32 32 32s32-14.328 32-32v-96zM128 64c0-35.398 28.66-64 64-64h640c35.398 0 64 28.602 64 64v512h-768v-512zM128 704v-64h768v64c0 35.4-28.602 64-64 64h-640c-35.34 0-64-28.6-64-64z" />
<glyph unicode="&#xe916;" glyph-name="Calendar-holiday" d="M599 407.8l98.6-14.2c39.398-5.8 55.002-54.2 26.598-82.003l-71.2-69.395 16.8-98.003c6.598-39.2-34.598-69.197-69.798-50.598l-89.8 46.202-88-46.202c-33.4-18.598-74.6 11.398-68 50.598l16.8 98.003-71.2 69.395c-28.4 27.803-12.8 76.203 26.6 82.003l98.6 14.2 44 89.2c17.601 35.8 68.4 35.8 86.001 0l44-89.2zM467.4 349.4l-99.6-14.6 72-70.198-17-99.398 87.4 46.995 91-46.995-17 99.398 71.998 70.198-99.598 14.6-46.4 90.2-42.801-90.2zM320 832h384v96c0 17.672 14.4 32 32 32s32-14.328 32-32v-96h64c70.598 0 128-57.3 128-128v-640c0-70.598-57.402-128-128-128h-640c-70.7 0-128 57.402-128 128v640c0 70.7 57.3 128 128 128h64v96c0 17.672 14.4 32 32 32s32-14.328 32-32v-96zM128 64c0-35.398 28.66-64 64-64h640c35.398 0 64 28.602 64 64v512h-768v-512zM128 704v-64h768v64c0 35.4-28.602 64-64 64h-640c-35.34 0-64-28.6-64-64z" />
<glyph unicode="&#xe917;" glyph-name="Calendar-important" d="M560 128c0-26.598-21.4-48-48-48s-48 21.402-48 48c0 26.598 21.4 48 48 48s48-21.402 48-48zM544 256c0-17.6-14.4-32-32-32s-32 14.4-32 32v192c0 17.6 14.4 32 32 32s32-14.4 32-32v-192zM288 960c17.6 0 32-14.328 32-32v-96h384v96c0 17.672 14.4 32 32 32s32-14.328 32-32v-96h64c70.598 0 128-57.3 128-128v-640c0-70.598-57.402-128-128-128h-640c-70.7 0-128 57.402-128 128v640c0 70.7 57.3 128 128 128h64v96c0 17.672 14.4 32 32 32zM896 576h-768v-512c0-35.398 28.66-64 64-64h640c35.398 0 64 28.602 64 64v512zM832 768h-640c-35.34 0-64-28.6-64-64v-64h768v64c0 35.4-28.602 64-64 64z" />
<glyph unicode="&#xe918;" glyph-name="Calendar-plus" d="M544 448c0 17.673-14.327 32-32 32s-32-14.327-32-32v-128h-128c-17.673 0-32-14.33-32-32s14.327-32 32-32h128v-128c0-17.67 14.327-32 32-32s32 14.33 32 32v128h128c17.67 0 32 14.33 32 32s-14.33 32-32 32h-128v128zM320 928c0 17.672-14.4 32-32 32s-32-14.328-32-32v-96h-64c-70.7 0-128-57.3-128-128v-640c0-70.598 57.3-128 128-128h640c70.598 0 128 57.402 128 128v640c0 70.7-57.402 128-128 128h-64v96c0 17.672-14.4 32-32 32s-32-14.328-32-32v-96h-384v96zM128 576h768v-512c0-35.398-28.602-64-64-64h-640c-35.34 0-64 28.602-64 64v512zM192 768h640c35.398 0 64-28.6 64-64v-64h-768v64c0 35.4 28.66 64 64 64z" />
<glyph unicode="&#xe919;" glyph-name="Calendar-range" d="M832 416c0-17.6-14.4-32-32-32h-320c-17.6 0-32 14.4-32 32s14.4 32 32 32h320c17.6 0 32-14.4 32-32zM224 128c-17.68 0-32 14.4-32 32s14.32 32 32 32h320c17.6 0 32-14.4 32-32s-14.4-32-32-32h-320zM384 416c0-53-43-96-96-96-53.020 0-96 43-96 96s42.98 96 96 96c53 0 96-43 96-96zM256 416c0-17.6 14.4-32 32-32s32 14.4 32 32c0 17.6-14.4 32-32 32s-32-14.4-32-32zM640 160c0 52.998 43.002 96 96 96s96-43.002 96-96c0-52.998-43.002-96-96-96s-96 43.002-96 96zM768 160c0 17.6-14.4 32-32 32s-32-14.4-32-32c0-17.6 14.4-32 32-32s32 14.4 32 32zM288 960c17.6 0 32-14.328 32-32v-96h384v96c0 17.672 14.4 32 32 32s32-14.328 32-32v-96h64c70.598 0 128-57.3 128-128v-640c0-70.598-57.402-128-128-128h-640c-70.7 0-128 57.402-128 128v640c0 70.7 57.3 128 128 128h64v96c0 17.672 14.4 32 32 32zM896 576h-768v-512c0-35.398 28.66-64 64-64h640c35.398 0 64 28.602 64 64v512zM832 768h-640c-35.34 0-64-28.6-64-64v-64h768v64c0 35.4-28.602 64-64 64z" />
<glyph unicode="&#xe91a;" glyph-name="Calendar-week" d="M192 432c0 44.2 35.82 80 80 80h480c44.198 0 80-35.8 80-80v-160c0-44.198-35.802-80-80-80h-480c-44.18 0-80 35.802-80 80v160zM256 432v-160c0-8.8 7.16-16 16-16h480c8.8 0 16 7.2 16 16v160c0 8.8-7.2 16-16 16h-480c-8.84 0-16-7.2-16-16zM320 832h384v96c0 17.672 14.4 32 32 32s32-14.328 32-32v-96h64c70.598 0 128-57.3 128-128v-640c0-70.598-57.402-128-128-128h-640c-70.7 0-128 57.402-128 128v640c0 70.7 57.3 128 128 128h64v96c0 17.672 14.4 32 32 32s32-14.328 32-32v-96zM128 64c0-35.398 28.66-64 64-64h640c35.398 0 64 28.602 64 64v512h-768v-512zM128 704v-64h768v64c0 35.4-28.602 64-64 64h-640c-35.34 0-64-28.6-64-64z" />
<glyph unicode="&#xe91b;" glyph-name="Calendar" d="M288 960c17.6 0 32-14.328 32-32v-96h384v96c0 17.672 14.4 32 32 32s32-14.328 32-32v-96h64c70.598 0 128-57.3 128-128v-640c0-70.598-57.402-128-128-128h-640c-70.7 0-128 57.402-128 128v640c0 70.7 57.3 128 128 128h64v96c0 17.672 14.4 32 32 32zM896 576h-768v-512c0-35.398 28.66-64 64-64h640c35.398 0 64 28.602 64 64v512zM832 768h-640c-35.34 0-64-28.6-64-64v-64h768v64c0 35.4-28.602 64-64 64z" />
<glyph unicode="&#xe91c;" glyph-name="Camera-viewfinder" d="M0 864c0 53.020 42.98 96 96 96h192c17.6 0 32-14.328 32-32 0-17.68-14.4-32-32-32h-192c-17.68 0-32-14.32-32-32v-192c0-17.6-14.32-32-32-32-17.672 0-32 14.4-32 32v192zM640 448c0-70.6-57.4-128-128-128s-128 57.4-128 128c0 70.6 57.4 128 128 128s128-57.4 128-128zM512 512c-35.4 0-64-28.6-64-64s28.6-64 64-64c35.4 0 64 28.6 64 64s-28.6 64-64 64zM651.597 736.8l12.403-32.8h56c61.798 0 112-50.2 112-112v-288c0-61.798-50.202-112-112-112h-416c-61.8 0-112 50.202-112 112v288c0 61.8 50.2 112 112 112h56l12.4 32.8c7 18.8 24.8 31.2 44.8 31.2h189.6c20 0 37.802-12.4 44.797-31.2zM304 640c-26.6 0-48-21.4-48-48v-288c0-26.598 21.4-48 48-48h416c26.598 0 48 21.402 48 48v288c0 26.6-21.402 48-48 48h-100.4l-24 64h-167.2l-24-64h-100.4zM928 960c52.998 0 96-42.98 96-96v-192c0-17.6-14.4-32-32-32s-32 14.4-32 32v192c0 17.68-14.4 32-32 32h-192c-17.6 0-32 14.32-32 32 0 17.672 14.4 32 32 32h192zM0 224c0 17.6 14.328 32 32 32 17.68 0 32-14.4 32-32v-192c0-17.6 14.32-32 32-32h192c17.6 0 32-14.4 32-32s-14.4-32-32-32h-192c-53.020 0-96 43.002-96 96v192zM736-64c-17.6 0-32 14.4-32 32s14.4 32 32 32h192c17.6 0 32 14.4 32 32v192c0 17.6 14.4 32 32 32s32-14.4 32-32v-192c0-52.998-43.002-96-96-96h-192z" />
<glyph unicode="&#xe91d;" glyph-name="Cancel-sm" d="M361.4 598.601c12.4 12.6 32.8 12.6 45.2 0l105.4-105.4 105.4 105.4c12.4 12.6 32.801 12.6 45.198 0 12.602-12.4 12.602-32.8 0-45.2l-105.398-105.4 105.398-105.4c12.602-12.4 12.602-32.803 0-45.199-12.397-12.602-32.798-12.602-45.198 0l-105.4 105.399-105.4-105.399c-12.4-12.602-32.8-12.602-45.2 0-12.6 12.397-12.6 32.799 0 45.199l105.4 105.4-105.4 105.4c-12.6 12.4-12.6 32.8 0 45.2z" />
<glyph unicode="&#xe91e;" glyph-name="Cancel" d="M361.4 598.6c12.4 12.6 32.801 12.6 45.201 0l105.4-105.4 105.4 105.4c12.4 12.6 32.801 12.6 45.198 0 12.602-12.4 12.602-32.801 0-45.201l-105.398-105.4 105.398-105.4c12.602-12.4 12.602-32.801 0-45.198-12.397-12.602-32.798-12.602-45.198 0l-105.4 105.398-105.4-105.398c-12.4-12.602-32.801-12.602-45.201 0-12.6 12.397-12.6 32.798 0 45.198l105.4 105.4-105.4 105.4c-12.6 12.4-12.6 32.801 0 45.201zM1024 448c0-282.797-229.203-512-512-512-282.8 0-512 229.203-512 512 0 282.8 229.2 512 512 512 282.797 0 512-229.2 512-512zM512 896c-247.4 0-448-200.6-448-448 0-247.398 200.6-448 448-448 247.398 0 448 200.602 448 448 0 247.4-200.602 448-448 448z" />
<glyph unicode="&#xe91f;" glyph-name="Car-compact" horiz-adv-x="1280" d="M1022.72 576h-512v288c0 17.92-14.080 32-32 32s-32-14.080-32-32v-320c0-17.92 14.080-32 32-32h544c17.92 0 32 14.080 32 32s-14.080 32-32 32zM1214.72 384h-32c-17.92 0-32-14.080-32-32s14.080-32 32-32h32c17.92 0 32 14.080 32 32s-14.080 32-32 32zM1038.72 575.36l-160 200.32c-60.8 76.16-152.32 120.32-249.6 120.32h-223.36c-104.32 0-202.24-51.2-262.4-136.32l-85.76-122.88c-37.76-53.76-57.6-117.76-57.6-183.68v-261.12c0-17.92 14.080-32 32-32h128c0-88.32 71.68-160 160-160s160 71.68 160 160h320c0-88.32 71.68-160 160-160s160 71.68 160 160h128c17.92 0 32 14.080 32 32v128c0 135.68-106.24 247.040-240 255.36h-1.28zM318.72 64c-53.12 0-96 42.88-96 96s42.88 96 96 96c53.12 0 96-42.88 96-96s-42.88-96-96-96zM958.72 64c-53.12 0-96 42.88-96 96s42.88 96 96 96c53.12 0 96-42.88 96-96s-42.88-96-96-96zM1214.72 224h-109.44c-24.96 56.32-81.28 96-146.56 96s-121.6-39.68-146.56-96h-346.88c-24.96 56.32-81.28 96-146.56 96s-121.6-39.68-146.56-96h-109.44v229.12c0 52.48 16 103.68 46.080 146.56l85.76 122.88c48 68.48 126.080 109.44 209.92 109.44h223.36c78.080 0 151.040-35.2 199.68-96l169.6-211.84c6.4-7.68 15.36-12.16 24.96-12.16 105.6 0 192-86.4 192-192v-96h0.64z" />
<glyph unicode="&#xe920;" glyph-name="Car-convertible" horiz-adv-x="1280" d="M1184.045 384c-17.901 0-31.974-14.080-31.974-32s14.074-32 31.974-32h63.955v64h-63.955zM831.674 835.84c-30.701 38.4-76.102 60.16-124.71 60.16h-66.509c-11.51 0-22.382-6.4-28.138-16-5.756-10.24-5.756-22.4 0-32l191.856-320c5.754-10.24 16.627-15.36 27.501-15.36 5.754 0 11.507 1.28 16.627 4.48 15.347 8.96 19.827 28.8 10.874 44.16l-162.438 270.72h10.227c29.421 0 56.282-13.44 74.829-35.84l217.434-272c10.874-14.080 31.334-16 44.768-5.12 14.067 10.88 15.987 31.36 5.114 44.8l-217.434 272zM1056 576h-768v128c0 17.92-14.080 32-32 32s-32-14.080-32-32v-128c-123.52 0-224-100.48-224-224v-96c0-53.12 42.88-96 96-96h35.2c15.36-90.88 94.080-160 188.8-160s173.44 69.12 188.8 160h262.4c15.36-90.88 94.080-160 188.8-160s173.44 69.12 188.8 160h35.2c53.12 0 96 42.88 96 96v96c0 123.52-100.48 224-224 224zM320 64c-70.4 0-128 57.6-128 128s57.6 128 128 128c70.4 0 128-57.6 128-128s-57.6-128-128-128zM960 64c-70.4 0-128 57.6-128 128s57.6 128 128 128c70.4 0 128-57.6 128-128s-57.6-128-128-128zM1216 256c0-17.92-14.080-32-32-32h-35.2c-15.36 90.88-94.080 160-188.8 160s-173.44-69.12-188.8-160h-262.4c-15.36 90.88-94.080 160-188.8 160s-173.44-69.12-188.8-160h-35.2c-17.92 0-32 14.080-32 32v96c0 88.32 71.68 160 160 160h832c88.32 0 160-71.68 160-160v-96z" />
<glyph unicode="&#xe921;" glyph-name="Car-electric" horiz-adv-x="1280" d="M896.442 544.321c0-17.894 14.726-31.955 32.659-31.955h95.411v63.908h-95.411c-17.933 0-32.659-14.060-32.659-31.954zM223.414 576.275h-95.414v-63.908h95.414c17.93 0 32.659 14.060 32.659 31.955s-14.728 31.954-32.659 31.954zM1248 384.549h-62.758c-17.926 0-32.659-14.060-32.659-31.954s14.733-31.955 32.659-31.955h62.758v63.908zM701.126 588.418c-3.2 7.669-9.606 14.060-17.286 17.256-3.846 1.917-8.326 2.556-12.166 2.556h-114.628l105.662 105.45c12.806 12.781 12.806 32.593 0 45.375s-32.66 12.782-45.468 0l-160.092-159.772c0 0-5.123-6.391-7.044-10.225-3.202-7.669-3.202-16.616 0-24.285s9.605-14.060 17.29-17.255c3.842-1.917 8.324-2.557 12.167-2.557h114.625l-105.66-105.449c-12.808-12.782-12.808-32.594 0-45.375 6.404-6.391 14.728-9.587 22.413-9.587s16.65 3.196 22.413 9.587l160.088 159.772c0 0 5.126 6.391 7.046 10.225 3.2 7.669 3.2 16.616 0 24.285h0.64zM1040 575.131l-208 260.026c-30.72 38.428-76.8 60.844-126.72 60.844h-384.64c-52.48 0-99.2-31.382-119.040-80.698l-96.64-241.453c-26.24-4.483-49.92-17.292-68.48-36.506-23.68-24.337-36.48-56.36-36.48-89.664v-223.52c0-17.293 6.4-33.306 18.56-45.472s28.16-18.573 45.44-18.573h67.2c15.36-90.944 94.080-160.115 188.8-160.115s173.44 69.171 188.8 160.115h262.4c15.36-90.944 94.080-160.115 188.8-160.115s173.44 69.171 188.8 160.115h67.2c35.2 0 64 28.819 64 64.045v96.068c0 135.777-106.24 247.217-240 255.543v-0.641zM320 63.405c-70.4 0-128 57.645-128 128.090 0 70.451 57.6 128.096 128 128.096s128-57.645 128-128.096c0-70.445-57.6-128.090-128-128.090zM960 63.405c-70.4 0-128 57.645-128 128.090 0 70.451 57.6 128.096 128 128.096s128-57.645 128-128.096c0-70.445-57.6-128.090-128-128.090zM1216 223.52h-67.2c-15.36 90.944-94.080 160.114-188.8 160.114s-173.44-69.17-188.8-160.114h-262.4c-15.36 90.944-94.080 160.114-188.8 160.114s-173.44-69.17-188.8-160.114h-67.2v234.407c1.92 12.809 8.32 24.978 17.28 34.585 12.16 12.168 28.8 19.213 45.44 19.213h21.76l112 279.88c9.6 24.338 33.28 40.349 59.52 40.349h384.64c30.080 0 57.6-13.45 76.8-37.147l226.56-283.082h15.36c105.6 0 192-86.461 192-192.135v-96.070h0.64z" />
<glyph unicode="&#xe922;" glyph-name="Car-photos" horiz-adv-x="1280" d="M926.080 320c26.509 0 48 21.491 48 48s-21.491 48-48 48c-26.509 0-48-21.491-48-48s21.491-48 48-48zM478.080 320c26.509 0 48 21.491 48 48s-21.491 48-48 48c-26.509 0-48-21.491-48-48s21.491-48 48-48zM928 0h-736c-70.4 0-128 57.6-128 128v544c0 17.92-14.080 32-32 32s-32-14.080-32-32v-544c0-106.24 85.76-192 192-192h736c17.92 0 32 14.080 32 32s-14.080 32-32 32zM1152 960h-896c-70.4 0-128-57.6-128-128v-640c0-70.4 57.6-128 128-128h896c70.4 0 128 57.6 128 128v640c0 70.4-57.6 128-128 128zM478.080 480h448c53.12 0 96-42.88 96-96v-128h-640v128c0 53.12 42.88 96 96 96zM472.32 544l32.64 113.92c8.32 27.52 33.28 46.080 61.44 46.080h271.36c28.8 0 53.76-19.2 61.44-46.080l32.64-113.92h-459.52zM1024 192v-64h-641.92v64h641.92zM1216 192c0-35.2-28.8-64-64-64h-64v256c0 62.080-35.2 112.64-83.84 139.52l-43.52 151.68c-15.36 55.040-65.92 92.8-122.88 92.8h-271.36c-56.96 0-107.52-37.76-122.88-92.8l-41.6-151.68c-50.56-27.52-83.84-78.080-83.84-139.52v-256h-62.080c-35.2 0-64 28.8-64 64v640c0 35.2 28.8 64 64 64h896c35.2 0 64-28.8 64-64v-640z" />
<glyph unicode="&#xe923;" glyph-name="Car-sedan" horiz-adv-x="1280" d="M1216 384h-32c-17.92 0-32-14.080-32-32s14.080-32 32-32h32c17.92 0 32 14.080 32 32s-14.080 32-32 32zM512 864h-64v-288h-320v-64h896v64h-512v288zM1040 575.131l-208 260.026c-30.72 38.428-76.8 60.844-126.72 60.844h-384.64c-52.48 0-99.2-31.382-119.040-80.698l-96.64-241.453c-26.24-4.483-49.92-17.292-68.48-36.506-23.68-24.337-36.48-56.36-36.48-89.664v-223.52c0-17.293 6.4-33.306 18.56-45.472s28.16-18.573 45.44-18.573h67.2c15.36-90.944 94.080-160.115 188.8-160.115s173.44 69.171 188.8 160.115h262.4c15.36-90.944 94.080-160.115 188.8-160.115s173.44 69.171 188.8 160.115h67.2c35.2 0 64 28.819 64 64.045v96.068c0 135.777-106.24 247.217-240 255.543v-0.641zM320 63.405c-70.4 0-128 57.645-128 128.090 0 70.451 57.6 128.096 128 128.096s128-57.645 128-128.096c0-70.445-57.6-128.090-128-128.090zM960 63.405c-70.4 0-128 57.645-128 128.090 0 70.451 57.6 128.096 128 128.096s128-57.645 128-128.096c0-70.445-57.6-128.090-128-128.090zM1216 223.52h-67.2c-15.36 90.944-94.080 160.114-188.8 160.114s-173.44-69.17-188.8-160.114h-262.4c-15.36 90.944-94.080 160.114-188.8 160.114s-173.44-69.17-188.8-160.114h-67.2v234.407c1.92 12.809 8.32 24.978 17.28 34.585 12.16 12.168 28.8 19.213 45.44 19.213h21.76l112 279.88c9.6 24.338 33.28 40.349 59.52 40.349h384.64c30.080 0 57.6-13.45 76.8-37.147l226.56-283.082h15.36c105.6 0 192-86.461 192-192.135v-96.070h0.64z" />
<glyph unicode="&#xe924;" glyph-name="Car-size" horiz-adv-x="1152" d="M1096.992 118.925l-73.562-73.555v805.259l73.562-73.554c12.154-12.792 32.621-12.792 45.414 0 12.794 12.152 12.794 32.62 0 45.411l-128.57 127.92c-12.154 12.792-32.621 12.792-45.414 0l-127.93-127.92c-12.794-12.152-12.794-32.62 0-45.411 12.154-12.792 32.621-12.792 45.414 0l73.562 73.554v-805.259l-73.562 73.555c-12.154 12.794-32.621 12.794-45.414 0-12.794-12.154-12.794-32.621 0-45.408l127.93-127.923c12.154-12.794 32.621-12.794 45.414 0l127.93 127.923c12.794 12.147 12.794 32.614 0 45.408-12.154 12.794-32.621 12.794-45.414 0h0.64zM607.663 352.38c26.495 0 47.972 21.477 47.972 47.971s-21.478 47.97-47.972 47.97c-26.495 0-47.974-21.477-47.974-47.97s21.478-47.971 47.974-47.971zM159.911 352.38c26.495 0 47.974 21.477 47.974 47.971s-21.478 47.97-47.974 47.97c-26.495 0-47.973-21.477-47.973-47.97s21.478-47.971 47.973-47.971zM685.696 555.773l-43.494 151.585c-15.35 55.005-65.882 92.742-122.81 92.742h-271.209c-56.929 0-107.46-37.736-122.812-92.742l-41.577-151.585c-50.532-27.503-83.793-78.031-83.793-139.433v-255.841c0-17.267 14.072-31.981 31.982-31.981s31.982 14.714 31.982 31.981v63.962h641.565v-63.962c0-17.267 12.794-31.981 31.981-31.981 15.994 0 31.981 14.714 31.981 31.981v255.841c0 62.041-35.181 112.57-83.795 139.433zM186.776 690.089c7.676 27.503 33.261 46.051 61.406 46.051h271.209c28.784 0 53.73-19.188 61.406-46.051l32.621-113.849h-459.265l32.622 113.849zM703.61 288.422h-639.645v127.917c0 53.087 42.856 95.94 95.947 95.94h447.752c53.092 0 95.947-42.853 95.947-95.94v-127.917z" />
<glyph unicode="&#xe925;" glyph-name="Car-suv" horiz-adv-x="1280" d="M1088 576h-110.080l-117.12 195.84c-46.080 76.8-129.92 124.16-219.52 124.16h-444.8c-55.040 0-103.040-35.84-118.4-88.32-78.080-252.8-78.080-257.28-78.080-263.68v-320c0-35.2 28.8-64 64-64h67.2c15.36-90.88 94.080-160 188.8-160s173.44 69.12 188.8 160h262.4c15.36-90.88 94.080-160 188.8-160s173.44 69.12 188.8 160h67.2c35.2 0 64 28.8 64 64v160c0 105.6-86.4 192-192 192zM805.76 738.56l97.92-162.56h-295.68v256h33.28c67.2 0 129.92-35.84 164.48-93.44zM352 832h192v-256h-192v256zM138.88 789.12c7.68 25.6 30.72 42.88 57.6 42.88h91.52v-256h-213.76c15.36 52.48 44.8 147.84 64.64 213.12zM320 64c-70.4 0-128 57.6-128 128s57.6 128 128 128c70.4 0 128-57.6 128-128s-57.6-128-128-128zM960 64c-70.4 0-128 57.6-128 128s57.6 128 128 128c70.4 0 128-57.6 128-128s-57.6-128-128-128zM1148.8 224c-15.36 90.88-94.080 160-188.8 160s-173.44-69.12-188.8-160h-262.4c-15.36 90.88-94.080 160-188.8 160s-173.44-69.12-188.8-160h-67.2v288h1024c70.4 0 128-57.6 128-128h-32c-17.92 0-32-14.080-32-32s14.080-32 32-32h32v-96h-67.2z" />
<glyph unicode="&#xe926;" glyph-name="Car-van" horiz-adv-x="1280" d="M992.48 895.854h-662.768l-87.729 58.88c-14.728 9.6-34.579 5.76-44.185-8.96s-5.763-34.56 8.965-44.16l8.324-5.12h-54.43c-17.93 0-32.018-14.080-32.018-32s14.088-32 32.018-32h128.071v-96c0-17.92 14.088-32 32.018-32s32.018 14.080 32.018 32v96h352.195v-96c0-17.92 14.086-32 32.019-32 17.926 0 32.019 14.080 32.019 32v96h224.122c17.933 0 32.019 14.080 32.019 32s-14.086 32-32.019 32l-0.64-0.64zM1248.621 319.853h-64.032c-17.933 0-32.019-14.080-32.019-32s14.086-32 32.019-32h64.032c17.933 0 32.019 14.080 32.019 32s-14.086 32-32.019 32zM1276.16 430.572c0 0 0 1.28 0 1.92l-154.88 257.92c-28.8 48-81.28 77.44-136.96 77.44h-888.32c-53.12 0-96-42.88-96-96v-511.999c0-53.12 42.88-96 96-96h64c0 0 1.92 0 3.2 0.64 14.72-72.96 79.36-128.64 156.8-128.64s142.080 55.040 156.8 128h326.4c14.72-72.96 79.36-128 156.8-128s142.080 55.040 156.8 128h67.2c53.12 0 96 42.88 96 96v255.999c0 5.76-1.92 10.24-3.84 14.72zM1065.6 657.132l125.44-209.28h-295.68v256h87.68c33.28 0 65.28-17.92 82.56-46.72zM640 447.852v256h192v-256h-192zM96 703.852h480v-256h-512v224c0 17.92 14.080 32 32 32zM320-0.147c-53.12 0-96 42.88-96 96s42.88 96 96 96c53.12 0 96-42.88 96-96s-42.88-96-96-96zM960-0.147c-53.12 0-96 42.88-96 96s42.88 96 96 96c53.12 0 96-42.88 96-96s-42.88-96-96-96zM1184 127.853h-67.2c-14.72 72.96-79.36 128-156.8 128s-142.080-55.040-156.8-128h-326.4c-14.72 72.96-79.36 128-156.8 128s-142.080-55.68-156.8-128.64c-1.28 0-1.92 0.64-3.2 0.64h-64c-17.92 0-32 14.080-32 32v223.999h1152v-223.999c0-17.92-14.080-32-32-32z" />
<glyph unicode="&#xe927;" glyph-name="Car-wash" d="M192 960c0 0 20.28-20.28 42.2-48.42 25.76-33.060 53.8-77 53.8-111.58 0-64-42.98-96-96-96s-96 43-96 96c0 34.58 28.040 78.52 53.8 111.58 21.92 28.14 42.2 48.42 42.2 48.42zM216.52 775.080c2.32 2.14 7.48 8.060 7.48 24.92 0 1.5-1.060 9-8.24 23.38-6 12-14.36 25.020-23.76 37.9-9.4-12.88-17.76-25.9-23.76-37.9-7.18-14.38-8.24-21.88-8.24-23.38 0-17.68 14.32-32 32-32 12.2 0 21.34 4.14 24.52 7.080zM416 800c0 34.58 28 78.52 53.8 111.58 22 28.14 42.2 48.42 42.2 48.42s20.2-20.28 42.2-48.42c24-33.060 53.8-77 53.8-111.58 0-64-43-96-96-96s-96 43-96 96zM535.8 823.38c-6 12-14.4 25.020-23.8 37.9-9.4-12.88-17.8-25.9-23.8-37.9-7.201-14.38-8.2-21.88-8.2-23.38 0-17.68 14.4-32 32-32 12.2 0 21.4 4.14 24.6 7.080 2.2 2.14 7.4 8.060 7.4 24.92 0 1.5-1 9-8.2 23.38zM240 208c0 26.598 21.5 48 48 48 26.6 0 48-21.402 48-48s-21.4-48-48-48c-26.5 0-48 21.402-48 48zM784 208c0-26.598-21.402-48-48-48s-48 21.402-48 48c0 26.598 21.402 48 48 48s48-21.402 48-48zM376.4 608h271.197c57.203 0 107.405-37.8 123.002-92.8l41.6-151.4c50.598-27.4 83.802-78.001 83.802-139.8v-256c0-17.6-14.4-32-32-32s-32 14.4-32 32v64h-640v-64c0-17.6-14.32-32-32-32s-32 14.4-32 32v256c0 61.798 33.12 112.4 82.080 139.8l43.26 151.4c15.66 55 65.86 92.8 123.060 92.8zM376.4 544c-28.6 0-53.6-19-61.6-46.4l-32.4-113.6c1.8 0 3.8 0 5.6 0h448c1.798 0 3.802 0 5.6 0l-32.397 113.6c-8 27.4-33.005 46.4-61.606 46.4h-271.197zM832 224c0 52.998-43.002 96-96 96h-448c-53.020 0-96-43.002-96-96v-128h640v128zM736 800c0 34.58 28 78.52 53.798 111.58 22.003 28.14 42.202 48.42 42.202 48.42s20.198-20.28 42.202-48.42c24-33.060 53.798-77 53.798-111.58 0-64-43.002-96-96-96s-96 43-96 96zM855.802 823.38c-6.003 12-14.4 25.020-23.802 37.9-9.402-12.88-17.798-25.9-23.802-37.9-7.2-14.38-8.198-21.88-8.198-23.38 0-17.68 14.4-32 32-32 12.198 0 21.402 4.14 24.602 7.080 2.195 2.14 7.398 8.060 7.398 24.92 0 1.5-0.998 9-8.198 23.38z" />
<glyph unicode="&#xe928;" glyph-name="Car-wrench" d="M0 768c0 97.2 78.8 176 176 176 61.8 0 116.2-31.88 147.6-80h376.803c31.398 48.12 85.798 80 147.597 80 97.203 0 176-78.8 176-176s-78.797-176-176-176c-61.798 0-116.198 31.8-147.597 80h-376.803c-31.4-48.2-85.8-80-147.6-80-97.2 0-176 78.8-176 176zM176 880c-50.74 0-93.6-33.74-107.36-80h91.36c17.6 0 32-14.32 32-32 0-17.6-14.4-32-32-32h-91.36c13.76-46.2 56.62-80 107.36-80 42.2 0 82 25.2 100.4 62.2l8.8 17.8h453.597l8.8-17.8c16.602-37 56.403-62.2 100.403-62.2 50.797 0 93.6 33.8 107.398 80h-91.398c-17.6 0-32 14.4-32 32 0 17.68 14.4 32 32 32h91.398c-13.798 46.26-56.602 80-107.398 80-44 0-83.802-25.28-100.403-62.24l-8.8-17.76h-453.597l-8.8 17.76c-18.4 36.96-58.2 62.24-100.4 62.24zM240 208c0 26.598 21.4 48 48 48s48-21.402 48-48c0-26.598-21.4-48-48-48s-48 21.402-48 48zM784 208c0-26.598-21.402-48-48-48s-48 21.402-48 48c0 26.598 21.402 48 48 48s48-21.402 48-48zM376.4 608h271.197c57.203 0 107.405-37.8 123.002-92.8l41.6-151.4c50.598-27.4 83.802-78.001 83.802-139.8v-256c0-17.6-14.4-32-32-32s-32 14.4-32 32v64h-640v-64c0-17.6-14.4-32-32-32s-32 14.4-32 32v256c0 61.798 33.2 112.4 82 139.8l43.4 151.4c15.6 55 65.8 92.8 123 92.8zM376.4 544c-28.6 0-53.6-19-61.6-46.4l-32.4-113.6c1.8 0 3.8 0 5.6 0h448c1.798 0 3.802 0 5.6 0l-32.397 113.6c-8 27.4-33.005 46.4-61.606 46.4h-271.197zM832 224c0 52.998-43.002 96-96 96h-448c-53 0-96-43.002-96-96v-128h640v128z" />
<glyph unicode="&#xe929;" glyph-name="Cars" horiz-adv-x="1280" d="M248.32 960h271.36c56.96 0 107.52-37.76 122.88-92.8l41.6-151.68c21.76-10.88 39.040-26.88 52.48-45.44-23.68-3.2-46.72-10.24-68.48-21.12-14.72 14.080-36.48 22.4-60.16 22.4h-448c-53.12 0-96-42.88-96-96v-128h487.68l-12.16-43.52c-8.32-6.4-16.64-12.8-24.32-20.48h-451.2v-64c0-17.28-14.080-32-32-32s-32 14.72-32 32v256c0 62.080 33.28 112.64 81.92 139.52l43.52 151.68c16 55.040 65.92 92.8 122.88 92.8v0.64zM248.32 896c-28.8 0-53.76-19.2-61.44-46.72l-32.64-113.28h458.88l-32.64 113.28c-7.68 27.52-33.28 46.72-61.44 46.72h-270.72zM112 560c0 26.88 21.76 48 48 48s48-21.12 48-48c0-26.88-21.76-48-48-48s-48 21.12-48 48zM624 208c0 26.88 21.12 48 48 48s48-21.12 48-48c0-26.88-21.12-48-48-48s-48 21.12-48 48zM1168 208c0-26.88-21.12-48-48-48s-48 21.12-48 48c0 26.88 21.12 48 48 48s48-21.12 48-48zM760.32 608h271.36c56.96 0 107.52-37.76 122.88-92.8l41.6-151.68c50.56-27.52 83.84-78.080 83.84-139.52v-256c0-17.28-14.72-32-32-32s-32 14.72-32 32v64h-641.92v-64c0-17.28-12.8-32-32-32-16 0-32 14.72-32 32v256c0 62.080 35.2 112.64 83.84 139.52l43.52 151.68c15.36 55.040 65.92 92.8 122.88 92.8zM760.32 544c-28.8 0-53.76-19.2-61.44-46.080l-32.64-113.92h458.88l-32.64 113.92c-7.68 27.52-33.28 46.080-61.44 46.080h-270.72zM1216 224c0 53.12-42.88 96-96 96h-448c-53.12 0-96-42.88-96-96v-128h640v128z" />
<glyph unicode="&#xe92a;" glyph-name="CDP" horiz-adv-x="1088" d="M576 480c-17.6 0-32 14.4-32 32v417.060c0 16.792 13 30.854 29.8 30.935l2.2 0.005c247.398 0 448-200.6 448-448l-1.798-2.2c0-16.8-12.403-29.8-29.203-29.8h-416.998zM608 894.68v-350.68h350.598c-15.398 186.6-164 335.3-350.598 350.68zM448 860.78v-476.78l312.998-312.998c13.402-13.402 12.403-35.405-2.995-46.4-78.406-55.802-174.403-88.602-278.003-88.602-265 0-480 214.797-480 480 0 242.6 180.2 443.32 412.2 475.5 20.2 2.52 35.8-12.22 35.8-30.72zM402.8 338.8c-12 12-18.8 28.2-18.8 45.2v436.88c-183.4-43.32-320-208.28-320-404.88 0-229.798 186.2-416 416-416 75.2 0 145.8 20 206.598 54.797l-283.798 284.003zM935.802 65.402c-12-9.6-30.803-10.4-42.4 1.197l-262.802 262.802c-20.2 20.2-5.8 54.6 22.604 54.6h399.597c18.4 0 33.203-15.6 30.797-34-15.398-111.798-69.395-211.197-147.795-284.598zM1012.8 320h-282.202l184.602-184.602c47.002 51.405 81.203 116.403 97.6 184.602z" />
<glyph unicode="&#xe92b;" glyph-name="Chart" d="M544 896c53 0 96-42.98 96-96v-704c0-52.998-43-96-96-96h-64c-53 0-96 43.002-96 96v704c0 53.020 43 96 96 96h64zM544 832h-64c-17.6 0-32-14.32-32-32v-704c0-17.6 14.4-32 32-32h64c17.6 0 32 14.4 32 32v704c0 17.68-14.4 32-32 32zM224 512c53 0 96-43 96-96v-320c0-52.998-43-96-96-96h-64c-53.020 0-96 43.002-96 96v320c0 53 42.98 96 96 96h64zM224 448h-64c-17.68 0-32-14.4-32-32v-320c0-17.6 14.32-32 32-32h64c17.68 0 32 14.4 32 32v320c0 17.6-14.32 32-32 32zM704 672c0 53 43.002 96 96 96h64c52.998 0 96-43 96-96v-576c0-52.998-43.002-96-96-96h-64c-52.998 0-96 43.002-96 96v576zM768 672v-576c0-17.6 14.4-32 32-32h64c17.6 0 32 14.4 32 32v576c0 17.6-14.4 32-32 32h-64c-17.6 0-32-14.4-32-32z" />
<glyph unicode="&#xe92c;" glyph-name="Check" d="M950.554 758.611c12.595-12.399 12.595-32.798 0-45.197l-543.972-543.967c-12.399-12.602-32.799-12.602-45.197 0l-288.012 287.981c-12.495 12.399-12.495 32.798 0 45.197 12.487 12.6 32.746 12.6 45.245 0l265.365-265.383 521.368 521.369c12.403 12.519 32.8 12.519 45.203 0z" />
<glyph unicode="&#xe92d;" glyph-name="Check-in" horiz-adv-x="1280" d="M1080.32 517.12l-121.6-135.040-56.32 56.32c-12.8 12.8-32.64 12.8-45.44 0s-12.8-32.64 0-45.44l80-80c6.4-6.4 14.72-9.6 23.68-9.6s17.28 3.84 23.040 10.88l144 160c11.52 13.44 10.88 33.28-2.56 45.44-13.44 11.52-33.28 10.88-45.44-2.56h0.64zM672 0h-602.88c0 0-5.12 2.56-5.12 5.12 0 155.52 126.72 282.88 282.88 282.88h202.88c21.12 0 41.6-2.56 61.44-7.68 17.28-4.48 35.2 6.4 39.040 23.68s-7.040 34.56-24.32 38.4c-24.32 5.76-49.92 8.32-76.16 8.32h-202.88c-192 1.28-346.88-153.6-346.88-345.6 0-37.76 31.36-69.12 69.12-69.12h602.88c17.28 0 32 14.72 32 32s-14.080 32-32 32zM448 448c141.44 0 256 114.56 256 256s-114.56 256-256 256c-141.44 0-256-114.56-256-256s114.56-256 256-256zM448 896c105.6 0 192-86.4 192-192s-86.4-192-192-192c-105.6 0-192 86.4-192 192s86.4 192 192 192zM992 704c-158.72 0-288-129.28-288-288 0-148.48 236.16-436.48 263.68-468.48 6.4-7.040 15.36-11.52 24.32-11.52s18.56 4.48 24.32 11.52c26.88 32 263.68 320 263.68 468.48 0 158.72-129.28 288-288 288zM992 18.56c-79.36 100.48-224 302.080-224 397.44 0 123.52 100.48 224 224 224s224-100.48 224-224c0-95.36-144.64-296.96-224-397.44z" />
<glyph unicode="&#xe92e;" glyph-name="Chevron-down" d="M72.517 627.985c6.283 6.799 14.881 11.999 23.502 11.999 7.783 0 15.564-2.812 21.724-8.499l394.265-362.166 394.264 362.166c13.005 11.999 33.286 11.249 45.229-1.812 12-12.998 11.187-33.177-1.779-45.176l-416.072-383.965c-12.314-11.373-31.125-11.373-43.447 0l-416.068 383.965c-12.807 10.291-13.619 30.49-1.617 43.489z" />
<glyph unicode="&#xe92f;" glyph-name="Chevron-left" d="M691.987 887.483c6.797-6.283 11.994-14.881 11.994-23.502 0-7.783-2.81-15.564-8.499-21.724l-362.164-394.265 362.164-394.264c12-13.005 11.251-33.286-1.811-45.229-12.998-12-33.178-11.187-45.178 1.779l-383.962 416.072c-11.375 12.314-11.375 31.125 0 43.447l383.962 416.068c10.298 12.807 30.49 13.619 43.494 1.617z" />
<glyph unicode="&#xe930;" glyph-name="Chevron-right" d="M268.015 8.518c-6.799 6.285-11.999 14.88-11.999 23.501 0 7.782 2.812 15.565 8.499 21.722l362.167 394.267-362.167 394.266c-11.999 13.002-11.249 33.285 1.812 45.228 12.998 12.002 33.177 11.19 45.176-1.782l383.965-416.069c11.373-12.314 11.373-31.125 0-43.447l-383.965-416.072c-10.291-12.806-30.49-13.619-43.489-1.613z" />
<glyph unicode="&#xe931;" glyph-name="Chevron-sm" d="M713.408 566.587l-201.4-201.4-201.4 201.4c-12.5 12.5-32.76 12.5-45.24 0s-12.5-32.76 0-45.24l224-224.003c6.24-6.157 14.44-9.357 22.64-9.357s16.376 3.123 22.62 9.376l224.003 224c12.499 12.5 12.499 32.76 0 45.24-12.506 12.48-32.826 12.584-45.222-0.016z" />
<glyph unicode="&#xe932;" glyph-name="Chevron-up" d="M951.482 268.013c-6.285-6.797-14.88-11.994-23.501-11.994-7.782 0-15.565 2.81-21.722 8.499l-394.267 362.164-394.266-362.164c-13.002-12-33.285-11.251-45.228 1.811-12.002 12.998-11.19 33.178 1.782 45.178l416.069 383.962c12.314 11.375 31.125 11.375 43.447 0l416.072-383.962c12.806-10.298 13.619-30.49 1.613-43.494z" />
<glyph unicode="&#xe933;" glyph-name="Circle-full" d="M1024 448c0-282.797-229.203-512-512-512-282.8 0-512 229.203-512 512 0 282.8 229.2 512 512 512 282.797 0 512-229.2 512-512zM512 896c-247.4 0-448-200.6-448-448 0-247.398 200.6-448 448-448 247.398 0 448 200.602 448 448 0 247.4-200.602 448-448 448z" />
<glyph unicode="&#xe934;" glyph-name="Circle-half" d="M448.2 959.556c35 4.39 63.8-24.892 63.8-58.664v-904.034c0-35.642-28.8-64.845-63.8-60.416-252.7 31.616-448.2 248.512-448.2 513.34 0 264.826 195.5 478.116 448.2 509.775zM448 894.528c-217-31.235-384-219.393-384-444.746s167-417.078 384-448.291v893.037z" />
<glyph unicode="&#xe935;" glyph-name="Circle-quart" d="M449.347 959.561c35.366 4.406 62.648-24.979 62.648-58.869v-388.017c0-37.589-27.080-64.669-64.669-64.669h-388.016c-33.891 0-63.275 27.283-58.869 62.649 29.142 234.225 214.682 419.765 448.907 448.907zM65.695 512.675h381.63v381.631c-196.433-28.333-353.297-185.197-381.63-381.631z" />
<glyph unicode="&#xe936;" glyph-name="Circle-quartfull" d="M449.92 960c35.2 4.48 64-24.96 64-58.24v-449.28h449.28c35.84 0 64.64-30.72 60.16-65.92-31.36-253.44-247.68-449.92-510.080-449.92-283.52-0.64-513.28 229.12-513.28 515.2 0 259.84 196.48 476.16 449.92 508.16zM449.28 387.2v507.52c-217.6-31.36-385.28-218.88-385.28-442.88 0-250.24 201.6-451.2 449.28-451.2 226.56 0 414.080 167.68 444.8 387.201h-509.44l0.64-0.641z" />
<glyph unicode="&#xe937;" glyph-name="Clock-repeat" d="M511.983 704c17.28 0 32-14.080 32-32v-210.56l150.398-150.4c12.8-12.16 12.8-32.64 0-45.44-12.16-12.8-32.64-12.8-45.44 0l-159.998 160c-5.76 5.76-10.88 14.080-10.88 22.4v224c0 17.92 16 32 32 32h1.92zM992 480c-17.92 0-32-14.080-32-32 0-247.68-200.32-448-448-448-178.56 0-332.8 104.32-405.12 256h181.12c17.92 0 32 14.72 32 32s-14.080 32-32 32h-256c-17.92 0-32-14.080-32-32v-256c0-17.92 14.080-32 32-32s32 14.080 32 32v166.4c87.040-155.52 255.36-262.4 448-262.4 282.88 0 512 229.12 512 512 0 17.92-14.080 32-32 32zM992 896c-17.92 0-32-14.080-32-32v-166.4c-87.040 155.52-255.36 262.4-448 262.4-282.88 0-512-229.12-512-512 0-17.92 14.080-32 32-32s32 14.080 32 32c0 247.68 200.32 448 448 448 178.56 0 332.8-104.32 405.12-256h-181.12c-17.92 0-32-14.080-32-32s14.080-32 32-32h256c17.92 0 32 14.72 32 32v256c0 17.92-14.080 32-32 32z" />
<glyph unicode="&#xe938;" glyph-name="Clock" d="M480 736c0 17.6 14.4 32 32 32s32-14.4 32-32v-270.8l177.798-118.6c14.598-9.8 18.598-29.601 8.8-44.398-9.798-14.598-29.6-18.598-44.397-8.8l-192.001 127.999c-8.8 6-16 16-16 26.6l1.8 288zM512 960c282.797 0 512-229.2 512-512 0-282.797-229.203-512-512-512-282.8 0-512 229.203-512 512 0 282.8 229.2 512 512 512zM64 448c0-247.398 200.6-448 448-448 247.398 0 448 200.602 448 448 0 247.4-200.602 448-448 448-247.4 0-448-200.6-448-448z" />
<glyph unicode="&#xe939;" glyph-name="Column-view" horiz-adv-x="1280" d="M899.2 384c-86.4 0-160-71.68-160-160s73.6-160 160-160c86.4 0 161.92 71.68 161.92 160s-71.68 160-161.92 160zM899.2 128c-51.2 0-96 42.88-96 96s44.8 96 96 96c55.040 0 97.92-42.88 97.92-96s-42.88-96-97.92-96zM1274.24 248.32c-49.92 100.48-178.56 263.68-375.040 263.68s-321.28-163.2-371.2-263.68c-7.68-15.36-7.68-33.28 0-48.64 49.92-100.48 178.56-263.68 371.2-263.68s324.48 163.2 375.040 263.68c7.68 15.36 7.68 33.28 0 48.64zM899.2 0c-152.96 0-263.68 131.84-311.68 224 48 94.080 158.72 224 311.68 224s266.88-129.92 314.88-224c-48-92.16-158.72-224-314.88-224zM224 960h-96c-70.4 0-128-57.6-128-128v-96c0-17.92 14.080-32 32-32s32 14.080 32 32v96c0 35.2 28.8 64 64 64h96c17.92 0 32 14.080 32 32s-14.080 32-32 32zM224 128h-96c-35.2 0-64 28.8-64 64v96c0 17.92-14.080 32-32 32s-32-14.080-32-32v-96c0-70.4 57.6-128 128-128h96c17.92 0 32 14.080 32 32s-14.080 32-32 32zM32 384c17.92 0 32 14.080 32 32v192c0 17.92-14.080 32-32 32s-32-14.080-32-32v-192c0-17.92 14.080-32 32-32zM448 128v768h384v-326.4c20.48 3.2 41.6 5.76 64 5.76v320.64h256c35.2 0 64-28.8 64-64v-394.88c24.32-23.68 44.8-49.92 64-76.16v471.040c0 70.4-57.6 128-128 128h-800c-17.92 0-32-14.080-32-32s14.080-32 32-32h32v-768h-32c-17.92 0-32-14.080-32-32s14.080-32 32-32h188.16c-18.56 23.68-33.28 45.44-44.8 64h-47.36z" />
<glyph unicode="&#xe93a;" glyph-name="Config" d="M335.999 449.8c0 95.4 78.8 176 176 176s176.001-80.6 176.001-176c0-99-78.801-177.8-176.001-177.8s-176 78.8-176 177.8zM511.999 561.8c-61.8 0-112-52-112-112 0-63.599 50.2-112 112-112s112 48.401 112 112c0 60-50.2 112-112 112zM131.34 498.8l-80.66 73.6c-22.24 20.2-27.36 53.2-12.32 79.2l60.48 104.8c15.040 26.040 46.18 38.1 74.84 28.96l103.92-33.16c26.8 20.68 56.4 37.88 88 50.94l23.4 106.54c6.4 29.38 32.4 50.32 62.6 50.32h120.8c30.2 0 56.2-20.94 62.6-50.32l23.4-106.54c29.798-13.060 61.197-30.26 88-50.94l104 33.16c28.602 9.14 59.802-2.92 74.797-28.96l60.403-104.8c15.002-26 9.997-59-12.198-79.2l-80.8-73.6c2.195-16.6 3.398-33.6 3.398-49 0-19-1.203-36-3.398-52.6l80.8-73.6c22.195-20.202 27.2-53.2 12.198-79.197l-60.403-104.806c-14.995-25.997-46.195-37.997-74.797-28.998l-104 33.203c-26.803-20.602-58.202-37.805-88-51.002l-23.4-106.4c-6.4-29.402-32.4-50.4-62.6-50.4h-120.8c-30.2 0-56.2 20.998-62.6 50.4l-23.4 106.4c-31.6 13.197-61.2 30.4-88 51.002l-103.92-33.203c-28.66-8.998-59.8 3.002-74.84 28.998l-60.48 104.806c-15.040 25.997-9.92 58.995 12.32 79.197l80.66 73.6c-2.2 16.6-3.34 33.6-3.34 52.6 0 15.4 1.14 32.4 3.34 49zM316.799 701.6l-26.6-20.6-135.94 43.4-60.48-104.8 105.38-96-4.38-33.2c-1.84-13.8-2.78-28-2.78-40.6 0-16.2 0.94-30.4 2.78-44.2l4.38-33.2-105.38-95.997 60.48-104.806 135.94 43.405 26.6-20.602c22.2-17.197 47-31.603 73.2-40.602l31-14.598 30.6-139.2h120.8l30.6 139.2 29.2 14.598c27.999 8.998 52.799 23.405 75 40.602l26.598 20.602 136-43.405 60.403 104.806-105.402 95.997 4.397 33.2c1.805 13.8 2.803 28 2.803 42.4s-0.998 28.6-2.803 42.4l-4.397 33.2 105.402 96-60.403 104.8-136-43.4-26.598 20.6c-22.202 17.2-47.002 31.6-75 42.4l-29.2 12.8-30.6 139.2h-120.8l-30.6-139.2-31-12.8c-26.2-10.8-51-25.2-73.2-42.4z" />
<glyph unicode="&#xe93b;" glyph-name="Contract" d="M858.598 709.4l-212.998 213c-24.2 24.116-56.6 37.6-90.6 37.6h-299c-70.7 0-128-57.3-128-128l0.013-768c0-70.701 57.3-128 128-128h511.987c70.701 0 128 57.299 128 128v555c0 33.999-13.402 66.399-37.402 90.399zM576 891.84c8.954-3.132 17.332-7.692 24.24-14.598l213.002-213c6.957-6.842 11.558-15.242 14.56-24.242h-219.802c-17.6 0-32 14.4-32 32v219.84zM832 64c0-35.283-28.717-64-64-64h-512c-35.28 0-64 28.717-64 64v768c0 35.28 28.72 64 64 64h256v-224c0-53 43-96 96-96h224v-512zM288 768h128c17.6 0 32 14.32 32 32s-14.4 32-32 32h-128c-17.68 0-32-14.32-32-32s14.32-32 32-32zM288 640h128c17.6 0 32 14.4 32 32s-14.4 32-32 32h-128c-17.68 0-32-14.4-32-32s14.32-32 32-32zM489.2 233.203l-27.76 83.258c-6.44 19.74-24.64 32.94-45.44 32.94s-39-13.251-45.5-32.997l-36.5-109.203c-3-8.998-11.5-15.2-21.24-15.2h-24.76c-17.74 0-32-14.202-32-32s14.26-32 32-32h24.76c37.24 0 70.26 23.763 82.001 59.002l21.24 63.795 33.8-100.794c4-12.506 15-21.005 28-22.003h2.2c10.2 0 23.24 6.752 28.5 17.747l15.5 30.765c5.5 10.995 15.75 12.25 20 12.25s14.5-1.254 20.24-12.998c14.76-29.562 44.56-47.763 77.36-47.763h94.4c17.747 0 32 14.253 32 32s-14.202 32-32 32h-94.502c-8.248 0-16.248 4.998-20.237 12.998-23.66 47.802-92.46 60.8-132.060 28.205z" />
<glyph unicode="&#xe93c;" glyph-name="Copy" d="M544.020 128c-17.6 0-32-14.4-32-32v-32c0-35.341-28.66-64-64-64h-320c-35.34 0-64 28.659-64 64v512c0 35.34 28.66 64 64 64h224c17.6 0 32 14.4 32 32s-14.4 32-32 32h-224.020c-70.7 0-128-57.3-128-128l0.020-512c0-70.598 57.3-128 128-128h320c70.7 0 128 57.299 128 128v32c0 17.6-14.4 32-32 32zM1005.222 786.74l-154.502 154.5c-11.898 12.018-28.301 18.76-45.299 18.76h-229.401c-70.6 0-128-57.3-128-128v-512c0-70.701 57.3-128 128-128h319.999c70.701 0 128 57.299 128 128v421.4c0 17-6.797 33.34-18.797 45.34zM832.019 869.5l101.402-101.5h-101.402v101.5zM960.019 320c0-35.341-28.659-64-64-64h-319.999c-35.34 0-64 28.659-64 64v512c0 35.34 28.66 64 64 64h191.999l0.006-128c0-35.34 28.659-64 64-64h127.994v-384z" />
<glyph unicode="&#xe93d;" glyph-name="Credit-card" horiz-adv-x="1152" d="M192 224c0 17.6 14.4 32 32 32h128c17.6 0 32-14.4 32-32s-14.4-32-32-32h-128c-17.6 0-32 14.4-32 32zM448 224c0 17.6 14.4 32 32 32h256c17.6 0 32-14.4 32-32s-14.4-32-32-32h-256c-17.6 0-32 14.4-32 32zM0 768c0 70.7 57.3 128 128 128h896c70.598 0 128-57.3 128-128v-640c0-70.598-57.402-128-128-128h-896c-70.7 0-128 57.402-128 128v640zM64 768v-64h1024v64c0 35.34-28.602 64-64 64h-896c-35.34 0-64-28.66-64-64zM64 512h1024v128h-1024v-128zM64 448v-320c0-35.398 28.66-64 64-64h896c35.398 0 64 28.602 64 64v320h-1024z" />
<glyph unicode="&#xe93e;" glyph-name="Cross" d="M790.611 169.402c-12.467-12.461-32.858-12.461-45.325 0l-249.281 249.282-249.281-249.282c-12.527-12.525-32.812-12.538-45.338-0.013s-12.45 32.87 0.014 45.338l249.281 249.281-249.281 249.281c-12.526 12.527-12.535 32.789-0.014 45.31 12.478 12.478 32.817 12.534 45.338 0.014l249.281-249.281 249.281 249.281c12.525 12.526 32.781 12.512 45.312-0.014 12.525-12.527 12.531-32.789 0.013-45.31l-249.283-249.281 249.283-249.281c12.461-12.467 12.461-32.858 0-45.325z" />
<glyph unicode="&#xe93f;" glyph-name="Dark" d="M644.198 157.203l-9.375-0.755c-15.188-2.995-30.82-4.499-46.319-4.499-134 0-243 109.318-243 243.601 0 87.5 47.32 168.76 123.44 212.2 17.656 10.25 27.056 29.85 23.656 50.25-3.601 20.4-18.6 35.8-40.4 39.4-21.6 4.4-45.8 8.401-68.801 8.401-211.56 0-383.4-174.001-383.4-385.8 0-211.802 172.020-384 383.6-384 116.38 0 225.2 52.083 297.802 142.080 12.122 14.502 14.547 33.978 6.547 51.040-7.949 17.082-25.152 28.083-43.75 28.083zM383.6 0c-176.2 0-319.6 143.597-319.6 320 0 176.4 143.38 320 319.6 320 5.876 0 11.812-0.188 17.75-0.5-74.749-57.9-119.95-147.9-119.95-243.9 0-169.68 137.761-307.6 307-307.6 5.25 0 10.5 0.128 15.688 0.378-58.888-56.576-137.288-88.378-220.488-88.378zM992 544h-64v64c0 17.6-14.4 32-32 32s-32-14.312-32-32v-64h-64c-17.6 0-32-14.4-32-32s14.31-32 32-32h64v-64c0-17.6 14.4-32 32-32s32 14.312 32 32v64h64c17.6 0 32 14.4 32 32s-14.4 32-32 32zM864 768c0 17.688-14.31 32-32 32h-128v128c0 17.688-14.4 32-32 32s-32-14.312-32-32v-128h-128c-17.6 0-32-14.32-32-32s14.4-32 32-32h128v-128c0-17.6 14.4-32 32-32s32 14.4 32 32v128h128c17.6 0 32 14.4 32 32z" />
<glyph unicode="&#xe940;" glyph-name="Dashboard" horiz-adv-x="1280" d="M736 448h-128c-53.12 0-96-42.88-96-96v-192c0-53.12 42.88-96 96-96h128c53.12 0 96 42.88 96 96v192c0 53.12-42.88 96-96 96zM768 160c0-17.92-14.72-32-32-32h-128c-17.92 0-32 14.080-32 32v192c0 17.92 14.080 32 32 32h128c17.28 0 32-14.080 32-32v-192zM1056 832h-448c-53.12 0-96-42.88-96-96v-128c0-53.12 42.88-96 96-96h448c53.12 0 96 42.88 96 96v128c0 53.12-42.88 96-96 96zM1088 608c0-17.92-14.72-32-32-32h-448c-17.92 0-32 14.080-32 32v128c0 17.92 14.080 32 32 32h448c17.28 0 32-14.080 32-32v-128zM288 640h-128c-17.92 0-32-14.080-32-32s14.080-32 32-32h128c17.92 0 32 14.72 32 32s-14.080 32-32 32zM288 512h-128c-17.92 0-32-14.080-32-32s14.080-32 32-32h128c17.92 0 32 14.72 32 32s-14.080 32-32 32zM1152 960h-1024c-70.4 0-128-57.6-128-128v-768c0-70.4 57.6-128 128-128h1024c70.4 0 128 57.6 128 128v768c0 70.4-57.6 128-128 128zM384 0h-256c-35.2 0-64 28.8-64 64v768c0 35.2 28.8 64 64 64h256v-896zM1216 64c0-35.2-28.8-64-64-64h-704v896h704c35.2 0 64-28.8 64-64v-768zM160 704h128c17.92 0 32 14.72 32 32s-14.080 32-32 32h-128c-17.92 0-32-14.080-32-32s14.080-32 32-32z" />
<glyph unicode="&#xe941;" glyph-name="Details-info" horiz-adv-x="1152" d="M640 896h-512c-35.34 0-64-28.66-64-64v-768c0-35.398 28.66-64 64-64h464.4c17.8-23.603 42.2-44.602 66.998-62.598-6.195-0.8-12.8-1.402-19.398-1.402h-512c-70.7 0-128 57.402-128 128v768c0 70.7 57.3 128 128 128h512c70.598 0 128-57.3 128-128v-269.2c-22.4-6.4-43.802-14.8-64-25.2v294.4c0 35.34-28.602 64-64 64zM128 672c0 17.6 14.32 32 32 32h448c17.6 0 32-14.4 32-32s-14.4-32-32-32h-448c-17.68 0-32 14.4-32 32zM544 512c17.6 0 32-14.4 32-32s-14.4-32-32-32h-384c-17.68 0-32 14.4-32 32s14.32 32 32 32h384zM416 320c17.6 0 32-14.4 32-32s-14.4-32-32-32h-256c-17.68 0-32 14.4-32 32s14.32 32 32 32h256zM864 384c26.598 0 48-21.4 48-48 0-26.598-21.402-48-48-48s-48 21.402-48 48c0 26.6 21.402 48 48 48zM830.202 128v64c-15.802 1.798-30.202 14.4-30.202 32s14.4 32 32 32h30.202c19.398 0 32-14.4 32-32l1.798-96c17.6 0 32-14.4 32-32s-14.4-32-32-32h-64c-17.6 0-32 14.4-32 32s14.4 32 30.202 32zM864-64c-159.002 0-288 128.998-288 288 0 159 128.998 288 288 288s288-129 288-288c0-159.002-128.998-288-288-288zM1088 224c0 123.8-100.198 224-224 224s-224-100.2-224-224c0-123.802 100.198-224 224-224s224 100.198 224 224z" />
<glyph unicode="&#xe942;" glyph-name="Details-search" d="M127.972 224.045c0-17.683 14.413-32.102 32.102-32.102h448.123c17.69 0 32.103 14.419 32.103 32.102 0 17.69-14.413 32.102-32.103 32.102h-448.123c-17.689 0-32.102-14.413-32.102-32.102zM1014.611 310.528l-181.696 181.695c90.413 113.123 83.424 278.657-21.402 383.263-112.467 112.468-294.819 112.468-407.286 0s-112.468-294.817 0-407.285c104.824-104.824 270.358-111.812 383.26-21.402l181.696-181.698c6.336-6.33 14.413-9.389 22.714-9.389s16.378 3.059 22.714 9.389c12.448 12.448 12.448 32.762 0 45.21v0.218zM449.651 513.624c-87.571 87.572-87.571 229.302 0 316.874s229.306 87.572 316.877 0c87.571-87.572 87.571-229.302 0-316.874s-229.305-87.572-316.877 0zM704.070 63.974c0-35.379-28.608-63.987-63.987-63.987h-512.111c-35.378 0-63.986 28.608-63.986 63.987v768.053c0 35.378 28.608 63.986 63.986 63.986h208.556c6.989 8.517 14.413 16.816 22.493 24.896 14.632 14.632 30.356 27.516 46.953 39.091h-278.003c-70.756 0-127.972-57.435-127.972-127.972v-768.053c0-70.758 57.216-127.974 127.972-127.974h512.111c70.534 0 127.974 57.216 127.974 127.974v294.598c-20.531-10.483-41.933-18.781-63.987-25.114v-269.484zM160.075 640.068c-17.689 0-32.102-14.413-32.102-32.102s14.413-32.102 32.102-32.102h109.629c-5.896 20.964-10.045 42.366-12.011 63.986h-97.618v0.219zM336.529 447.891h-176.454c-17.689 0-32.102-14.413-32.102-32.102s14.413-32.102 32.102-32.102h246.118c-16.597 11.574-32.321 24.458-46.952 39.091-8.081 8.080-15.505 16.378-22.493 24.895l-0.219 0.218z" />
<glyph unicode="&#xe943;" glyph-name="Document-add" horiz-adv-x="1152" d="M739.84 700.16l-231.68 231.68c-17.92 17.92-42.88 28.16-67.84 28.16h-312.32c-70.4 0-128-57.6-128-128v-768c0-70.4 57.6-128 128-128h512c6.4 0 13.44 0 19.2 1.28-24.96 17.92-49.28 39.040-67.2 62.72h-464c-35.2 0-64 28.8-64 64v768c0 35.2 28.8 64 64 64h256v-224c0-53.12 42.88-96 96-96h224v-38.4c20.48 10.24 41.6 18.56 64 24.96v69.12c0 25.6-10.24 49.92-28.16 67.84v0.64zM480 640c-17.92 0-32 14.72-32 32v222.72c5.76-1.28 10.88-4.48 14.72-8.32l231.68-231.68c4.48-3.84 7.040-8.96 8.32-14.72h-222.72zM960 256h-64v96c0 17.28-14.72 32-32 32s-32-14.72-32-32v-128c0-17.92 14.080-32 32-32h96c17.92 0 32 14.080 32 32s-14.72 32-32 32zM576 224c0 159.36 128.64 288 288 288s288-128.64 288-288c0-159.36-128.64-288-288-288s-288 128.64-288 288zM640 224c0-123.52 100.48-224 224-224s224 100.48 224 224c0 123.52-100.48 224-224 224s-224-100.48-224-224z" />
<glyph unicode="&#xe944;" glyph-name="Document-done" d="M858.598 709.4l-212.998 213c-24.2 24.116-56.6 37.6-90.6 37.6h-299c-70.7 0-128-57.3-128-128l0.013-768c0-70.701 57.3-128 128-128h511.987c70.701 0 128 57.299 128 128v555c0 33.999-13.402 66.399-37.402 90.399zM576 891.84c8.954-3.132 17.332-7.692 24.24-14.598l213.002-213c6.957-6.842 11.558-15.242 14.56-24.242h-219.802c-17.6 0-32 14.4-32 32v219.84zM832 64c0-35.283-28.717-64-64-64h-512c-35.28 0-64 28.717-64 64v768c0 35.28 28.72 64 64 64h256v-224c0-53 43-96 96-96h224v-512zM374.6 321.2c-12.5 12.5-32.76 12.5-45.24 0-12.48-12.502-12.5-32.758 0-45.238l106.68-106.662c6.36-6.099 14.56-9.299 22.56-9.299s16.376 3.123 22.62 9.376l213.398 213.4c12.499 12.5 12.499 32.76 0 45.24s-32.755 12.5-45.235 0l-190.682-190.717-84.1 83.901z" />
<glyph unicode="&#xe945;" glyph-name="Document-edit" horiz-adv-x="1152" d="M128 0h389l-2.2-8.403c-4.6-18.797-3.4-37.997 2.8-55.597h-389.6c-70.7 0-128 57.402-128 128v768c0 70.7 57.3 128 128 128h312.2c25.4 0 50-10.114 68-28.12l231.601-231.68c17.997-18 28.198-42.6 28.198-68v-271.4l-64-64v279.2h-224c-53 0-96 43-96 96v224h-256c-35.34 0-64-28.66-64-64v-768c0-35.398 28.66-64 64-64zM694.598 654.8l-231.798 231.82c-4 4.14-9.2 7.020-14.8 8.42v-223.040c0-17.6 14.4-32 32-32h223.002c-1.402 5.6-4.205 10.8-8.403 14.8zM946.598 477.2c37.6 37.6 98.202 37.6 135.802 0l34.598-34.6c37.402-37.4 37.402-98.2 0-135.598l-308.8-307.2c-10.598-12.205-25.997-21.005-42.797-25.203l-149.602-37.395c-11-2.803-22.6 0.397-30.399 8.397-8 8-11.2 19.603-8.401 32.198l37.4 147.802c4.2 16.8 12.8 32.403 25.2 44.602l306.998 306.998zM1037.197 433.8c-12.595 10.8-32.8 10.8-45.395 0l-49.402-51.4 79.802-79.802 49.6 49.602c12.397 12.4 12.397 32.799 0 45.2l-34.605 36.399zM676.403 111.802l-26.202-99.603 99.597 24.602c5.6 1.402 10.803 4.198 14.803 8.403l212.397 212.198-80 79.798-212.198-212.202c-4-4.198-7.002-9.197-8.397-13.197z" />
<glyph unicode="&#xe946;" glyph-name="Document-export" horiz-adv-x="1152" d="M1142.598 342.6l-192 192.001c-12.499 12.5-32.762 12.5-45.242 0-12.474-12.5-12.499-32.76 0-45.24l137.446-137.36h-626.803c-17.6 0-32-14.4-32-32s14.312-32 32-32h626.803l-137.382-137.382c-12.499-12.499-12.499-32.755 0-45.235 6.176-6.182 14.381-9.382 22.579-9.382s16.378 3.123 22.618 9.376l192 192c12.582 12.422 12.582 32.824-0.019 45.224zM736 192c-17.67 0-32-14.33-32-32v-96c0-35.341-28.659-64-64-64h-512c-35.34 0-64 28.659-64 64v768c0 35.34 28.66 64 64 64h256v-224c0-53 43-96 96-96h224v-96c0-17.6 14.4-32 32-32s32 14.4 32 32v139c0 33.94-13.485 66.52-37.498 90.52l-213.102 213c-24 23.996-56.401 37.48-90.4 37.48h-300.801c-68.9 0-126.2-57.3-126.2-128l0.013-768c0-70.701 57.32-128 128-128h511.987c70.701 0 128 57.299 128 128v96c0 17.6-14.4 32-32 32zM448 891.84c8.954-3.132 17.332-7.692 24.24-14.598l213.002-213c6.957-6.842 11.558-15.242 14.56-24.242h-219.802c-17.6 0-32 14.4-32 32v219.84z" />
<glyph unicode="&#xe947;" glyph-name="Document-table" d="M858.598 709.4l-212.998 213c-24.2 24.116-56.6 37.6-90.6 37.6h-299c-70.7 0-128-57.3-128-128l0.013-768c0-70.701 57.3-128 128-128h511.987c70.701 0 128 57.299 128 128v555c0 33.999-13.402 66.399-37.402 90.399zM576 891.84c8.954-3.132 17.332-7.692 24.24-14.598l213.002-213c6.957-6.842 11.558-15.242 14.56-24.242h-219.802c-17.6 0-32 14.4-32 32v219.84zM832 64c0-35.283-28.717-64-64-64h-512c-35.28 0-64 28.717-64 64v768c0 35.28 28.72 64 64 64h256v-224c0-53 43-96 96-96h224v-512zM256 448v-320c0-35.341 28.66-64 64-64h384c35.341 0 64 28.659 64 64v320c0 35.34-28.659 64-64 64h-384c-35.34 0-64-28.6-64-64zM384 128h-64v64h64v-64zM384 256h-64v64h64v-64zM576 128h-128v64h128v-64zM576 256h-128v64h128v-64zM704 128h-64v64h64v-64zM704 256h-64v64h64v-64zM704 384h-384v64h384v-64z" />
<glyph unicode="&#xe948;" glyph-name="Done-sm" d="M470.6 297.402c-12.4-12.602-32.8-12.602-45.2 0l-128 127.999c-12.6 12.4-12.6 32.8 0 45.2 12.4 12.6 32.8 12.6 45.2 0l105.4-105.4 233.402 233.4c12.397 12.6 32.8 12.6 45.197 0 12.602-12.4 12.602-32.8 0-45.2l-255.998-255.999z" />
<glyph unicode="&#xe949;" glyph-name="Done" d="M470.6 297.402c-12.4-12.602-32.801-12.602-45.201 0l-128 127.999c-12.6 12.4-12.6 32.8 0 45.2 12.4 12.6 32.801 12.6 45.201 0l105.4-105.4 233.402 233.4c12.397 12.6 32.8 12.6 45.197 0 12.602-12.4 12.602-32.801 0-45.201l-255.998-255.998zM1024 448c0-282.797-229.203-512-512-512-282.8 0-512 229.203-512 512 0 282.8 229.2 512 512 512 282.797 0 512-229.2 512-512zM512 896c-247.4 0-448-200.6-448-448 0-247.398 200.6-448 448-448 247.398 0 448 200.602 448 448 0 247.4-200.602 448-448 448z" />
<glyph unicode="&#xe94a;" glyph-name="Download" d="M896 288v-192c0-53.12-42.88-96-96-96h-576c-53.12 0-96 42.88-96 96v192c0 17.92-14.080 32-32 32s-32-14.080-32-32v-192c0-88.32 71.68-160 160-160h576c88.32 0 160 71.68 160 160v192c0 17.92-14.72 32-32 32s-32-14.080-32-32zM535.68 265.6l288 288c12.8 12.8 12.8 32.64 0 45.44s-32.64 12.8-45.44 0l-233.6-233.6v562.56c0 17.92-14.079 32-32 32s-32-14.080-32-32v-562.56l-233.6 233.6c-12.799 12.8-32.64 12.8-45.44 0s-12.799-32.64 0-45.44l288-288c6.4-6.4 14.72-9.6 22.4-9.6s16.64 3.2 22.4 9.6h1.28z" />
<glyph unicode="&#xe94b;" glyph-name="Draft" horiz-adv-x="1152" d="M1121.798 688l-49.798 49.8c-40.499 40.5-105.997 40.5-146.502 0l-318.497-317.4c-60.2-60-94.8-142.998-95-227.997-7.76 0.499-15 4.774-18.76 12.518-23.76 47.757-92.5 60.755-132 28.237l-27.759 83.264c-6.48 19.778-24.7 32.978-45.48 32.978s-39-13.24-45.5-32.997l-36.5-109.203c-3-9.197-11.5-15.2-21.24-15.2h-24.76c-17.74 0-32-14.202-32-32s14.26-32 32-32h24.8c37.24 0 70.2 23.763 81.96 59.002l21.24 63.795 33.6-100.794c9.2-27.206 46.4-29.805 59-4.205l15.5 30.758c8 16 31.38 17.005 40.38-0.755 14.32-29.024 43.32-47.219 75.52-47.603l64-0.198c133.677 0 224.198 92.602 228.198 95.002l317.6 318.598c19.405 19.4 30.202 45.6 30.202 73.2s-10.797 53.6-30.202 73.2zM759.002 268c-48.403-48.602-114.202-75.802-183.002-75.802 0 68.762 27.5 134.642 74.202 182.882l241.197 239.8 105.504-105.5-237.901-241.38zM1076.602 586.8l-42.605-42.4-105.395 105.6 42.24 42.5c15.501 15.24 40.499 15.5 56 0l49.76-49.76c15.2-15.54 15.2-40.54 0-55.94zM728.8 64c-13.261 0-26.202-7.603-30.4-20.198-10.202-25.402-32.403-43.802-62.2-43.802h-510.4c-35.24 0-63.78 28.659-63.78 64v768c0 35.34 28.56 64 63.78 64h255.199v-224c0-53.020 42.84-96 95.68-96h128.14c17.3 0 31.32 14.080 31.32 31.44v1.16c0.060 17.4-12.34 31.4-29.54 31.4h-128.2c-17.6 0-31.8 14.4-31.8 32v219.84c8.92-3.14 17.28-7.7 24.16-14.6l179.697-180.28c12.243-12.28 32.083-12.28 44.301 0l0.64 0.84c12.243 12.28 12.243 32.18 0 44.46l-179.599 180.24c-24 24.020-56.4 37.5-90.2 37.5h-297.74c-70.46 0-127.86-57.3-127.86-128v-768c0-70.701 57.42-128 127.88-128h510.001c56.398 0 104.238 36.717 121.102 87.597 6.618 20-9.184 40.403-30.182 40.403z" />
<glyph unicode="&#xe94c;" glyph-name="Drag" d="M640 192c35.341 0 64-28.602 64-64s-28.659-64-64-64c-35.34 0-64 28.602-64 64s28.66 64 64 64zM640 512c35.341 0 64-28.6 64-64s-28.659-64-64-64c-35.34 0-64 28.6-64 64s28.66 64 64 64zM640 704c-35.34 0-64 28.6-64 64 0 35.34 28.66 64 64 64s64-28.66 64-64c0-35.4-28.659-64-64-64zM384 192c35.34 0 64-28.602 64-64s-28.66-64-64-64c-35.34 0-64 28.602-64 64s28.66 64 64 64zM384 512c35.34 0 64-28.6 64-64s-28.66-64-64-64c-35.34 0-64 28.6-64 64s28.66 64 64 64zM384 704c-35.34 0-64 28.6-64 64 0 35.34 28.66 64 64 64s64-28.66 64-64c0-35.4-28.66-64-64-64z" />
<glyph unicode="&#xe94d;" glyph-name="Droplet" d="M512 0c-176.8 0-320 143.2-320 320 0 32.4 12.2 78.4 36.6 135 23.8 55.2 57 115 93.201 173.6 71.8 116 152.799 221.8 189 267.4h2.6c36.2-45.8 117.201-151.4 189-267.4 36.198-58.4 69.197-118.2 93.197-173.6 24.205-56.6 36.403-102.6 36.403-135 0-176.8-143.2-320-320-320zM128 320c0-212 172-384 384-384s384 172 384 384c0 182.4-260.4 524.6-333.2 616.6-12 15-29.8 23.4-49 23.4h-3.599c-19.2 0-37-8.4-49-23.4-72.8-92-333.2-434.2-333.2-616.6z" />
<glyph unicode="&#xe94e;" glyph-name="Edit" d="M779.309 922.221c50.387 50.372 132.205 50.372 182.586 0l24.384-24.405c50.387-50.382 50.387-132.122 0-182.504l-444.166-443.971c-16.928-17.126-38.492-27.206-62.070-34.458l-182.585-42.118c-10.883-2.419-22.168 0.806-30.028 8.666s-11.084 19.142-8.666 30.029l42.12 182.582c5.441 23.579 17.331 45.142 34.461 63.884l443.965 442.295zM916.147 876.615c-25.19 25.191-65.901 25.191-91.091 0l-54.010-53.889 115.68-115.677 53.811 54.010c25.19 25.13 25.19 65.96 0 91.151l-24.39 24.405zM363.759 401.532l-30.632-132.405 130.591 30.63c13.502 2.624 24.385 8.666 32.849 18.944l344.611 342.803-115.674 115.617-344.615-344.554c-8.464-8.464-14.51-19.347-17.13-31.035zM419.18 838.849c17.734 0 32.244-14.429 32.244-32.244s-14.51-32.245-32.244-32.245h-257.956c-53.425 0-96.734-43.329-96.734-96.733v-580.403c0-53.402 43.309-96.736 96.734-96.736h580.403c53.408 0 96.736 43.334 96.736 96.736v257.957c0 17.734 14.509 32.244 32.243 32.244s32.243-14.51 32.243-32.244v-257.957c0-89.075-72.147-161.222-161.222-161.222h-580.403c-89.036 0-161.223 72.147-161.223 161.222v580.403c0 89.036 72.188 161.223 161.223 161.223h257.956z" />
<glyph unicode="&#xe94f;" glyph-name="EllipsisV-circled" d="M464.125 448c0 26.6 21.4 48 48 48s48-21.4 48-48c0-26.6-21.4-48-48-48s-48 21.4-48 48zM560.125 640c0-26.6-21.4-48-48-48s-48 21.4-48 48c0 26.6 21.4 48 48 48s48-21.4 48-48zM464.125 256c0 26.598 21.4 48 48 48s48-21.402 48-48c0-26.598-21.4-48-48-48s-48 21.402-48 48zM1024.128 448c0-282.797-229.203-512-512.003-512s-512 229.203-512 512c0 282.8 229.2 512 512 512s512.003-229.2 512.003-512zM512.125 896c-247.4 0-448-200.6-448-448 0-247.398 200.6-448 448-448 247.402 0 448.003 200.602 448.003 448 0 247.4-200.602 448-448.003 448z" />
<glyph unicode="&#xe950;" glyph-name="EllipsisV" d="M512 192c35.34 0 64-28.602 64-64s-28.66-64-64-64c-35.34 0-64 28.602-64 64s28.66 64 64 64zM512 512c35.34 0 64-28.6 64-64s-28.66-64-64-64c-35.34 0-64 28.6-64 64s28.66 64 64 64zM512 704c-35.34 0-64 28.6-64 64 0 35.34 28.66 64 64 64s64-28.66 64-64c0-35.4-28.66-64-64-64z" />
<glyph unicode="&#xe951;" glyph-name="Engine" horiz-adv-x="1280" d="M432 448c0-26.6-21.4-48-48-48s-48 21.4-48 48c0 26.6 21.4 48 48 48s48-21.4 48-48zM528 448c0 26.6 21.4 48 48 48s48-21.4 48-48c0-26.6-21.4-48-48-48s-48 21.4-48 48zM816 448c0-26.6-21.402-48-48-48s-48 21.4-48 48c0 26.6 21.402 48 48 48s48-21.4 48-48zM832 800c0-17.68-14.4-32-32-32h-160v-64h153.203c25.395 0 49.997-7.4 70.995-21.4l102.803-68.6c35.597-23.8 56.998-63.8 56.998-106.6v-315.4c0-70.598-57.402-128-128-128h-386.4c-39 0-75.8 17.6-100 49.798l-64 78.202h-57.6c-53 0-96 43.002-96 96v128h-128v-160c0-17.6-14.32-32-32-32-17.672 0-32 14.4-32 32v384c0 17.6 14.328 32 32 32 17.68 0 32-14.4 32-32v-160h128v128c0 53 43 96 96 96h288v64h-160c-17.6 0-32 14.32-32 32s14.4 32 32 32h384c17.6 0 32-14.32 32-32zM288 640c-17.6 0-32-14.4-32-32v-320c0-17.6 14.4-32 32-32h88.4l83.2-102.202c12-16.998 30.4-25.798 50-25.798h386.4c35.398 0 64 28.602 64 64v315.4c0 21.4-10.598 41.4-28.403 53.4l-102.797 68.4c-10.598 7-23.002 10.8-35.597 10.8h-505.203zM1088 512c0 35.4 28.602 64 64 64h64c35.398 0 64-28.6 64-64v-384c0-35.398-28.602-64-64-64h-64c-35.398 0-64 28.602-64 64v384zM1152 128h64v384h-64v-384z" />
<glyph unicode="&#xe952;" glyph-name="Filter-undo" horiz-adv-x="1152" d="M944.998 959.999c43.603 0 79.002-35.399 79.002-79.059 0-18.4-6.4-36.22-18.202-50.4l-213.197-257.54c-11.2-13.6-31.405-15.6-45.005-4.399-15.398 11.4-15.597 31.599-4.198 45.199l213.203 257.54c2.195 2.7 3.398 6.1 3.398 9.6 0 8.32-6.797 15.060-15.002 15.060h-869.759c-6.22 0-11.24-5.040-11.24-11.24 0-2.58 0.9-5.1 2.54-7.1l374.26-457.46c4.6-5.6 7.2-12.8 7.2-20.2v-176l51.2-38.4c14.2-10.598 17-30.598 6.4-44.8s-30.6-16.998-44.8-6.4l-64 48c-8 6.003-12.8 15.603-12.8 25.6v180.6l-366.994 448.52c-10.998 13.44-17.006 30.28-17.006 47.64 0 41.56 33.68 75.24 75.24 75.24l869.759-0.001zM909.203 224l73.395-73.402c12.602-12.397 12.602-32.8 0-45.197-12.397-12.602-32.8-12.602-45.197 0l-73.402 73.395-73.402-73.395c-12.397-12.602-32.8-12.602-45.197 0-12.602 12.397-12.602 32.8 0 45.197l73.395 73.402-73.395 73.402c-12.602 12.397-12.602 32.798 0 45.198 12.397 12.6 32.8 12.6 45.197 0l73.402-73.396 73.402 73.396c12.397 12.6 32.8 12.6 45.197 0 12.602-12.4 12.602-32.801 0-45.198l-73.395-73.402zM1152 224c0-159.002-128.998-288-288-288s-288 128.998-288 288c0 159 128.998 288 288 288s288-129 288-288zM864 448c-123.802 0-224-100.2-224-224 0-123.802 100.198-224 224-224s224 100.198 224 224c0 123.8-100.198 224-224 224z" />
<glyph unicode="&#xe953;" glyph-name="Filter" d="M0 816.94c0 43.66 35.4 79.060 79.060 79.060h865.939c43.603 0 79.002-35.4 79.002-79.060 0-18.4-6.4-36.22-18.202-50.4l-365.798-442.14v-256.598c0-37.402-30.4-67.802-67.8-67.802-15 0-29.601 4.998-41.601 14.202l-121.8 95.002c-15.6 12-24.8 30.598-24.8 50.394v164.803l-365.848 442.14c-11.732 14.18-18.152 32-18.152 50.4zM79.060 832c-8.32 0-15.060-6.74-15.060-15.060 0-3.5 1.22-6.9 3.46-9.6l373.14-450.94c4.799-5.8 7.4-13 7.4-20.4v-176.403l120.2-94.797c2.4-0.602 3.2-0.8 4-0.8 2.2 0 3.8 1.6 3.8 3.802v268.198c0 7.4 2.6 14.6 7.4 20.4l373.201 450.94c2.195 2.7 3.398 6.1 3.398 9.6 0 8.32-6.797 15.060-15.002 15.060h-865.939z" />
<glyph unicode="&#xe954;" glyph-name="Fine-add" horiz-adv-x="1205" d="M1054.118 296.809h-90.353v90.352c0 15.059-13.252 30.118-30.118 30.118s-30.118-15.059-30.118-30.118v-90.352h-90.353c-16.866 0-30.118-15.059-30.118-30.118 0-18.071 13.252-30.118 30.118-30.118h90.353v-90.353c0-18.071 13.252-30.118 30.118-30.118s30.118 12.047 30.118 30.118v90.353h90.353c16.866 0 30.118 12.047 30.118 30.118 0 15.059-13.252 30.118-30.118 30.118zM933.647 537.749c-149.384 0-271.059-121.675-271.059-271.058s121.675-271.059 271.059-271.059 271.059 121.675 271.059 271.059c0 149.382-121.675 271.058-271.059 271.058zM933.647 55.868c-116.254 0-210.824 94.569-210.824 210.824 0 116.253 94.569 210.822 210.824 210.822s210.824-94.569 210.824-210.822c0-116.254-94.569-210.824-210.824-210.824zM592.113 155.256c-12.047 9.035-30.118 8.433-40.96-3.012l-84.329-84.329-84.329 84.329c-11.445 12.047-30.72 12.047-42.767 0l-84.329-84.329-84.329 84.329c-11.445 11.445-28.913 12.047-40.96 3.012l-70.475-63.247v771.011l70.475-61.44c12.047-10.24 30.118-9.638 40.96 1.205l84.329 84.329 84.329-84.329c11.445-12.047 30.72-12.047 42.767 0l84.329 84.329 84.329-84.329c10.842-11.445 28.913-12.047 40.96-1.205l70.475 61.44v-405.986c16.866 24.094 37.346 46.381 60.235 65.656v406.589c0 12.047-7.228 22.287-17.468 27.708s-23.492 3.012-31.925-4.819l-99.388-86.739-85.534 85.534c-11.445 12.047-30.72 12.047-42.767 0l-84.329-84.33-84.329 83.727c-11.445 12.047-30.72 12.047-42.767 0l-85.534-85.534-98.786 87.341c-9.035 7.228-21.685 9.638-32.527 4.819s-17.468-15.661-17.468-27.708v-903.529c0-12.047 6.626-21.082 17.468-27.708 10.842-4.819 23.492-3.012 32.527 4.819l99.388 86.739 85.534-85.534c11.445-12.047 30.72-12.047 42.767 0l84.329 84.329 84.329-84.329c11.445-12.047 30.72-12.047 42.767 0l85.534 85.534 99.388-86.739c9.035-7.831 21.685-9.638 31.925-4.819 6.626 4.216 11.445 9.638 14.456 16.264-31.925 27.106-58.428 60.235-78.306 96.979l-48.791 43.972h-1.205zM542.118 509.439h-361.412c-16.866 0-30.118-15.059-30.118-30.118 0-18.070 13.252-30.118 30.118-30.118h361.412c16.264 0 30.118 12.048 30.118 30.118 0 15.059-13.854 30.118-30.118 30.118zM542.118 690.145h-361.412c-16.866 0-30.118-15.059-30.118-30.118 0-18.071 13.252-30.118 30.118-30.118h361.412c16.264 0 30.118 12.047 30.118 30.118 0 15.059-13.854 30.118-30.118 30.118zM542.118 326.927h-361.412c-16.866 0-30.118-13.854-30.118-30.118s13.252-30.118 30.118-30.118h361.412c16.264 0 30.118 13.854 30.118 30.118s-13.854 30.118-30.118 30.118z" />
<glyph unicode="&#xe955;" glyph-name="Fine" d="M704 673.8c17.6 0 32-16.2 32-32 0-19.4-14.4-32-32-32h-384c-17.68 0-32 12.6-32 32 0 15.8 14.32 32 32 32h384zM288 256c0 17.6 14.32 32 32 32h384c17.6 0 32-14.4 32-32s-14.4-32-32-32h-384c-17.68 0-32 14.4-32 32zM704 481.8c17.6 0 32-16.2 32-32 0-19.4-14.4-32.001-32-32.001h-384c-17.68 0-32 12.6-32 32.001 0 15.8 14.32 32 32 32h384zM286.54 859.8l90.86 90.826c12.4 12.498 32.801 12.498 45.201 0l89.4-89.366 89.4 89.366c12.4 12.498 32.8 12.498 45.199 0l90.803-90.826 105.6 92.282c9.402 8.268 22.797 10.246 34.202 5.058 11.398-5.188 18.797-16.584 18.797-29.14v-960c0-12.602-7.398-22.202-18.797-29.203-11.405-5.197-24.8-3.2-34.202 5.203l-105.6 92.198-90.803-90.797c-12.399-12.602-32.799-12.602-45.199 0l-89.4 89.395-89.4-89.395c-12.4-12.602-32.801-12.602-45.201 0l-90.86 90.797-105.46-92.198c-9.46-8.403-22.86-10.4-34.305-5.203-11.434 7.002-18.776 16.602-18.776 29.203v960c0 12.556 7.344 23.952 18.776 29.14 11.444 5.188 24.844 3.21 34.305-5.058l105.46-92.282zM266.92 105.798c12.68 9.402 31.8 8.8 43.7-3.2l89.38-89.395 89.4 89.395c12.4 12.602 32.801 12.602 45.201 0l89.4-89.395 89.402 89.395c11.802 12 31.002 12.602 43.597 3.2l75.002-67.2v818.882l-75.002-65.56c-12.595-11.1-31.795-10.46-43.597 1.46l-89.402 89.36-89.4-89.36c-12.4-12.5-32.801-12.5-45.201 0l-89.4 89.36-89.38-89.36c-11.9-11.92-31.020-12.56-43.7-1.46l-74.92 65.56v-818.882l74.92 67.2z" />
<glyph unicode="&#xe956;" glyph-name="Fleet-availability" horiz-adv-x="1280" d="M608 160c26.509 0 48 21.491 48 48s-21.491 48-48 48c-26.509 0-48-21.491-48-48s21.491-48 48-48zM160 160c26.509 0 48 21.491 48 48s-21.491 48-48 48c-26.509 0-48-21.491-48-48s21.491-48 48-48zM686.080 363.52l-43.52 151.68c-15.36 55.040-65.92 92.8-122.88 92.8h-271.36c-56.96 0-107.52-37.76-122.88-92.8l-41.6-151.68c-50.56-27.52-83.84-78.080-83.84-139.52v-256c0-17.28 14.080-32 32-32s32 14.72 32 32v64h641.92v-64c0-17.28 12.8-32 32-32 16 0 32 14.72 32 32v256c0 62.080-35.2 112.64-83.84 139.52zM186.88 497.92c7.68 27.52 33.28 46.080 61.44 46.080h271.36c28.8 0 53.76-19.2 61.44-46.080l32.64-113.92h-459.52l32.64 113.92zM704 96h-640v128c0 53.12 42.88 96 96 96h448c53.12 0 96-42.88 96-96v-128zM1216 896h-320v32c0 17.92-14.080 32-32 32s-32-14.080-32-32v-960c0-17.28 14.080-32 32-32s32 14.72 32 32v544h320c35.2 0 64 28.8 64 64v256c0 35.2-28.8 64-64 64zM1216 576h-320v256h320v-256z" />
<glyph unicode="&#xe957;" glyph-name="Fleet-dates" horiz-adv-x="1280" d="M1184 896h-32v32c0 17.92-14.080 32-32 32s-32-14.080-32-32v-32h-128v32c0 17.92-14.080 32-32 32s-32-14.080-32-32v-32h-32c-11.52 0-21.76-2.56-32-5.76-37.12-13.44-64-48.64-64-90.24v-320c0-53.12 42.88-96 96-96h320c53.12 0 96 42.88 96 96v320c0 53.12-42.88 96-96 96zM1216 480c0-17.28-14.080-32-32-32h-320c-17.92 0-32 14.72-32 32v224h384v-224zM1216 768h-384v32c0 17.92 14.080 32 32 32h320c17.92 0 32-14.080 32-32v-32zM608 160c26.509 0 48 21.491 48 48s-21.491 48-48 48c-26.509 0-48-21.491-48-48s21.491-48 48-48zM160 160c26.509 0 48 21.491 48 48s-21.491 48-48 48c-26.509 0-48-21.491-48-48s21.491-48 48-48zM686.080 363.52l-43.52 151.68c-15.36 55.040-65.92 92.8-122.88 92.8h-271.36c-56.96 0-107.52-37.76-122.88-92.8l-41.6-151.68c-50.56-27.52-83.84-78.080-83.84-139.52v-256c0-17.28 14.080-32 32-32s32 14.72 32 32v64h641.92v-64c0-17.28 12.8-32 32-32 16 0 32 14.72 32 32v256c0 62.080-35.2 112.64-83.84 139.52zM186.88 497.92c7.68 27.52 33.28 46.080 61.44 46.080h271.36c28.8 0 53.76-19.2 61.44-46.080l32.64-113.92h-459.52l32.64 113.92zM704 96h-640v128c0 53.12 42.88 96 96 96h448c53.12 0 96-42.88 96-96v-128z" />
<glyph unicode="&#xe958;" glyph-name="Fleet-info" horiz-adv-x="1280" d="M608 160c26.509 0 48 21.491 48 48s-21.491 48-48 48c-26.509 0-48-21.491-48-48s21.491-48 48-48zM160 160c26.509 0 48 21.491 48 48s-21.491 48-48 48c-26.509 0-48-21.491-48-48s21.491-48 48-48zM686.080 363.52l-43.52 151.68c-15.36 55.040-65.92 92.8-122.88 92.8h-271.36c-56.96 0-107.52-37.76-122.88-92.8l-41.6-151.68c-50.56-27.52-83.84-78.080-83.84-139.52v-256c0-17.28 14.080-32 32-32s32 14.72 32 32v64h641.92v-64c0-17.28 12.8-32 32-32 16 0 32 14.72 32 32v256c0 62.080-35.2 112.64-83.84 139.52zM186.88 497.92c7.68 27.52 33.28 46.080 61.44 46.080h271.36c28.8 0 53.76-19.2 61.44-46.080l32.64-113.92h-459.52l32.64 113.92zM704 96h-640v128c0 53.12 42.88 96 96 96h448c53.12 0 96-42.88 96-96v-128zM992 736c26.509 0 48 21.491 48 48s-21.491 48-48 48c-26.509 0-48-21.491-48-48s21.491-48 48-48zM1024 576l-1.92 96c0 17.92-12.8 32-32 32h-30.080c-17.92 0-32-14.080-32-32s14.080-30.080 30.080-32v-64c-16 0-30.080-14.080-30.080-32s14.080-32 32-32h64c17.92 0 32 14.72 32 32s-14.080 32-32 32zM992 960c-158.72 0-288-129.28-288-288s129.28-288 288-288c158.72 0 288 129.28 288 288s-129.28 288-288 288zM992 448c-123.52 0-224 100.48-224 224s100.48 224 224 224c123.52 0 224-100.48 224-224s-100.48-224-224-224z" />
<glyph unicode="&#xe959;" glyph-name="Fleet-new" horiz-adv-x="1280" d="M1120 704h-96v96c0 16-14.080 32-32 32s-32-16-32-32v-96h-96c-17.92 0-32-16-32-32 0-19.2 14.080-32 32-32h96v-96c0-19.2 14.080-32 32-32s32 12.8 32 32v96h96c17.92 0 32 12.8 32 32 0 16-14.080 32-32 32zM992 960c-158.72 0-288-129.28-288-288s129.28-288 288-288c158.72 0 288 129.28 288 288s-129.28 288-288 288zM992 448c-123.52 0-224 100.48-224 224s100.48 224 224 224c123.52 0 224-100.48 224-224s-100.48-224-224-224zM608 160c26.509 0 48 21.491 48 48s-21.491 48-48 48c-26.509 0-48-21.491-48-48s21.491-48 48-48zM160 160c26.509 0 48 21.491 48 48s-21.491 48-48 48c-26.509 0-48-21.491-48-48s21.491-48 48-48zM686.080 363.52l-43.52 151.68c-15.36 55.040-65.92 92.8-122.88 92.8h-271.36c-56.96 0-107.52-37.76-122.88-92.8l-41.6-151.68c-50.56-27.52-83.84-78.080-83.84-139.52v-256c0-17.28 14.080-32 32-32s32 14.72 32 32v64h641.92v-64c0-17.28 12.8-32 32-32 16 0 32 14.72 32 32v256c0 62.080-35.2 112.64-83.84 139.52zM186.88 497.92c7.68 27.52 33.28 46.080 61.44 46.080h271.36c28.8 0 53.76-19.2 61.44-46.080l32.64-113.92h-459.52l32.64 113.92zM704 96h-640v128c0 53.12 42.88 96 96 96h448c53.12 0 96-42.88 96-96v-128z" />
<glyph unicode="&#xe95a;" glyph-name="Flip" d="M923.392 323.782c19.789-16.314 32.845-33.491 32.845-52.845 0-23.021-17.754-42.784-44.186-61.453-52.538-37.165-139.142-64.768-242.413-77.773-18.528-2.355-31.716-19.354-29.37-37.978 2.349-18.63 19.29-31.821 37.862-29.459 116.55 14.682 213.683 47.718 272.954 89.645 48.16 34.035 72.915 75.142 72.915 117.018 0 37.344-19.379 73.828-57.51 105.327-14.458 11.919-35.827 9.835-47.706-4.668-11.878-14.458-9.805-35.894 4.608-47.814zM477.783 130.304c-140.752 2.656-264.515 29.44-340.895 70.592-39.843 21.434-67.071 44.595-67.071 72.838 0 18.874 13.452 35.629 33.839 51.538 14.847 11.624 16.989 32.531 4.748 46.631-12.241 14.144-34.257 16.177-49.152 4.552-39.284-30.719-59.252-66.299-59.252-102.721 0-47.469 35.421-94.413 102.445-130.522 83.873-45.171 219.366-76.288 373.941-79.206 19.27-0.352 35.235 14.234 35.607 32.486 0.372 18.298-14.941 33.459-34.211 33.811zM407.996 166.022l72.321-72.966-82.744-63.782c-16.506-12.685-18.199-34.784-3.756-49.331 14.39-14.547 39.468-15.994 55.974-3.309l112.635 86.816c16.506 12.678 18.199 34.778 3.756 49.325l-98.456 99.264c-14.443 14.547-39.52 16.038-55.974 3.309-16.506-12.678-18.199-34.784-3.756-49.325zM640 960h-256c-70.7 0-128-57.3-128-128v-384c0-70.7 57.3-128 128-128h256c70.701 0 128 57.3 128 128v384c0 70.7-64 128-128 128zM704 448c0-35.28-28.723-64-64-64h-256c-35.28 0-64 28.72-64 64v384c0 35.28 28.72 64 64 64h256c35.277 0 64-28.72 64-64v-384z" />
<glyph unicode="&#xe95b;" glyph-name="Folder" d="M896 768h-352l-90.6 90.5c-24 24.020-56.4 37.5-90.399 37.5h-235c-70.7 0-128-57.3-128-128v-640c0-70.701 57.3-128 128-128h768c70.701 0 128 57.299 128 128v512c0 70.6-57.402 128-128 128zM960 128c0-35.283-28.717-64-64-64h-768c-35.28 0-64 28.717-64 64v640c0 35.28 28.72 64 64 64h235c17.098 0 33.16-6.656 45.26-18.75l109.14-109.25h378.6c35.283 0 64-28.72 64-64v-512zM489.4 201.402c12.5-12.499 32.76-12.499 45.24 0l160.003 159.999c12.499 12.5 12.499 32.76 0 45.24-12.506 12.48-32.762 12.5-45.242 0l-105.402-105.437v242.797c0 17.6-14.4 32-32 32s-32-14.4-32-32v-242.797l-105.4 105.396c-6.2 6.2-14.4 9.4-22.6 9.4s-16.4-3.2-22.6-9.4c-12.5-12.5-12.5-32.76 0-45.24l160-159.958z" />
<glyph unicode="&#xe95c;" glyph-name="Font-case" horiz-adv-x="1280" d="M381.801 877.4c-9.5 24.8-50.24 24.8-59.74 0l-319.922-833.804c-6.344-16.531 1.906-35.078 18.374-41.459 16.5-6.323 35 1.946 41.38 18.419l90.56 236h399.148l90.563-236c4.838-12.755 17.037-20.557 29.837-20.557 3.814 0 7.718 0.691 11.501 2.131 16.467 6.387 24.723 24.922 18.374 41.459l-320.074 833.81zM177.081 320.6l174.94 455.8 174.94-455.8h-349.88zM1248 641.4c-17.69 0-30.202-14.344-30.202-32.060v-56.58c-46.957 53.88-115.174 88.66-190.195 88.66-141.165 0-254.202-115.060-254.202-256.6l-0.006-128.698c0-141.504 114.842-256.205 254.202-256.205 76.819 0 145.043 34.803 192 88.666v-56.582c-3.597-17.6 10.803-32 28.403-32s32 14.4 32 33.798v575.601c0 17.601-14.4 32-32 32zM1216 256.602c0-106.099-86.118-192.422-190.202-192.422-105.875 0-190.195 86.323-190.195 192.422v128.198c0 106.1 86.118 192.42 190.195 192.42 105.882 0 190.202-86.32 190.202-192.42v-128.198z" />
<glyph unicode="&#xe95d;" glyph-name="Font" d="M928 64h-42.739l-343.861 814.2c-10 23.74-48.94 23.74-58.94 0l-343.72-814.2h-42.74c-17.672 0-32-14.4-32-32s14.328-32 32-32h160c17.676 0 32 14.33 32 32s-14.4 32-32 32h-47.76l81.28 192.499h445.002l81.28-192.499h-47.802c-17.67 0-32-14.33-32-32s14.4-32 32-32h160c17.677 0 32 14.33 32 32s-14.4 32-32 32zM316.6 320.6l195.4 462.82 195.418-462.8-390.817-0.020z" />
<glyph unicode="&#xe95e;" glyph-name="Gas" d="M190.2 960h320.001c72.4 0 129.8-57.3 129.8-128v-384h32c88.403 0 160-71.6 160-160v-96c0-35.398 28.602-64 64-64s64 28.602 64 64v320c-70.598 0-128 57.4-128 128v151.26l-53.6 49.16c-12.998 11.94-13.997 32.18-1.997 45.2 12 13.040 32.198 13.92 45.197 1.96l160.8-147.38c26.598-24.399 41.6-58.6 41.6-94.4v-453.8c0-70.598-57.402-128-128-128s-128 57.402-128 128v96c0 53-43.002 96-96 96h-32v-384h32c17.6 0 32-14.4 32-32s-14.4-32-32-32h-640c-17.672 0-32 14.4-32 32s14.328 32 32 32h32v832c0 70.7 57.3 127.999 128 127.999l-1.8 0.001zM510.2 896h-320.001c-33.54 0-64-28.66-64-64v-256h449.8v256c0 35.34-28.6 64-65.8 64zM576 512h-449.8v-512h449.8v512zM960 576v69.8c0 18-7.597 35-20.8 47.2l-43.2 39.601v-92.6c0-35.4 28.602-64 64-64z" />
<glyph unicode="&#xe95f;" glyph-name="Gauge" d="M384 256c0 59.597 40.8 109.8 94.2 124v389.8c0 15.88 16.2 32 32 32 19.4 0 33.8-16.12 33.8-32v-389.8c55.2-14.2 96-64.403 96-124 0-70.598-57.4-128-128-128s-128 57.402-128 128zM512 192c35.4 0 64 28.602 64 64s-28.6 64-64 64c-35.4 0-64-28.602-64-64s28.6-64 64-64zM240 672c0 26.6 21.4 48 48 48s48-21.4 48-48c0-26.6-21.4-48-48-48s-48 21.4-48 48zM240 448c0-26.6-21.4-48-48-48-26.5 0-48 21.4-48 48s21.5 48 48 48c26.6 0 48-21.4 48-48zM784 448c0 26.6 21.402 48 48 48s48-21.4 48-48c0-26.6-21.402-48-48-48s-48 21.4-48 48zM784 672c0-26.6-21.402-48-48-48s-48 21.4-48 48c0 26.6 21.402 48 48 48s48-21.4 48-48zM0 448c0 282.8 229.2 512 512 512 282.797 0 512-229.2 512-512 0-282.797-229.203-512-512-512-282.8 0-512 229.203-512 512zM512 0c247.398 0 448 200.602 448 448 0 247.4-200.602 448-448 448-247.4 0-448-200.6-448-448 0-247.398 200.6-448 448-448z" />
<glyph unicode="&#xe960;" glyph-name="Google-play" d="M664 491.4l-441.4 442.6 561.598-322.4-120.198-120.2zM107.4 960c-26-13.6-43.4-38.4-43.4-70.6v-882.604c0-32.198 17.4-56.998 43.4-70.598l513.2 512.002-513.2 511.8zM957.798 508.8l-117.798 68.2-131.398-129 131.398-128.998 120.198 68.198c36 28.6 36 93-2.4 121.6zM222.6-38.003l561.598 322.406-120.198 120.196-441.4-442.603z" />
<glyph unicode="&#xe961;" glyph-name="Help" d="M512.125 960c-282.8 0-512-229.2-512-512 0-282.797 229.2-512 512-512s512.003 229.203 512.003 512c0 282.8-229.203 512-512.003 512zM512.125 0c-247 0-448 200.998-448 448 0 247 201 448 448 448 246.998 0 448.003-201 448.003-448 0-247.002-201.005-448-448.003-448zM480.125 272c-26.5 0-48-21.498-48-48s21.5-48 48-48c26.5 0 48 21.498 48 48s-21.4 48-48 48zM571.325 704h-118.4c-73.2 0-132.8-59.6-132.8-132.8v-19.2c0-17.688 14.312-32 32-32s32 14.4 32 32v19.2c0 38 30.8 68.8 68.8 68.8h118.5c37.9 0 68.703-30.8 68.703-68.8 0-24.96-13.565-48-34.123-59.44l-120.88-60.36c-22.8-12.8-37-36.799-37-63v-36.4c0-17.6 14.4-32 32-32s32 14.4 32 32v36.4c0 2.906 1.563 5.594 2.876 6.344l120.82 60.44c42.106 23.416 68.307 67.816 68.307 116.016 0 73.2-59.603 132.8-132.803 132.8z" />
<glyph unicode="&#xe962;" glyph-name="ID" horiz-adv-x="1152" d="M704 256h256c17.67 0 32 14.33 32 32s-14.4 32-32 32h-256c-17.67 0-32-14.33-32-32s14.4-32 32-32zM1024 896h-896c-70.7 0-128-57.3-128-128v-640c0-70.701 57.3-128 128-128h896c70.701 0 128 57.299 128 128v640c0 70.7-57.402 128-128 128zM1088 128c0-35.283-28.717-64-64-64h-896c-35.28 0-64 28.717-64 64v576h1024v-576zM64 768c0 35.28 28.72 64 64 64h896c35.283 0 64-28.72 64-64h-1024zM704 512h256c17.67 0 32 14.328 32 32s-14.4 32-32 32h-256c-17.67 0-32-14.328-32-32s14.4-32 32-32zM704 384h256c17.67 0 32 14.328 32 32s-14.4 32-32 32h-256c-17.67 0-32-14.328-32-32s14.4-32 32-32zM384 384c70.7 0 128 57.3 128 128s-57.4 128-128 128c-70.6 0-128-57.4-128-128s57.4-128 128-128zM384 576c35.28 0 64-28.72 64-64s-28.8-64-64-64c-35.2 0-64 28.8-64 64s28.8 64 64 64zM192 128c17.672 0 32 14.33 32 32 0 52.998 43 96 96 96h128c53.020 0 96-42.982 96-96 0-17.67 14.328-32 32-32s32 14.33 32 32c0 88.358-71.64 160-160 160h-128c-88.36 0-160-71.642-160-160 0-17.6 14.32-32 32-32z" />
<glyph unicode="&#xe963;" glyph-name="Image-new" horiz-adv-x="1280" d="M798.72 320c26.509 0 48 21.491 48 48s-21.491 48-48 48c-26.509 0-48-21.491-48-48s21.491-48 48-48zM351.36 320c26.509 0 48 21.491 48 48s-21.491 48-48 48c-26.509 0-48-21.491-48-48s21.491-48 48-48zM928 96c16 0 32 14.72 32 32v256c0 62.080-35.2 112.64-83.84 139.52l-43.52 151.68c-15.36 55.040-65.92 92.8-122.88 92.8h-270.72c-56.96 0-106.88-37.76-122.88-92.8l-41.6-151.68c-50.56-27.52-83.84-78.080-83.84-139.52v-256c0-17.28 14.080-32 32-32s32 14.72 32 32v64h640v-64c0-17.28 12.8-32 32-32h1.28zM378.24 657.92c7.68 27.52 32.64 46.080 61.44 46.080h270.72c28.8 0 53.76-19.2 61.44-46.080l32.64-113.92h-458.24l32.64 113.92h-0.64zM256 256v128c0 53.12 42.88 96 96 96h446.72c53.12 0 96-42.88 96-96v-128h-638.72zM1248 832h-96v96c0 16-14.080 32-32 32s-32-16-32-32v-96h-96c-17.92 0-32-16-32-32 0-19.2 14.080-32 32-32h96v-96c0-19.2 14.080-32 32-32s32 12.8 32 32v96h96c17.92 0 32 12.8 32 32 0 16-14.080 32-32 32zM1120 576c-17.92 0-32-14.080-32-32v-480c0-35.2-28.8-64-64-64h-896c-35.2 0-64 28.8-64 64v768c0 35.2 28.8 64 64 64h768c17.92 0 32 14.080 32 32s-14.080 32-32 32h-769.28c-69.12 0-126.72-57.6-126.72-128v-768c0-70.4 57.6-128 126.72-128h897.28c71.040 0 128 57.6 128 128v480c0 17.92-14.080 32-32 32z" />
<glyph unicode="&#xe964;" glyph-name="Import" d="M521.4 150.598c-12.5-12.499-12.5-32.762 0-45.242 6.2-6.157 14.399-9.357 22.6-9.357s16.376 3.123 22.62 9.376l191.997 192c12.499 12.499 12.499 32.76 0 45.24l-191.997 191.999c-12.5 12.5-32.76 12.5-45.24 0s-12.5-32.76 0-45.24l137.417-137.376h-626.797c-17.688 0-32-14.4-32-32s14.312-32 32-32h626.797l-137.396-137.402zM986.598 709.4l-212.998 213c-24.198 24.116-56.602 37.6-90.598 37.6h-299.002c-70.6 0-128-57.3-128-128v-352c0-17.6 14.4-32 32-32s32 14.4 32 32v352c0 35.34 28.66 64 64 64h256v-224c0-53 43.002-96 96-96h224v-512c0-35.341-28.659-64-64-64h-512c-35.34 0-64 28.659-64 64v96c0 17.6-14.4 32-32 32s-32-14.4-32-32v-96c0-70.701 57.32-128 128-128h512c70.701 0 128 57.299 128 128v555c0 33.999-13.402 66.399-37.402 90.399zM736 640c-17.6 0-32 14.4-32 32v219.84c8.954-3.132 17.331-7.692 24.237-14.598l213.005-213c6.957-6.842 11.558-15.242 14.56-24.242h-219.802z" />
<glyph unicode="&#xe965;" glyph-name="Info" d="M512.125 960c-282.8 0-512-229.2-512-512 0-282.797 229.2-512 512-512s512.003 229.203 512.003 512c0 282.8-229.203 512-512.003 512zM512.125 0c-247 0-448 200.998-448 448 0 247 201 448 448 448 246.998 0 448.003-201 448.003-448 0-247.002-201.005-448-448.003-448zM512.125 592c26.5 0 48 21.48 48 48s-21.5 48-48 48c-26.5 0-48-21.4-48-48s21.4-48 48-48zM608.125 256h-64v224c0 17.6-14.4 32-32 32h-64c-17.6 0-32-14.4-32-32s14.4-32 32-32h32v-192h-64c-17.6 0-32-14.4-32-32s14.4-32 32-32h192c17.68 0 32.003 14.323 32.003 32s-14.403 32-32.003 32z" />
<glyph unicode="&#xe966;" glyph-name="Insurance" horiz-adv-x="1152" d="M640 0h-512c-35.2 0-64 28.8-64 64v768c0 35.2 28.8 64 64 64h256v-224c0-53.12 42.88-96 96-96h224v-55.68l64 25.6v86.4c0 25.6-10.24 49.92-28.16 67.84l-231.68 231.68c-17.92 17.92-42.88 28.16-67.84 28.16h-312.32c-70.4 0-128-57.6-128-128v-768c0-70.4 57.6-128 128-128h512c21.76 0 42.24 5.12 60.16 15.36-19.2 15.36-37.12 32-52.48 49.28-2.56 0-5.12 0-7.68 0v-0.64zM446.080 894.72c7.68-1.28 12.8-4.48 16.64-8.32l231.68-231.68c4.48-3.84 7.040-8.96 8.32-14.72h-224.64c-16 0-32 14.72-32 32v222.72zM1121.92 412.8l-240 96c-11.52 4.48-24.32 4.48-35.84 0l-240-96c-19.84-7.68-32-24.96-32-44.8 0-126.72 53.76-337.28 271.36-428.16 11.52-5.12 24.96-5.12 37.12 0 217.6 90.88 269.44 302.080 269.44 428.16 0 19.84-12.16 37.12-30.080 44.8zM896 17.28l-32.64-16-31.36 16c-146.56 81.28-189.44 234.24-192 339.84l224 90.88 224-90.88c-2.56-105.6-44.8-259.2-192-339.84z" />
<glyph unicode="&#xe967;" glyph-name="Justify" d="M928 864c17.6 0 32-14.32 32-32s-14.4-32-32-32h-832c-17.672 0-32 14.32-32 32s14.328 32 32 32h832zM64 576c0 17.6 14.328 32 32 32h832c17.6 0 32-14.4 32-32s-14.4-32-32-32h-832c-17.672 0-32 14.4-32 32zM928 352c17.6 0 32-14.4 32-32s-14.4-32-32-32h-832c-17.672 0-32 14.4-32 32s14.328 32 32 32h832zM928 96c17.6 0 32-14.4 32-32s-14.4-32-32-32h-832c-17.672 0-32 14.4-32 32s14.328 32 32 32h832z" />
<glyph unicode="&#xe968;" glyph-name="Language-info" horiz-adv-x="1280" d="M992 287.782c26.509 0 48 21.472 48 47.968 0 26.493-21.491 47.97-48 47.97s-48-21.477-48-47.97c0-26.496 21.491-47.968 48-47.968zM1025.92 127.878l-1.92 95.942c0 17.907-12.8 31.981-32 31.981h-30.080c-17.92 0-32-14.074-32-31.981s14.080-30.061 30.080-31.981v-63.962c-16 0-30.080-14.067-30.080-31.981 0-17.907 14.080-31.974 32-31.974h64c17.92 0 32 14.707 32 31.974 0 17.274-14.080 31.981-32 31.981zM992 511.64c-158.72 0-288-129.199-288-287.82 0-158.624 129.28-287.821 288-287.821s288 129.197 288 287.821c0 158.62-129.28 287.82-288 287.82zM992-0.038c-123.52 0-224 100.416-224 223.859 0 123.442 100.48 223.859 224 223.859s224-100.417 224-223.859c0-123.443-100.48-223.859-224-223.859zM654.72 23.622c8.96 11.514 16.64 24.947 24.96 39.021-13.44 25.581-23.68 53.082-30.080 82.509-4.48-10.234-8.96-20.467-13.44-30.061-42.88-85.709-90.24-114.49-123.52-114.49s-80.64 28.781-123.52 114.49c-19.84 39.654-36.48 88.902-48 141.35h301.44c1.92 21.747 6.4 43.488 12.16 63.958h-325.12c-5.76 40.294-8.32 83.148-8.32 127.92s3.2 87.625 8.32 127.92h366.72c5.76-40.295 8.32-83.148 8.32-127.92 0-7.676 0-15.35-0.64-23.026 17.92 25.584 39.040 49.249 63.36 69.077-1.28 28.142-3.84 55.645-8.32 81.869h183.040c0 0 0-2.559 0.64-3.838 16 2.559 32.64 3.838 49.92 3.838 5.12 0 10.24 0 15.36-0.64-56.96 220.662-256.64 384.4-495.36 384.4-283.52-0.64-512.64-229.617-512.64-512.32 0-282.701 229.12-511.68 512-511.68 79.36 0 153.6 18.547 220.8 50.528-14.72 15.987-28.16 33.261-39.68 51.808-12.8-5.754-25.6-10.874-38.4-15.354v0.64zM917.12 639.56h-167.68c-19.2 95.3-52.48 175.89-94.080 232.815 115.84-39.016 209.92-123.443 261.76-232.815zM512 895.4c33.28 0 80.64-28.782 123.52-114.488 19.84-39.655 36.48-87.626 46.080-141.352h-342.4c11.52 53.726 28.16 101.697 48 141.352 42.88 85.706 90.24 114.488 123.52 114.488h1.28zM369.28 872.375c-42.24-56.925-74.88-137.514-94.080-232.815h-168.32c51.84 108.732 146.56 193.799 261.76 232.815h0.64zM64 447.68c0 44.132 6.4 87.626 18.56 127.92h181.76c-5.12-40.934-7.68-83.788-7.68-127.92s2.56-86.986 7.68-127.917h-181.76c-12.16 40.292-18.56 83.784-18.56 127.917zM106.88 255.802h167.68c19.2-95.302 52.48-175.891 94.080-232.179-115.84 39.021-209.92 123.443-261.76 232.179z" />
<glyph unicode="&#xe969;" glyph-name="Language" d="M512 960c282.88 0 512-229.12 512-512s-229.12-512-512-512c-282.88 0-512 229.12-512 512s229.12 512 512 512zM512 0c33.28 0 80.64 28.8 123.52 114.56 19.84 39.68 36.48 88.96 46.72 141.44h-342.4c11.52-52.48 28.16-101.76 48-141.44 42.88-85.76 90.24-114.56 123.52-114.56h0.64zM328.32 320h366.72c5.76 40.32 8.32 83.2 8.32 128s-3.2 87.68-8.32 128h-366.72c-5.76-40.32-8.32-83.2-8.32-128s3.2-87.68 8.32-128zM682.24 640c-10.24 53.76-26.88 101.76-46.72 141.44-42.88 85.76-90.24 114.56-123.52 114.56s-80.64-28.8-123.52-114.56c-19.84-39.68-36.48-87.68-48-141.44h341.76zM758.4 576c7.040-40.96 9.6-83.84 9.6-128s-2.56-87.040-9.6-128h183.040c12.16 40.32 18.56 83.84 18.56 128s-6.4 87.68-18.56 128h-183.040zM654.72 872.96c42.24-56.96 75.52-137.6 94.72-232.96h167.68c-51.84 108.8-145.92 193.92-261.76 232.96h-0.64zM369.28 872.96c-115.84-39.040-209.92-123.52-261.76-232.96h167.68c19.2 95.36 52.48 176 94.080 232.96zM64 448c0-44.16 6.4-87.68 18.56-128h181.76c-5.12 40.96-7.68 83.84-7.68 128s2.56 87.040 7.68 128h-181.76c-12.16-40.32-18.56-83.84-18.56-128zM916.48 256h-167.68c-19.2-95.36-52.48-176-94.72-232.32 115.84 39.040 209.92 123.52 261.76 232.32h0.64zM274.56 256h-167.68c51.84-108.8 146.56-193.92 261.76-232.32-42.24 56.32-75.52 137.6-94.080 232.32z" />
<glyph unicode="&#xe96a;" glyph-name="Level-up" d="M73.425 662.6l288 288c6.2 6.274 14.4 9.4 22.6 9.4s16.376-3.124 22.62-9.376l287.998-288c12.499-12.5 12.499-32.76 0-45.24s-32.755-12.5-45.235 0l-233.383 233.356v-754.74c0-52.998 43-96 96-96h352.001c17.677 0 32-14.4 32-32s-14.323-32-32-32h-350.201c-90 0-161.8 71.802-161.8 160v754.74l-233.4-233.4c-12.5-12.5-32.76-12.5-45.24 0s-12.56 32.86 0.040 45.26z" />
<glyph unicode="&#xe96b;" glyph-name="License-plate" horiz-adv-x="1280" d="M958.080 619.52c-5.12 14.080-16.64 20.48-30.080 20.48s-24.96-6.4-30.080-20.48l-128-320c-6.4-16.64 1.28-35.2 17.92-41.6s35.2 1.92 41.6 17.92l17.28 45.44v-1.92h160.64v1.92l17.92-45.44c6.4-16.64 24.96-24.32 41.6-17.92s24.32 24.96 17.92 41.6l-128 320h1.28zM872.96 384l55.040 137.6 55.040-137.6h-110.080zM352 320h-32v288c0 17.92-14.080 32-32 32h-64c-17.92 0-32-14.080-32-32s14.080-32 32-32h32v-256h-32c-17.92 0-32-14.080-32-32s14.080-32 32-32h128c17.92 0 32 14.72 32 32s-14.080 32-32 32zM672 321.92h-122.24l106.88 122.24c42.24 49.92 37.12 121.6-12.8 163.2-47.36 42.88-124.16 37.12-163.84-12.8l-24.96-30.080c-10.88-13.44-10.88-33.92 4.48-44.8 13.44-11.52 33.28-9.6 44.8 4.48l24.96 29.44c18.56 22.4 52.48 24.96 74.24 5.76s24.32-51.84 5.12-73.6l-152.96-176.64c-8.32-9.6-10.24-23.040-5.12-33.92s16.64-18.56 29.44-18.56h192c17.92 0 32 14.72 32 32s-14.080 33.92-32 33.92v-0.64zM1152 896h-1024c-70.4 0-128-57.6-128-128v-640c0-70.4 57.6-128 128-128h1024c70.4 0 128 57.6 128 128v640c0 70.4-57.6 128-128 128zM1216 128c0-35.2-28.8-64-64-64h-1024c-35.2 0-64 28.8-64 64v640c0 35.2 28.8 64 64 64h1024c35.2 0 64-28.8 64-64v-640zM160 704c17.673 0 32 14.327 32 32s-14.327 32-32 32c-17.673 0-32-14.327-32-32s14.327-32 32-32zM1120 704c17.67 0 32 14.327 32 32s-14.33 32-32 32c-17.67 0-32-14.327-32-32s14.33-32 32-32zM160 128c17.673 0 32 14.33 32 32s-14.327 32-32 32c-17.673 0-32-14.33-32-32s14.327-32 32-32zM1120 128c17.67 0 32 14.33 32 32s-14.33 32-32 32c-17.67 0-32-14.33-32-32s14.33-32 32-32z" />
<glyph unicode="&#xe96c;" glyph-name="Link" horiz-adv-x="1280" d="M346 697.201c98.2 99.76 261.8 99.76 361.597 0 95.002-95 98.605-247 12.403-348.4l-10.598-12.2c-11.603-13.4-31.802-14.8-45.203-3.2-13.197 11.4-14.797 31.6-3.2 45l10.803 12.4c65.798 76 61.798 190-9.402 261-74.8 75-196.2 75-271 0l-249.2-249c-74.98-75-74.98-196.599 0-271.601 75-75.002 196.6-75.002 271.6 0l45.2 45.203c12.4 12.595 32.8 12.595 45.2 0 12.6-12.403 12.6-32.602 0-45.203l-45.2-45.197c-100-100-262.080-100-362.060 0-99.972 100-99.972 263.797 0 361.997l249.060 249.2zM932.198 198.803c-98.202-99.802-260-99.802-359.798 0-95 94.995-100.4 246.997-14.2 348.397l12.4 12.2c11.6 13.4 31.8 14.8 45.2 3.2 13.2-11.4 14.8-31.6 3.2-45l-10.8-12.4c-65.8-76-61.8-190.001 9.4-261.002 74.797-74.995 196.198-74.995 271.002 0l249.197 249.002c75.002 75 75.002 196.6 0 271.58s-196.602 74.98-271.597 0l-45.203-45.18c-12.397-12.6-32.8-12.6-45.197 0-12.602 14.2-12.602 32.6 0 45.18l45.197 45.26c100 99.98 262.003 99.98 362.003 0 100-98.24 100-262.040 0-360.24l-250.803-250.997z" />
<glyph unicode="&#xe96d;" glyph-name="List-cascade" d="M0 784c0 26.5 21.5 48 48 48h96c26.5 0 48-21.5 48-48v-96c0-26.6-21.5-48-48-48h-16v-192h128v16c0 26.6 21.4 48 48 48h96c26.6 0 48-21.4 48-48v-96c0-26.6-21.4-48-48-48h-96c-26.6 0-48 21.4-48 48v16h-128v-224c0-17.6 14.32-32 32-32h96v16c0 26.598 21.4 48 48 48h96c26.6 0 48-21.402 48-48v-96c0-26.598-21.4-48-48-48h-96c-26.6 0-48 21.402-48 48v16h-96c-53.020 0-96 43.002-96 96v480h-16c-26.5 0-48 21.4-48 48v96zM128 704v64h-64v-64h64zM384 64v64h-64v-64h64zM320 448v-64h64v64h-64zM320 736c0 17.68 14.4 32 32 32h640c17.6 0 32-14.32 32-32 0-17.6-14.4-32-32-32h-640c-17.6 0-32 14.4-32 32zM576 416c0 17.6 14.4 32 32 32h384c17.6 0 32-14.4 32-32s-14.4-32-32-32h-384c-17.6 0-32 14.4-32 32zM576 96c0 17.6 14.4 32 32 32h384c17.6 0 32-14.4 32-32s-14.4-32-32-32h-384c-17.6 0-32 14.4-32 32z" />
<glyph unicode="&#xe96e;" glyph-name="List-ordered" d="M64.001 863.92c0 17.68 14.32 32 32 32h64c17.6 0 32-14.32 32-32v-287.92h64c17.599 0 32-14.4 32-32 0-17.8-14.401-32-32-32h-192c-17.68 0-32 14.2-32 32 0 17.6 14.32 32 32 32h64v255.92h-32c-17.68 0-32 14.34-32 32zM384.001 768c0 17.68 14.4 32 32 32h575.999c17.6 0 32-14.32 32-32 0-17.6-14.4-32-32-32h-575.999c-17.6 0-32 14.4-32 32zM384.001 448c0 17.6 14.4 32 32 32h575.999c17.6 0 32-14.4 32-32s-14.4-32-32-32h-575.999c-17.6 0-32 14.4-32 32zM384.001 128c0 17.6 14.4 32 32 32h575.999c17.6 0 32-14.4 32-32s-14.4-32-32-32h-575.999c-17.6 0-32 14.4-32 32zM86.62 281.402c-12.48-12.602-32.74-12.602-45.24 0-12.5 12.397-12.5 32.8 0 45.198l30.82 30.8c48.36 48.4 127.6 45.8 172.6-5.6 40-43.998 38.801-114.2-2.6-158.603l-120.56-129.197h134.36c17.599 0 32-14.4 32-32s-14.401-32-32-32h-208c-12.74 0-24.26 7.597-29.34 19.2-5.080 11.802-2.74 25.402 5.94 34.598l170.8 183.002c19 20.397 19.6 51.802 1.2 72.8-22.4 23.6-57 24.8-79.14 2.598l-30.84-30.797z" />
<glyph unicode="&#xe96f;" glyph-name="List-unlock" horiz-adv-x="1152" d="M64 128v640c0 35.199 28.801 64 64 64h640c35.2 0 64-28.801 64-64v-86.401c19.84 9.6 41.6 16 64 19.201v67.199c0 70.401-57.6 128-128 128h-640c-70.4 0-128-57.599-128-128v-640c0-70.4 57.6-128 128-128h512v64h-512c-35.199 0-64 28.8-64 64zM304 640c0-26.51-21.49-48-48-48s-48 21.49-48 48c0 26.51 21.49 48 48 48s48-21.49 48-48zM384 640c0 17.92 14.080 32 32 32h256c17.92 0 32-14.080 32-32s-14.080-32-32-32h-256c-17.92 0-32 14.080-32 32zM672 480h-256c-17.92 0-32-14.080-32-32s14.080-32 32-32h256c17.92 0 32 14.080 32 32s-14.080 32-32 32zM304 448c0-26.51-21.49-48-48-48s-48 21.49-48 48c0 26.51 21.49 48 48 48s48-21.49 48-48zM256 208c26.51 0 48 21.491 48 48s-21.49 48-48 48c-26.51 0-48-21.491-48-48s21.49-48 48-48zM832 320h256c35.2 0 64-28.8 64-64v-256c0-35.2-28.8-64-64-64h-320c-35.2 0-64 28.8-64 64v256c0 35.2 28.8 64 64 64v160c0 88.32 75.52 160 161.92 160s158.080-71.68 158.080-160c0-17.279-14.080-32-32-32s-32 14.721-32 32c0 53.119-42.88 96-96 96s-96-42.881-96-96v-160zM1088 256h-320v-256h320v256zM416 224c-17.92 0-32 14.080-32 32s14.080 32 32 32h224v-64h-224z" />
<glyph unicode="&#xe970;" glyph-name="List-unordered" d="M128 832c35.34 0 64-28.66 64-64 0-35.4-28.66-64-64-64s-64 28.6-64 64c0 35.34 28.66 64 64 64zM992 800c17.6 0 32-14.32 32-32 0-17.6-14.4-32-32-32h-640c-17.6 0-32 14.4-32 32 0 17.68 14.4 32 32 32h640zM992 480c17.6 0 32-14.4 32-32s-14.4-32-32-32h-640c-17.6 0-32 14.4-32 32s14.4 32 32 32h640zM992 160c17.6 0 32-14.4 32-32s-14.4-32-32-32h-640c-17.6 0-32 14.4-32 32s14.4 32 32 32h640zM128 384c-35.34 0-64 28.6-64 64s28.66 64 64 64c35.34 0 64-28.6 64-64s-28.66-64-64-64zM128 192c35.34 0 64-28.602 64-64s-28.66-64-64-64c-35.34 0-64 28.602-64 64s28.66 64 64 64z" />
</font>
</defs>
</svg>
